{"glyphs":{"0":{"ha":794,"x_min":68,"x_max":726,"o":"m 396 -14 q 148 122 228 -14 q 68 497 68 257 q 101 772 68 658 q 206 947 133 886 q 396 1007 278 1007 q 644 873 563 1007 q 726 497 726 739 q 693 223 726 338 q 588 47 660 108 q 396 -14 515 -14 m 396 90 q 555 191 507 90 q 603 497 603 292 q 555 801 603 700 q 396 903 507 903 q 237 801 283 903 q 190 497 190 700 q 237 192 190 293 q 396 90 283 90 z "},"1":{"ha":794,"x_min":124,"x_max":493,"o":"m 374 0 l 374 693 q 375 789 374 753 q 379 864 376 825 q 339 827 357 843 q 293 788 321 811 l 188 701 l 124 783 l 392 992 l 493 992 l 493 0 l 374 0 z "},"2":{"ha":794,"x_min":67,"x_max":722,"o":"m 67 0 l 67 101 l 326 364 q 453 497 401 439 q 531 612 504 556 q 557 735 557 668 q 508 859 557 817 q 382 901 460 901 q 255 876 310 901 q 143 807 200 851 l 78 889 q 212 972 136 938 q 382 1006 288 1006 q 601 935 521 1006 q 682 742 682 865 q 650 597 682 664 q 561 463 618 529 q 428 321 504 396 l 221 117 l 221 111 l 722 111 l 722 0 l 67 0 z "},"3":{"ha":794,"x_min":63,"x_max":715,"o":"m 335 -14 q 190 -2 257 -14 q 63 40 124 10 l 63 154 q 197 106 125 124 q 336 89 269 89 q 528 141 469 89 q 588 285 588 193 q 515 419 588 378 q 310 460 442 460 l 214 460 l 214 564 l 311 564 q 497 615 433 564 q 560 751 560 667 q 511 863 560 824 q 379 903 463 903 q 242 879 299 903 q 129 819 185 856 l 68 903 q 199 975 121 944 q 378 1006 278 1006 q 609 936 533 1006 q 685 760 685 867 q 629 601 685 660 q 479 522 574 542 l 479 517 q 657 442 599 503 q 715 282 715 381 q 675 128 715 196 q 551 24 635 61 q 335 -14 467 -14 z "},"4":{"ha":794,"x_min":29,"x_max":767,"o":"m 504 0 l 504 225 l 29 225 l 29 329 l 496 997 l 622 997 l 622 335 l 767 335 l 767 225 l 622 225 l 622 0 l 504 0 m 149 335 l 504 335 l 504 647 q 506 770 504 719 q 511 867 508 821 l 506 867 q 478 810 494 840 q 446 758 461 779 l 149 335 z "},"5":{"ha":794,"x_min":88,"x_max":715,"o":"m 344 -14 q 201 0 268 -14 q 88 40 133 14 l 88 156 q 209 108 138 125 q 346 90 281 90 q 523 142 456 90 q 590 304 590 194 q 531 453 590 401 q 342 506 471 506 q 253 499 303 506 q 172 485 203 492 l 111 524 l 149 992 l 646 992 l 646 881 l 253 881 l 229 593 q 293 603 253 597 q 382 608 333 608 q 625 532 535 608 q 715 317 715 456 q 617 74 715 163 q 344 -14 519 -14 z "},"6":{"ha":794,"x_min":76,"x_max":729,"o":"m 414 -14 q 243 33 319 -14 q 122 178 167 81 q 76 424 76 275 q 95 634 76 531 q 163 822 114 738 q 301 956 213 906 q 531 1006 390 1006 q 595 1003 560 1006 q 653 993 631 1000 l 653 889 q 597 901 628 897 q 533 906 565 906 q 374 874 438 906 q 273 786 310 842 q 219 658 236 731 q 199 504 203 586 l 207 504 q 296 587 239 553 q 442 621 353 621 q 650 542 571 621 q 729 319 729 464 q 644 75 729 164 q 414 -14 558 -14 m 413 89 q 554 145 500 89 q 608 319 608 201 q 560 469 608 414 q 417 525 513 525 q 303 498 351 525 q 227 429 254 471 q 200 343 200 388 q 224 224 200 283 q 294 127 247 165 q 413 89 342 89 z "},"7":{"ha":794,"x_min":61,"x_max":726,"o":"m 189 0 l 596 881 l 61 881 l 61 992 l 726 992 l 726 897 l 324 0 l 189 0 z "},"8":{"ha":794,"x_min":68,"x_max":725,"o":"m 400 -14 q 154 56 240 -14 q 68 253 68 126 q 97 371 68 321 q 172 457 125 421 q 274 518 219 493 q 151 619 201 560 q 100 769 100 678 q 139 898 100 846 q 244 978 178 950 q 396 1006 311 1006 q 610 944 526 1006 q 693 768 693 883 q 667 664 693 708 q 599 585 642 619 q 504 525 556 551 q 615 459 565 496 q 695 374 665 422 q 725 257 725 325 q 637 59 725 132 q 400 -14 549 -14 m 401 572 q 523 646 474 603 q 572 764 572 689 q 524 870 572 833 q 394 907 475 907 q 269 870 318 907 q 219 764 219 833 q 244 678 219 713 q 310 619 268 643 q 401 572 351 594 m 397 83 q 552 131 499 83 q 606 256 606 179 q 549 376 606 328 q 397 460 492 424 l 375 468 q 235 378 283 429 q 188 251 188 328 q 239 131 188 179 q 397 83 290 83 z "},"9":{"ha":794,"x_min":69,"x_max":722,"o":"m 267 -14 q 202 -10 239 -14 q 142 0 165 -7 l 142 104 q 264 86 196 86 q 424 118 361 86 q 525 205 488 150 q 579 333 563 260 q 599 486 596 406 l 590 486 q 502 405 560 439 q 354 371 444 371 q 148 449 226 371 q 69 671 69 528 q 109 850 69 775 q 219 965 149 925 q 386 1006 290 1006 q 557 958 481 1006 q 678 813 633 910 q 722 568 722 717 q 703 358 722 461 q 635 170 685 254 q 497 36 586 86 q 267 -14 407 -14 m 381 467 q 496 494 447 467 q 572 563 544 521 q 599 649 599 604 q 575 767 599 708 q 504 864 551 825 q 386 903 457 903 q 245 846 300 903 q 190 672 190 789 q 237 522 190 576 q 381 467 283 467 z "},"A":{"ha":888,"x_min":0,"x_max":886,"o":"m 0 0 l 388 996 l 500 996 l 886 0 l 757 0 l 638 307 l 244 307 l 126 0 l 0 0 m 286 418 l 600 418 l 489 718 q 475 758 485 729 q 456 819 465 788 q 442 867 447 850 q 419 783 432 824 q 399 718 407 742 l 286 418 z "},"⌶":{"ha":1050,"x_min":71,"x_max":979,"o":"m 71 36 l 71 135 l 476 135 l 476 846 l 71 846 l 71 944 l 979 944 l 979 846 l 575 846 l 575 135 l 979 135 l 979 36 l 71 36 z "},"⍺":{"ha":854,"x_min":76,"x_max":833,"o":"m 382 -14 q 158 88 239 -14 q 76 369 76 189 q 159 657 76 556 q 393 758 242 758 q 530 730 475 758 q 621 644 585 701 l 629 644 q 674 744 646 706 l 769 744 q 751 663 760 714 q 739 556 743 611 q 735 453 735 500 l 735 164 q 751 103 735 121 q 792 86 768 86 q 813 88 803 86 q 833 93 824 89 l 833 4 q 801 -8 824 -1 q 756 -14 779 -14 q 665 15 696 -14 q 624 100 635 44 l 614 100 q 517 13 574 40 q 382 -14 461 -14 m 403 88 q 564 151 514 88 q 614 361 614 215 l 614 367 q 563 590 614 524 q 401 656 513 656 q 203 368 203 656 q 251 158 203 228 q 403 88 299 88 z "},"⍶":{"ha":854,"x_min":71,"x_max":833,"o":"m 382 -14 q 158 88 239 -14 q 76 369 76 189 q 159 657 76 556 q 393 758 242 758 q 530 730 475 758 q 621 644 585 701 l 629 644 q 674 744 646 706 l 769 744 q 751 663 760 714 q 739 556 743 611 q 735 453 735 500 l 735 164 q 751 103 735 121 q 792 86 768 86 q 813 88 803 86 q 833 93 824 89 l 833 4 q 801 -8 824 -1 q 756 -14 779 -14 q 665 15 696 -14 q 624 100 635 44 l 614 100 q 517 13 574 40 q 382 -14 461 -14 m 403 88 q 564 151 514 88 q 614 361 614 215 l 614 367 q 563 590 614 524 q 401 656 513 656 q 203 368 203 656 q 251 158 203 228 q 403 88 299 88 m 71 -207 l 71 -108 l 832 -108 l 832 -207 l 71 -207 z "},"⍀":{"ha":749,"x_min":71,"x_max":678,"o":"m 71 372 l 71 465 l 304 465 l 101 990 l 206 990 l 408 465 l 678 465 l 678 372 l 444 372 l 647 -153 l 543 -153 l 340 372 l 71 372 z "},"⍉":{"ha":933,"x_min":71,"x_max":863,"o":"m 467 100 q 313 131 385 100 q 187 216 242 161 q 101 342 132 271 q 71 496 71 414 q 121 688 71 600 q 254 829 171 776 l 140 1072 l 239 1072 l 333 868 q 467 892 399 892 q 620 861 549 892 q 747 776 692 831 q 832 649 801 721 q 863 496 863 578 q 809 297 863 388 q 668 156 756 207 l 793 -114 l 694 -114 l 586 118 q 467 100 528 100 m 467 793 q 376 779 419 793 l 625 244 q 726 351 688 285 q 764 496 764 417 q 724 645 764 578 q 616 753 683 713 q 467 793 549 793 m 467 199 q 543 208 506 199 l 296 739 q 204 635 239 699 q 169 496 169 571 q 210 347 169 414 q 317 239 250 279 q 467 199 385 199 z "},"⍥":{"ha":933,"x_min":71,"x_max":863,"o":"m 321 1025 q 272 1045 292 1025 q 251 1094 251 1065 q 272 1144 251 1125 q 321 1164 292 1164 q 370 1144 350 1164 q 390 1094 390 1125 q 369 1044 390 1064 q 321 1025 349 1025 m 611 1025 q 562 1045 582 1025 q 542 1094 542 1065 q 562 1144 542 1125 q 611 1164 582 1164 q 660 1144 640 1164 q 681 1094 681 1125 q 660 1044 681 1064 q 611 1025 639 1025 m 467 100 q 313 131 385 100 q 187 216 242 161 q 101 342 132 271 q 71 496 71 414 q 101 649 71 578 q 187 776 132 721 q 313 861 242 831 q 467 892 385 892 q 620 861 549 892 q 747 776 692 831 q 832 649 801 721 q 863 496 863 578 q 832 342 863 414 q 747 216 801 271 q 620 131 692 161 q 467 100 549 100 m 467 199 q 616 239 549 199 q 724 347 683 279 q 764 496 764 415 q 724 645 764 578 q 616 753 683 713 q 467 793 549 793 q 317 753 385 793 q 210 645 250 713 q 169 496 169 578 q 210 347 169 414 q 317 239 250 279 q 467 199 385 199 z "},"⌾":{"ha":1072,"x_min":71,"x_max":1001,"o":"m 536 31 q 356 67 440 31 q 207 168 271 104 q 107 316 143 232 q 71 496 71 400 q 107 676 71 592 q 207 824 143 760 q 356 924 271 888 q 536 961 440 961 q 716 926 632 961 q 864 826 800 890 q 965 678 928 763 q 1001 496 1001 594 q 965 316 1001 400 q 864 168 928 232 q 716 67 800 104 q 536 31 632 31 m 536 129 q 678 158 611 129 q 795 238 744 188 q 874 355 846 289 q 903 496 903 421 q 853 682 903 599 q 719 814 803 765 q 536 863 636 863 q 394 834 460 863 q 277 755 328 806 q 198 638 226 704 q 169 496 169 571 q 198 355 169 421 q 277 238 226 289 q 394 158 328 188 q 536 129 460 129 m 536 263 q 419 294 472 263 q 334 379 365 326 q 303 496 303 432 q 334 613 303 560 q 419 697 365 665 q 536 729 472 729 q 653 698 600 729 q 738 614 706 667 q 769 496 769 561 q 738 379 769 432 q 653 294 706 326 q 536 263 600 263 m 536 350 q 639 392 596 350 q 682 496 682 435 q 639 599 682 557 q 536 642 596 642 q 433 599 476 642 q 390 496 390 557 q 433 393 390 436 q 536 350 476 350 z "},"⍟":{"ha":1072,"x_min":71,"x_max":1001,"o":"m 536 8 q 356 44 440 8 q 208 144 272 81 q 107 293 143 208 q 71 474 71 378 q 107 653 71 569 q 208 802 143 738 q 356 903 272 867 q 536 939 440 939 q 717 903 632 939 q 865 803 801 867 q 965 654 929 739 q 1001 474 1001 569 q 965 293 1001 378 q 865 144 929 208 q 717 44 801 81 q 536 8 633 8 m 536 107 q 722 156 639 107 q 853 289 804 206 q 903 474 903 372 q 854 659 903 576 q 722 791 806 742 q 536 840 639 840 q 351 790 435 840 q 219 658 268 740 q 169 474 169 575 q 219 289 169 372 q 351 156 268 206 q 536 107 435 107 m 411 203 l 321 268 l 453 443 l 243 508 l 278 614 l 485 542 l 481 761 l 592 761 l 588 542 l 794 614 l 829 508 l 619 443 l 751 268 l 661 203 l 536 383 l 411 203 z "},"⌽":{"ha":933,"x_min":71,"x_max":863,"o":"m 417 -114 l 417 103 q 241 171 319 115 q 117 311 163 226 q 71 496 71 396 q 117 681 71 596 q 241 821 163 765 q 417 889 319 876 l 417 1072 l 515 1072 l 515 889 q 692 822 613 876 q 817 682 771 767 q 863 496 863 597 q 817 310 863 394 q 692 170 771 225 q 515 103 613 115 l 515 -114 l 417 -114 m 764 496 q 731 632 764 569 q 642 736 699 694 q 515 789 586 778 l 515 203 q 642 256 586 214 q 731 360 699 299 q 764 496 764 422 m 169 496 q 202 360 169 422 q 291 257 235 299 q 417 203 347 215 l 417 789 q 291 735 347 776 q 202 631 235 693 q 169 496 169 569 z "},"⍜":{"ha":933,"x_min":71,"x_max":863,"o":"m 467 100 q 313 131 385 100 q 187 216 242 161 q 101 342 132 271 q 71 496 71 414 q 101 649 71 578 q 187 776 132 721 q 313 861 242 831 q 467 892 385 892 q 620 861 549 892 q 747 776 692 831 q 832 649 801 721 q 863 496 863 578 q 832 342 863 414 q 747 216 801 271 q 620 131 692 161 q 467 100 549 100 m 467 199 q 616 239 549 199 q 724 347 683 279 q 764 496 764 415 q 724 645 764 578 q 616 753 683 713 q 467 793 549 793 q 317 753 385 793 q 210 645 250 713 q 169 496 169 578 q 210 347 169 414 q 317 239 250 279 q 467 199 385 199 m 71 -207 l 71 -108 l 863 -108 l 863 -207 l 71 -207 z "},"⍪":{"ha":478,"x_min":71,"x_max":407,"o":"m 71 497 l 71 603 l 407 603 l 407 497 l 71 497 m 108 0 q 148 170 131 85 q 178 340 165 256 l 308 340 l 318 325 q 272 180 301 261 q 199 0 243 99 l 108 0 z "},"⍢":{"ha":833,"x_min":71,"x_max":763,"o":"m 272 1025 q 223 1045 243 1025 q 203 1094 203 1065 q 223 1144 203 1125 q 272 1164 243 1164 q 322 1144 301 1164 q 342 1094 342 1125 q 321 1044 342 1064 q 272 1025 300 1025 m 563 1025 q 513 1045 533 1025 q 493 1094 493 1065 q 513 1144 493 1125 q 563 1164 533 1164 q 612 1144 592 1164 q 632 1094 632 1125 q 611 1044 632 1064 q 563 1025 590 1025 m 358 36 l 71 875 l 71 944 l 763 944 l 763 875 l 475 36 l 358 36 m 417 138 q 442 235 426 181 q 481 354 458 290 l 646 846 l 188 846 l 353 354 q 391 235 375 290 q 417 138 407 181 z "},"⍒":{"ha":736,"x_min":71,"x_max":665,"o":"m 318 -114 l 318 93 l 71 810 l 71 869 l 318 869 l 318 1072 l 417 1072 l 417 869 l 665 869 l 665 810 l 417 89 l 417 -114 l 318 -114 m 181 776 l 318 351 l 318 776 l 181 776 m 556 776 l 417 776 l 417 347 l 556 776 z "},"⍋":{"ha":736,"x_min":71,"x_max":665,"o":"m 71 89 l 71 149 l 318 865 l 318 1072 l 417 1072 l 417 869 l 665 149 l 665 89 l 417 89 l 417 -114 l 318 -114 l 318 89 l 71 89 m 556 182 l 417 611 l 417 182 l 556 182 m 181 182 l 318 182 l 318 607 l 181 182 z "},"⍙":{"ha":736,"x_min":71,"x_max":665,"o":"m 71 89 l 71 149 l 319 869 l 417 869 l 665 149 l 665 89 l 71 89 m 181 182 l 556 182 l 368 740 l 181 182 m 71 -207 l 71 -108 l 665 -108 l 665 -207 l 71 -207 z "},"⍫":{"ha":1050,"x_min":71,"x_max":979,"o":"m 71 408 l 71 513 q 163 569 114 550 q 276 593 213 589 l 179 875 l 179 944 l 871 944 l 871 875 l 744 507 l 749 507 q 867 526 815 507 q 979 594 918 546 l 979 492 q 872 428 929 449 q 733 408 814 408 q 711 408 722 408 l 583 36 l 467 36 l 308 497 l 301 497 q 184 478 235 497 q 71 408 133 460 m 540 550 q 590 532 565 540 q 644 518 615 524 l 754 846 l 296 846 l 382 592 q 466 575 428 586 q 540 550 504 564 m 525 138 q 551 235 535 181 q 589 354 567 290 l 611 421 q 558 436 583 428 q 510 454 533 444 q 465 472 488 464 q 417 485 442 479 l 461 354 q 499 235 483 290 q 525 138 515 181 z "},"⍚":{"ha":1197,"x_min":71,"x_max":1126,"o":"m 599 0 l 71 528 l 599 1056 l 1126 528 l 599 0 m 599 142 l 985 528 l 599 914 l 213 528 l 599 142 m 71 -207 l 71 -108 l 1126 -108 l 1126 -207 l 71 -207 z "},"⍱":{"ha":1050,"x_min":71,"x_max":979,"o":"m 71 408 l 71 513 q 226 588 139 571 l 71 832 l 181 832 l 333 594 q 447 581 399 593 q 540 550 494 568 q 600 529 569 539 q 665 514 631 519 l 869 832 l 979 832 l 772 507 q 876 530 829 510 q 979 594 924 550 l 979 492 q 872 428 929 449 q 733 408 814 408 q 710 408 721 408 l 558 172 l 492 172 l 285 497 q 177 475 225 494 q 71 408 129 456 m 510 454 q 457 474 483 465 q 401 488 431 482 l 525 294 l 607 422 q 557 437 581 429 q 510 454 533 444 z "},"⍦":{"ha":947,"x_min":71,"x_max":876,"o":"m 425 -114 l 425 85 q 71 558 71 114 l 71 869 l 169 869 l 169 558 q 425 185 169 213 l 425 1072 l 524 1072 l 524 185 q 778 558 778 214 l 778 869 l 876 869 l 876 558 q 524 85 876 115 l 524 -114 l 425 -114 z "},"⍎":{"ha":1050,"x_min":71,"x_max":979,"o":"m 71 36 l 71 135 l 476 135 l 476 268 q 382 312 424 279 q 316 392 340 344 q 292 496 292 440 q 316 599 292 551 q 382 680 340 647 q 476 724 424 713 l 476 944 l 575 944 l 575 724 q 706 644 653 707 q 758 496 758 581 q 734 393 758 440 q 669 313 710 346 q 575 268 628 279 l 575 135 l 979 135 l 979 36 l 71 36 m 379 496 q 406 411 379 449 q 476 358 433 374 l 476 633 q 406 581 433 618 q 379 496 379 543 m 671 496 q 644 581 671 543 q 575 633 617 618 l 575 358 q 644 411 617 374 q 671 496 671 449 z "},"⍊":{"ha":1050,"x_min":71,"x_max":979,"o":"m 71 36 l 71 135 l 476 135 l 476 944 l 575 944 l 575 135 l 979 135 l 979 36 l 71 36 m 71 -171 l 71 -72 l 978 -72 l 978 -171 l 71 -171 z "},"⍖":{"ha":971,"x_min":71,"x_max":900,"o":"m 486 0 l 289 217 l 436 193 l 436 419 l 71 419 l 71 518 l 436 518 l 436 992 l 535 992 l 535 518 l 900 518 l 900 419 l 535 419 l 535 193 l 683 217 l 486 0 z "},"⍷":{"ha":688,"x_min":57,"x_max":669,"o":"m 431 -14 q 169 85 261 -14 q 76 368 76 183 q 169 658 76 558 q 435 758 263 758 q 546 747 492 758 q 640 718 600 736 l 604 618 q 432 653 514 653 q 269 599 325 653 q 203 433 214 544 l 568 433 l 568 333 l 201 333 q 263 150 208 210 q 428 90 318 90 q 541 103 492 90 q 629 132 590 117 l 629 26 q 431 -14 546 -14 m 57 -207 l 57 -108 l 669 -108 l 669 -207 l 57 -207 z "},"⍩":{"ha":794,"x_min":71,"x_max":724,"o":"m 251 814 q 202 833 222 814 q 182 883 182 853 q 202 933 182 913 q 251 953 222 953 q 301 933 282 953 q 321 883 321 913 q 301 833 321 853 q 251 814 282 814 m 543 814 q 493 833 513 814 q 474 883 474 853 q 493 933 474 913 q 543 953 513 953 q 592 933 572 953 q 613 883 613 913 q 592 833 613 853 q 543 814 572 814 m 71 83 l 71 192 l 579 425 l 71 658 l 71 767 l 724 460 l 724 390 l 71 83 z "},"⍳":{"ha":481,"x_min":114,"x_max":456,"o":"m 325 -14 q 165 43 215 -14 q 114 218 114 100 l 114 744 l 235 744 l 235 219 q 260 119 235 151 q 342 86 286 86 q 405 91 372 86 q 456 101 438 96 l 456 8 q 399 -7 438 0 q 325 -14 361 -14 z "},"⍸":{"ha":481,"x_min":72,"x_max":457,"o":"m 325 -14 q 165 43 215 -14 q 114 218 114 100 l 114 744 l 235 744 l 235 219 q 260 119 235 151 q 342 86 286 86 q 405 91 372 86 q 456 101 438 96 l 456 8 q 399 -7 438 0 q 325 -14 361 -14 m 72 -207 l 72 -108 l 457 -108 l 457 -207 l 72 -207 z "},"⍤":{"ha":608,"x_min":71,"x_max":538,"o":"m 158 814 q 109 833 129 814 q 89 883 89 853 q 109 933 89 913 q 158 953 129 953 q 208 933 189 953 q 228 883 228 913 q 208 833 228 853 q 158 814 189 814 m 450 814 q 400 833 419 814 q 381 883 381 853 q 400 933 381 913 q 450 953 419 953 q 499 933 479 953 q 519 883 519 913 q 499 833 519 853 q 450 814 479 814 m 304 263 q 187 294 240 263 q 102 379 133 326 q 71 496 71 432 q 102 613 71 560 q 187 697 133 665 q 304 729 240 729 q 421 698 368 729 q 506 614 474 667 q 538 496 538 561 q 506 379 538 432 q 421 294 474 326 q 304 263 368 263 m 304 350 q 407 392 364 350 q 450 496 450 435 q 407 599 450 557 q 304 642 364 642 q 201 599 244 642 q 158 496 158 557 q 201 393 158 436 q 304 350 244 350 z "},"⍛":{"ha":611,"x_min":71,"x_max":540,"o":"m 306 263 q 188 294 242 263 q 103 379 135 326 q 72 496 72 432 q 103 613 72 560 q 188 697 135 665 q 306 729 242 729 q 422 698 369 729 q 507 614 475 667 q 539 496 539 561 q 507 379 539 432 q 422 294 475 326 q 306 263 369 263 m 306 350 q 408 392 365 350 q 451 496 451 435 q 408 599 451 557 q 306 642 365 642 q 203 599 246 642 q 160 496 160 557 q 203 393 160 436 q 306 350 246 350 m 71 -207 l 71 -108 l 540 -108 l 540 -207 l 71 -207 z "},"⍧":{"ha":928,"x_min":71,"x_max":857,"o":"m 492 -114 l 492 78 q 71 479 71 101 q 492 881 71 857 l 492 1072 l 590 1072 l 590 882 l 857 882 l 857 783 l 590 783 l 590 175 l 857 175 l 857 76 l 590 76 l 590 -114 l 492 -114 m 169 479 q 492 176 169 197 l 492 782 q 169 479 169 761 z "},"⍅":{"ha":978,"x_min":71,"x_max":907,"o":"m 474 0 l 474 450 l 264 450 l 288 301 l 71 496 l 288 690 l 264 543 l 474 543 l 474 992 l 572 992 l 572 543 l 907 543 l 907 450 l 572 450 l 572 0 l 474 0 z "},"⍵":{"ha":1086,"x_min":78,"x_max":1008,"o":"m 343 -14 q 149 87 219 -14 q 78 361 78 188 q 98 560 78 471 q 160 744 118 650 l 285 744 q 220 555 240 643 q 200 360 200 467 q 240 159 200 231 q 351 88 279 88 q 450 135 415 88 q 485 268 485 183 l 485 478 l 601 478 l 601 268 q 635 134 601 181 q 733 88 669 88 q 845 156 804 88 q 886 360 886 225 q 866 556 886 467 q 801 744 846 644 l 926 744 q 990 553 971 640 q 1008 361 1008 465 q 938 85 1008 185 q 743 -14 867 -14 q 546 111 594 -14 l 539 111 q 343 -14 496 -14 z "},"⍹":{"ha":1086,"x_min":57,"x_max":1029,"o":"m 343 -14 q 149 87 219 -14 q 78 361 78 188 q 98 560 78 471 q 160 744 118 650 l 285 744 q 220 555 240 643 q 200 360 200 467 q 240 159 200 231 q 351 88 279 88 q 450 135 415 88 q 485 268 485 183 l 485 478 l 601 478 l 601 268 q 635 134 601 181 q 733 88 669 88 q 845 156 804 88 q 886 360 886 225 q 866 556 886 467 q 801 744 846 644 l 926 744 q 990 553 971 640 q 1008 361 1008 465 q 938 85 1008 185 q 743 -14 867 -14 q 546 111 594 -14 l 539 111 q 343 -14 496 -14 m 57 -207 l 57 -108 l 1029 -108 l 1029 -207 l 57 -207 z "},"⎕":{"ha":1011,"x_min":110,"x_max":901,"o":"m 110 -142 l 110 1133 l 901 1133 l 901 -142 l 110 -142 m 208 -43 l 803 -43 l 803 1035 l 208 1035 l 208 -43 z "},"⍂":{"ha":1011,"x_min":110,"x_max":901,"o":"m 110 -142 l 110 1133 l 901 1133 l 901 -142 l 110 -142 m 803 1035 l 254 1035 l 803 78 l 803 1035 m 208 -43 l 757 -43 l 208 914 l 208 -43 z "},"⌼":{"ha":1011,"x_min":110,"x_max":901,"o":"m 110 -142 l 110 1133 l 901 1133 l 901 -142 l 110 -142 m 506 892 q 672 856 594 892 q 803 757 749 819 l 803 1035 l 208 1035 l 208 757 q 340 856 263 819 q 506 892 417 892 m 506 199 q 655 239 588 199 q 763 347 722 279 q 803 496 803 415 q 763 645 803 578 q 655 753 722 713 q 506 793 588 793 q 356 753 424 793 q 249 645 289 713 q 208 496 208 578 q 249 347 208 414 q 356 239 289 279 q 506 199 424 199 m 208 -43 l 803 -43 l 803 235 q 672 136 749 172 q 506 100 594 100 q 340 136 417 100 q 208 235 263 172 l 208 -43 z "},"⍠":{"ha":1011,"x_min":110,"x_max":901,"o":"m 110 -142 l 110 1133 l 901 1133 l 901 -142 l 110 -142 m 208 -43 l 803 -43 l 803 1035 l 208 1035 l 208 -43 m 506 624 q 445 649 471 624 q 419 710 419 674 q 445 771 419 746 q 506 796 471 796 q 566 771 540 796 q 592 710 592 746 q 566 649 592 674 q 506 624 540 624 m 506 196 q 445 222 471 196 q 419 282 419 247 q 445 342 419 317 q 506 368 471 368 q 566 342 540 368 q 592 282 592 317 q 566 222 592 247 q 506 196 540 196 z "},"⍔":{"ha":1011,"x_min":110,"x_max":901,"o":"m 110 -142 l 110 1133 l 901 1133 l 901 -142 l 110 -142 m 208 1035 l 208 869 l 803 869 l 803 1035 l 208 1035 m 506 218 l 693 776 l 318 776 l 506 218 m 208 -43 l 803 -43 l 803 810 l 554 89 l 457 89 l 208 810 l 208 -43 z "},"⍍":{"ha":1011,"x_min":110,"x_max":901,"o":"m 110 -142 l 110 1133 l 901 1133 l 901 -142 l 110 -142 m 803 1035 l 208 1035 l 208 149 l 457 869 l 554 869 l 803 149 l 803 1035 m 318 182 l 693 182 l 506 740 l 318 182 m 208 -43 l 803 -43 l 803 89 l 208 89 l 208 -43 z "},"⌺":{"ha":1011,"x_min":110,"x_max":901,"o":"m 110 -142 l 110 1133 l 901 1133 l 901 -142 l 110 -142 m 208 -43 l 803 -43 l 803 1035 l 208 1035 l 208 -43 m 506 203 l 213 496 l 506 789 l 799 496 l 506 203 m 506 311 l 690 496 l 506 681 l 321 496 l 506 311 z "},"⌹":{"ha":1011,"x_min":110,"x_max":901,"o":"m 110 -142 l 110 1133 l 901 1133 l 901 -142 l 110 -142 m 208 -43 l 803 -43 l 803 1035 l 208 1035 l 208 -43 m 506 632 q 449 655 469 632 q 428 717 428 678 q 506 800 428 800 q 582 717 582 800 q 562 655 582 678 q 506 632 542 632 m 232 447 l 232 546 l 779 546 l 779 447 l 232 447 m 506 193 q 449 216 469 193 q 428 278 428 239 q 506 361 428 361 q 582 278 582 361 q 562 216 582 239 q 506 193 542 193 z "},"⍗":{"ha":1011,"x_min":110,"x_max":901,"o":"m 110 -142 l 110 1133 l 901 1133 l 901 -142 l 110 -142 m 208 -43 l 803 -43 l 803 1035 l 556 1035 l 556 172 l 729 200 l 507 -42 l 285 200 l 457 172 l 457 1035 l 208 1035 l 208 -43 z "},"⍌":{"ha":1011,"x_min":110,"x_max":901,"o":"m 110 -142 l 110 1133 l 901 1133 l 901 -142 l 110 -142 m 208 1035 l 208 750 l 506 288 l 803 750 l 803 1035 l 208 1035 m 208 -43 l 803 -43 l 803 581 l 539 165 l 472 165 l 208 581 l 208 -43 z "},"⌸":{"ha":1011,"x_min":110,"x_max":901,"o":"m 110 -142 l 110 1133 l 901 1133 l 901 -142 l 110 -142 m 208 -43 l 803 -43 l 803 1035 l 208 1035 l 208 -43 m 232 586 l 232 685 l 779 685 l 779 586 l 232 586 m 232 307 l 232 406 l 779 406 l 779 307 l 232 307 z "},"⍄":{"ha":1011,"x_min":110,"x_max":901,"o":"m 110 -142 l 110 1133 l 901 1133 l 901 -142 l 110 -142 m 208 1035 l 208 767 l 803 529 l 803 1035 l 208 1035 m 639 496 l 208 660 l 208 332 l 639 496 m 208 -43 l 803 -43 l 803 463 l 208 225 l 208 -43 z "},"⌻":{"ha":1011,"x_min":110,"x_max":901,"o":"m 110 -142 l 110 1133 l 901 1133 l 901 -142 l 110 -142 m 208 -43 l 803 -43 l 803 1035 l 208 1035 l 208 -43 m 506 263 q 388 294 442 263 q 303 379 335 326 q 272 496 272 432 q 303 613 272 560 q 388 697 335 665 q 506 729 442 729 q 622 698 569 729 q 707 614 675 667 q 739 496 739 561 q 707 379 739 432 q 622 294 675 326 q 506 263 569 263 m 506 350 q 608 392 565 350 q 651 496 651 435 q 608 599 651 557 q 506 642 565 642 q 403 599 446 642 q 360 496 360 557 q 403 393 360 436 q 506 350 446 350 z "},"⍇":{"ha":1011,"x_min":110,"x_max":901,"o":"m 110 -142 l 110 1133 l 901 1133 l 901 -142 l 110 -142 m 208 -43 l 803 -43 l 803 447 l 424 447 l 451 274 l 210 496 l 451 718 l 424 546 l 803 546 l 803 1035 l 208 1035 l 208 -43 z "},"⍃":{"ha":1011,"x_min":110,"x_max":901,"o":"m 110 -142 l 110 1133 l 901 1133 l 901 -142 l 110 -142 m 208 1035 l 208 529 l 803 767 l 803 1035 l 208 1035 m 372 496 l 803 332 l 803 660 l 372 496 m 208 -43 l 803 -43 l 803 225 l 208 463 l 208 -43 z "},"⍯":{"ha":1011,"x_min":110,"x_max":901,"o":"m 110 -142 l 110 1133 l 901 1133 l 901 -142 l 110 -142 m 208 -43 l 803 -43 l 803 1035 l 208 1035 l 208 -43 m 247 308 l 247 407 l 414 407 l 482 585 l 247 585 l 247 683 l 519 683 l 586 857 l 671 821 l 618 683 l 764 683 l 764 585 l 581 585 l 513 407 l 764 407 l 764 308 l 474 308 l 411 144 l 326 181 l 375 308 l 247 308 z "},"⍰":{"ha":1011,"x_min":110,"x_max":901,"o":"m 110 -142 l 110 1133 l 901 1133 l 901 -142 l 110 -142 m 208 -43 l 803 -43 l 803 1035 l 208 1035 l 208 -43 m 428 343 l 428 369 q 446 458 428 422 q 493 521 464 494 q 554 572 522 547 q 604 674 604 610 q 574 738 604 714 q 488 761 543 761 q 404 749 440 761 q 336 722 368 738 l 306 796 q 494 843 392 843 q 642 797 586 843 q 697 676 697 751 q 678 590 697 628 q 604 508 658 553 q 547 456 568 478 q 517 413 525 435 q 508 360 508 392 l 508 343 l 428 343 m 476 138 q 433 152 450 138 q 417 201 417 167 q 476 267 417 267 q 533 201 533 267 q 517 152 533 167 q 476 138 500 138 z "},"⍈":{"ha":1011,"x_min":110,"x_max":901,"o":"m 110 -142 l 110 1133 l 901 1133 l 901 -142 l 110 -142 m 208 -43 l 803 -43 l 803 1035 l 208 1035 l 208 546 l 588 546 l 560 718 l 801 496 l 560 274 l 588 447 l 208 447 l 208 -43 z "},"⍁":{"ha":1011,"x_min":110,"x_max":901,"o":"m 110 -142 l 110 1133 l 901 1133 l 901 -142 l 110 -142 m 208 1035 l 208 78 l 757 1035 l 208 1035 m 803 -43 l 803 914 l 254 -43 l 803 -43 z "},"⍐":{"ha":1011,"x_min":110,"x_max":901,"o":"m 110 -142 l 110 1133 l 901 1133 l 901 -142 l 110 -142 m 208 -43 l 457 -43 l 457 819 l 285 792 l 507 1033 l 729 792 l 556 819 l 556 -43 l 803 -43 l 803 1035 l 208 1035 l 208 -43 z "},"⍓":{"ha":1011,"x_min":110,"x_max":901,"o":"m 110 -142 l 110 1133 l 901 1133 l 901 -142 l 110 -142 m 539 826 l 803 411 l 803 1035 l 208 1035 l 208 411 l 472 826 l 539 826 m 208 -43 l 803 -43 l 803 242 l 506 704 l 208 242 l 208 -43 z "},"⍞":{"ha":1011,"x_min":110,"x_max":901,"o":"m 110 -142 l 110 1133 l 901 1133 l 901 -142 l 110 -142 m 208 -43 l 803 -43 l 803 1035 l 208 1035 l 208 -43 m 468 621 l 440 979 l 572 979 l 544 621 l 468 621 z "},"⍘":{"ha":611,"x_min":71,"x_max":540,"o":"m 268 633 l 240 992 l 372 992 l 344 633 l 268 633 m 71 -207 l 71 -108 l 540 -108 l 540 -207 l 71 -207 z "},"⍴":{"ha":840,"x_min":110,"x_max":764,"o":"m 110 -333 l 110 382 q 196 660 110 561 q 442 758 282 758 q 613 712 540 758 q 724 578 685 665 q 764 372 764 492 q 678 87 764 188 q 435 -14 592 -14 q 233 49 317 -14 l 226 49 q 232 -20 231 26 q 233 -136 233 -67 l 233 -333 l 110 -333 m 433 88 q 590 158 540 88 q 639 372 639 229 q 591 585 639 515 q 436 656 543 656 q 283 587 332 656 q 233 381 233 518 l 233 156 q 433 88 311 88 z "},"⍆":{"ha":978,"x_min":71,"x_max":907,"o":"m 406 0 l 406 450 l 71 450 l 71 543 l 406 543 l 406 992 l 504 992 l 504 543 l 714 543 l 690 690 l 907 496 l 690 301 l 714 450 l 504 450 l 504 0 l 406 0 z "},"⍮":{"ha":611,"x_min":71,"x_max":540,"o":"m 339 524 q 276 547 301 524 q 250 619 250 569 q 275 692 250 668 q 339 715 300 715 q 401 692 375 715 q 426 619 426 668 q 401 547 426 569 q 339 524 375 524 m 213 0 q 242 139 228 65 q 268 294 257 213 l 399 294 l 408 279 q 387 206 399 243 q 356 121 375 169 q 304 0 338 72 l 213 0 m 71 -207 l 71 -108 l 540 -108 l 540 -207 l 71 -207 z "},"⌿":{"ha":749,"x_min":71,"x_max":678,"o":"m 101 -153 l 304 372 l 71 372 l 71 465 l 340 465 l 543 990 l 647 990 l 444 465 l 678 465 l 678 372 l 408 372 l 206 -153 l 101 -153 z "},"⌷":{"ha":700,"x_min":110,"x_max":590,"o":"m 110 -142 l 110 1133 l 590 1133 l 590 -142 l 110 -142 m 208 -43 l 492 -43 l 492 1035 l 208 1035 l 208 -43 z "},"⍣":{"ha":728,"x_min":71,"x_max":657,"o":"m 218 814 q 169 833 189 814 q 149 883 149 853 q 169 933 149 913 q 218 953 189 953 q 268 933 249 953 q 288 883 288 913 q 268 833 288 853 q 218 814 249 814 m 510 814 q 460 833 479 814 q 440 883 440 853 q 460 933 440 913 q 510 953 479 953 q 559 933 539 953 q 579 883 579 913 q 559 833 579 853 q 510 814 539 814 m 239 210 l 149 275 l 281 450 l 71 515 l 106 621 l 313 549 l 308 768 l 419 768 l 415 549 l 622 621 l 657 515 l 447 450 l 579 275 l 489 210 l 364 390 l 239 210 z "},"⍭":{"ha":1050,"x_min":71,"x_max":979,"o":"m 71 408 l 71 513 q 179 575 121 556 q 317 594 238 594 q 404 588 365 594 q 476 572 443 582 l 476 1072 l 575 1072 l 575 538 q 654 515 613 524 q 749 507 696 507 q 867 526 815 507 q 979 594 918 546 l 979 492 q 872 428 929 449 q 733 408 814 408 q 647 415 685 408 q 575 431 608 421 l 575 -114 l 476 -114 l 476 467 q 397 489 438 481 q 301 497 356 497 q 184 478 235 497 q 71 408 133 460 z "},"⍨":{"ha":1050,"x_min":71,"x_max":979,"o":"m 379 814 q 330 833 350 814 q 310 883 310 853 q 330 933 310 913 q 379 953 350 953 q 429 933 410 953 q 449 883 449 913 q 429 833 449 853 q 379 814 410 814 m 671 814 q 621 833 640 814 q 601 883 601 853 q 621 933 601 913 q 671 953 640 953 q 720 933 700 953 q 740 883 740 913 q 720 833 740 853 q 671 814 700 814 m 71 408 l 71 513 q 179 575 121 556 q 317 594 238 594 q 442 582 390 594 q 540 550 493 569 q 635 519 586 532 q 749 507 683 507 q 867 526 815 507 q 979 594 918 546 l 979 492 q 872 428 929 449 q 733 408 814 408 q 609 422 661 408 q 510 454 557 436 q 415 485 463 474 q 301 497 367 497 q 184 478 235 497 q 71 408 133 460 z "},"⍲":{"ha":1050,"x_min":71,"x_max":979,"o":"m 71 172 l 278 497 q 174 474 221 494 q 71 408 128 454 l 71 513 q 179 575 121 556 q 317 594 238 594 q 340 594 329 594 l 492 832 l 558 832 l 765 507 q 874 529 825 510 q 979 594 922 549 l 979 492 q 907 444 944 463 q 824 417 869 425 l 979 172 l 869 172 l 718 408 q 603 423 651 410 q 510 454 554 436 q 449 476 479 467 q 385 490 419 485 l 181 172 l 71 172 m 540 550 q 593 531 567 540 q 649 517 619 522 l 525 710 l 443 581 q 493 567 469 575 q 540 550 517 560 z "},"⍝":{"ha":967,"x_min":71,"x_max":896,"o":"m 71 0 l 71 603 q 176 903 71 800 q 483 1007 282 1007 q 790 903 685 1007 q 896 603 896 800 l 896 0 l 797 0 l 797 603 q 483 907 797 907 q 169 603 169 907 l 169 0 l 71 0 m 483 369 q 371 400 422 369 q 290 481 319 431 q 260 593 260 532 q 290 706 260 656 q 371 787 319 757 q 483 817 422 817 q 595 787 544 817 q 676 706 646 757 q 707 593 707 656 q 677 481 707 532 q 597 400 647 431 q 483 369 546 369 m 483 454 q 582 496 542 454 q 622 593 622 538 q 582 690 622 649 q 483 732 542 732 q 385 691 426 732 q 344 593 344 650 q 385 495 344 536 q 483 454 425 454 z "},"⍡":{"ha":1050,"x_min":71,"x_max":979,"o":"m 379 1025 q 330 1045 350 1025 q 310 1094 310 1065 q 330 1144 310 1125 q 379 1164 350 1164 q 428 1144 408 1164 q 449 1094 449 1125 q 428 1044 449 1064 q 379 1025 407 1025 m 669 1025 q 620 1045 640 1025 q 600 1094 600 1065 q 620 1144 600 1125 q 669 1164 640 1164 q 719 1144 699 1164 q 739 1094 739 1125 q 718 1044 739 1064 q 669 1025 697 1025 m 476 36 l 476 846 l 71 846 l 71 944 l 979 944 l 979 846 l 575 846 l 575 36 l 476 36 z "},"⍕":{"ha":1050,"x_min":71,"x_max":979,"o":"m 476 36 l 476 268 q 382 312 424 279 q 316 392 340 344 q 292 496 292 440 q 316 599 292 551 q 382 680 340 647 q 476 724 424 713 l 476 846 l 71 846 l 71 944 l 979 944 l 979 846 l 575 846 l 575 724 q 706 644 653 707 q 758 496 758 581 q 734 393 758 440 q 669 313 710 346 q 575 268 628 279 l 575 36 l 476 36 m 379 496 q 406 411 379 449 q 476 358 433 374 l 476 633 q 406 581 433 618 q 379 496 379 543 m 671 496 q 644 581 671 543 q 575 633 617 618 l 575 358 q 644 411 617 374 q 671 496 671 449 z "},"⍑":{"ha":1050,"x_min":71,"x_max":979,"o":"m 71 1053 l 71 1151 l 978 1151 l 978 1053 l 71 1053 m 476 36 l 476 846 l 71 846 l 71 944 l 979 944 l 979 846 l 575 846 l 575 36 l 476 36 z "},"⍏":{"ha":971,"x_min":71,"x_max":900,"o":"m 436 0 l 436 474 l 71 474 l 71 572 l 436 572 l 436 799 l 289 775 l 486 992 l 683 775 l 535 799 l 535 572 l 900 572 l 900 474 l 535 474 l 535 0 l 436 0 z "},"⍬":{"ha":1050,"x_min":71,"x_max":979,"o":"m 71 408 l 71 513 q 200 581 129 563 q 295 900 213 792 q 525 1008 378 1008 q 765 885 682 1008 q 853 521 849 761 q 979 594 911 540 l 979 492 q 851 422 919 442 q 756 97 839 208 q 525 -14 674 -14 q 283 113 367 -14 q 197 483 200 239 q 71 408 139 464 m 540 550 q 628 522 583 533 q 731 507 672 510 q 680 810 729 715 q 525 904 631 904 q 381 830 431 904 q 322 594 332 756 q 443 581 393 594 q 540 550 493 568 m 525 90 q 670 166 621 90 q 728 408 719 242 q 606 422 657 408 q 510 454 556 436 q 422 484 467 472 q 319 497 378 496 q 369 187 319 283 q 525 90 418 90 z "},"Α":{"ha":888,"x_min":0,"x_max":886,"o":"m 0 0 l 388 996 l 500 996 l 886 0 l 757 0 l 638 307 l 244 307 l 126 0 l 0 0 m 286 418 l 600 418 l 489 718 q 475 758 485 729 q 456 819 465 788 q 442 867 447 850 q 419 783 432 824 q 399 718 407 742 l 286 418 z "},"⃧":{"ha":0,"x_min":-492,"x_max":524,"o":"m 436 -121 l 436 807 l -492 807 l -492 894 l 524 894 l 524 -121 l 436 -121 z "},"B":{"ha":903,"x_min":135,"x_max":828,"o":"m 135 0 l 135 992 l 418 992 q 699 937 604 992 q 794 746 794 882 q 746 601 794 658 q 606 526 697 543 l 606 519 q 719 483 668 510 q 799 408 769 457 q 828 282 828 360 q 735 74 828 147 q 483 0 643 0 l 135 0 m 260 569 l 443 569 q 618 610 571 569 q 665 732 665 651 q 608 849 665 814 q 424 885 550 885 l 260 885 l 260 569 m 260 106 l 460 106 q 643 157 592 106 q 694 292 694 208 q 641 417 694 369 q 450 465 588 465 l 260 465 l 260 106 z "},"Β":{"ha":903,"x_min":135,"x_max":828,"o":"m 135 0 l 135 992 l 418 992 q 699 937 604 992 q 794 746 794 882 q 746 601 794 658 q 606 526 697 543 l 606 519 q 719 483 668 510 q 799 408 769 457 q 828 282 828 360 q 735 74 828 147 q 483 0 643 0 l 135 0 m 260 569 l 443 569 q 618 610 571 569 q 665 732 665 651 q 608 849 665 814 q 424 885 550 885 l 260 885 l 260 569 m 260 106 l 460 106 q 643 157 592 106 q 694 292 694 208 q 641 417 694 369 q 450 465 588 465 l 260 465 l 260 106 z "},"ℬ":{"ha":1164,"x_min":3,"x_max":1160,"o":"m 213 -12 q 100 8 142 -12 q 38 61 58 29 q 10 128 17 93 q 3 190 3 163 q 37 284 3 246 q 118 322 71 322 q 187 295 168 322 q 206 247 206 268 q 183 183 206 203 q 131 160 161 164 q 77 153 100 156 q 54 119 54 151 q 58 97 54 114 q 76 60 63 79 q 120 26 90 40 q 200 13 150 13 q 349 69 286 13 q 464 222 411 125 q 572 440 517 319 q 665 620 615 533 q 774 783 714 707 q 823 841 793 807 q 879 899 853 875 q 919 931 897 915 q 965 961 940 947 q 899 976 936 972 q 813 981 861 981 q 649 964 728 981 q 508 923 571 947 q 406 875 444 899 q 348 838 385 863 q 272 776 311 813 q 205 690 232 739 q 178 583 178 642 q 203 499 178 526 q 265 471 228 471 q 366 503 314 471 q 463 592 418 535 q 535 724 507 649 q 564 888 564 800 l 585 888 q 597 831 592 865 q 603 758 603 797 q 581 651 603 707 q 520 547 560 596 q 426 469 481 499 q 304 439 371 439 q 192 475 232 439 q 151 583 151 511 q 178 694 151 643 q 246 785 206 744 q 326 853 286 825 q 392 896 365 881 q 578 974 469 942 q 813 1006 686 1006 q 915 998 868 1006 q 1000 978 961 990 q 1072 1003 1036 994 l 1083 979 q 1062 972 1072 976 q 1040 964 1051 968 q 1133 891 1106 936 q 1160 789 1160 846 q 1122 674 1160 724 q 1027 588 1083 624 q 915 526 971 551 q 955 508 929 522 q 1007 469 981 494 q 1051 405 1033 444 q 1069 308 1069 365 q 1039 198 1069 254 q 958 94 1008 142 q 851 17 908 46 q 740 -12 794 -12 q 678 5 700 -12 q 647 47 656 22 q 639 94 639 72 q 647 139 639 108 q 685 212 654 169 q 785 300 717 254 l 801 276 q 743 231 774 260 q 691 166 713 201 q 669 93 669 131 q 688 37 669 54 q 725 19 707 19 q 799 59 761 19 q 875 172 838 99 q 916 278 900 222 q 932 411 932 335 q 924 474 932 453 q 904 503 915 494 q 886 514 893 511 q 845 500 868 504 q 814 496 822 496 q 789 499 803 496 q 775 515 775 503 q 798 541 775 536 q 832 546 821 546 q 870 543 854 546 q 893 538 886 540 q 955 590 921 550 q 1013 690 989 631 q 1038 819 1038 750 q 1031 884 1038 849 q 997 944 1025 919 q 914 882 949 918 q 853 801 879 846 q 807 705 826 757 q 771 594 788 653 q 744 505 758 551 q 714 410 731 458 q 697 359 707 388 q 675 307 686 331 q 570 146 633 218 q 419 31 507 74 q 213 -12 331 -12 z "},"C":{"ha":878,"x_min":85,"x_max":835,"o":"m 540 -14 q 288 49 389 -14 q 135 226 186 111 q 85 497 85 342 q 140 762 85 647 q 301 941 194 876 q 561 1006 408 1006 q 835 947 718 1006 l 785 842 q 683 879 739 863 q 560 896 626 896 q 308 789 400 896 q 217 496 217 682 q 302 203 217 311 q 558 96 388 96 q 682 107 624 96 q 796 135 740 118 l 796 26 q 681 -4 740 6 q 540 -14 622 -14 z "},"ℭ":{"ha":881,"x_min":64,"x_max":858,"o":"m 547 -33 q 291 37 400 -33 q 123 237 182 107 q 64 544 64 367 q 99 790 64 686 q 199 951 135 894 q 353 1008 264 1008 q 443 981 401 1008 q 499 910 485 954 q 528 944 515 928 q 551 969 542 960 q 581 1000 571 992 q 599 1008 592 1008 q 628 999 606 1008 q 672 980 650 990 q 700 967 694 969 q 742 947 724 956 q 778 935 760 939 q 832 958 804 928 l 854 942 q 815 891 832 915 q 783 850 797 867 q 763 828 769 833 q 747 824 756 824 q 711 838 738 824 q 644 872 685 853 q 594 895 613 889 q 565 901 576 901 q 492 849 538 901 q 431 751 431 779 q 437 722 431 740 q 465 664 443 704 q 533 540 488 624 q 595 426 575 467 q 622 366 615 386 q 628 332 628 346 q 623 306 628 319 q 601 269 618 292 q 551 207 585 246 q 458 107 517 168 q 572 93 511 93 q 713 111 646 93 q 840 167 781 129 l 858 143 l 653 -26 q 606 -31 633 -29 q 547 -33 579 -33 m 164 606 q 229 292 164 415 q 415 121 294 168 q 483 206 461 172 q 510 259 504 239 q 517 292 517 279 q 513 324 517 308 q 498 366 510 340 q 463 434 486 392 q 400 544 440 476 q 354 627 369 599 q 335 668 339 656 q 331 688 331 681 q 367 751 331 706 q 413 807 382 769 q 476 883 443 844 q 430 952 463 928 q 356 976 397 976 q 219 881 274 976 q 164 606 164 786 z "},"\r":{"ha":361,"x_min":0,"x_max":0,"o":""},"ℂ":{"ha":878,"x_min":69,"x_max":808,"o":"m 531 -14 q 274 49 376 -14 q 120 226 171 111 q 69 497 69 342 q 124 763 69 647 q 286 942 179 878 q 546 1007 393 1007 q 677 999 613 1007 q 808 964 742 990 l 772 886 q 543 933 661 933 q 431 920 483 933 q 336 883 379 907 l 336 103 q 543 60 422 60 q 661 69 600 60 q 781 93 722 78 l 781 11 q 656 -8 715 -3 q 531 -14 596 -14 m 263 156 l 263 828 q 147 493 147 713 q 176 298 147 383 q 263 156 204 213 z "},"Χ":{"ha":814,"x_min":6,"x_max":808,"o":"m 6 0 l 335 517 l 26 992 l 165 992 l 408 603 l 653 992 l 785 992 l 478 519 l 808 0 l 667 0 l 404 431 l 138 0 l 6 0 z "},"D":{"ha":1014,"x_min":135,"x_max":929,"o":"m 135 0 l 135 992 l 440 992 q 700 936 590 992 q 869 773 810 881 q 929 506 929 665 q 792 127 929 254 q 411 0 656 0 l 135 0 m 260 107 l 394 107 q 797 501 797 107 q 699 792 797 700 q 422 885 601 885 l 260 885 l 260 107 z "},"Δ":{"ha":807,"x_min":28,"x_max":779,"o":"m 28 0 l 28 76 l 340 992 l 465 992 l 779 75 l 779 0 l 28 0 m 161 110 l 642 110 l 468 626 q 430 747 447 689 q 401 856 413 806 q 373 748 389 806 q 338 632 357 690 l 161 110 z "},"⬿":{"ha":1186,"x_min":71,"x_max":1115,"o":"m 999 581 l 1115 463 l 1061 411 l 942 532 q 880 583 903 571 q 828 596 857 596 q 779 585 804 596 q 703 532 754 574 q 621 474 656 493 q 551 448 586 454 q 464 442 515 442 l 263 442 q 313 372 288 414 q 364 274 338 329 l 303 274 q 71 464 192 403 l 71 494 q 303 685 192 556 l 364 685 q 313 587 338 629 q 263 517 288 544 l 469 517 q 539 522 511 517 q 591 540 567 526 q 647 581 615 554 q 738 648 700 625 q 828 671 776 671 q 913 650 874 671 q 999 581 951 629 z "},"ⅅ":{"ha":1014,"x_min":50,"x_max":993,"o":"m 50 0 l 260 992 l 611 992 q 892 894 790 992 q 993 596 993 797 q 926 289 993 424 q 728 77 858 154 q 411 0 599 0 l 50 0 m 139 74 l 232 74 l 411 918 l 318 918 l 139 74 m 306 74 l 422 74 q 647 121 549 74 l 804 869 q 632 918 736 918 l 485 918 l 306 74 m 731 174 q 867 356 821 244 q 913 597 913 467 q 861 808 913 731 l 731 174 z "},"E":{"ha":772,"x_min":135,"x_max":689,"o":"m 135 0 l 135 992 l 689 992 l 689 882 l 260 882 l 260 572 l 664 572 l 664 464 l 260 464 l 260 110 l 689 110 l 689 0 l 135 0 z "},"Ε":{"ha":772,"x_min":135,"x_max":689,"o":"m 135 0 l 135 992 l 689 992 l 689 882 l 260 882 l 260 572 l 664 572 l 664 464 l 260 464 l 260 110 l 689 110 l 689 0 l 135 0 z "},"ℰ":{"ha":838,"x_min":39,"x_max":851,"o":"m 314 -10 q 167 26 229 -10 q 72 126 106 63 q 39 272 39 190 q 87 429 39 357 q 213 550 135 501 q 385 611 292 599 q 347 667 367 631 q 326 761 326 703 q 367 881 326 824 q 478 974 408 938 q 636 1011 549 1011 q 744 990 703 1011 q 810 938 786 969 q 842 871 833 906 q 851 808 851 836 q 835 736 851 776 q 785 667 818 696 q 700 639 751 639 q 628 667 653 639 q 603 736 603 696 q 627 818 603 776 q 714 885 651 860 l 721 871 q 667 815 694 849 q 640 738 640 782 q 658 681 640 699 q 703 664 676 664 q 784 702 750 664 q 818 811 818 740 q 795 908 818 872 q 740 958 772 943 q 681 974 708 974 q 563 936 615 974 q 481 831 511 899 q 451 671 451 764 q 460 615 451 639 q 534 608 497 614 q 595 589 571 601 q 619 556 619 576 q 600 526 619 533 q 557 519 581 519 q 491 533 531 519 q 422 576 451 547 q 328 524 374 563 q 248 432 283 486 q 192 315 213 378 q 171 188 171 253 q 193 77 171 114 q 251 28 215 40 q 325 15 286 15 q 434 37 381 15 q 531 96 488 58 q 601 183 575 133 q 628 289 628 233 q 603 367 628 340 q 540 394 578 394 q 458 357 500 394 q 392 258 417 319 q 376 122 368 196 l 351 117 q 344 167 346 142 q 343 217 343 192 q 369 318 343 272 q 438 392 394 364 q 538 419 482 419 q 613 395 589 419 q 645 340 638 371 q 653 289 653 308 q 625 172 653 226 q 549 76 597 117 q 440 13 501 36 q 314 -10 379 -10 m 550 542 q 594 556 594 542 q 569 576 594 567 q 528 586 543 585 q 511 588 521 588 q 493 589 501 589 q 483 589 488 589 q 474 588 478 589 q 518 551 496 561 q 550 542 540 542 z "},"Η":{"ha":1029,"x_min":135,"x_max":893,"o":"m 135 0 l 135 992 l 260 992 l 260 572 l 768 572 l 768 992 l 893 992 l 893 0 l 768 0 l 768 463 l 260 463 l 260 0 l 135 0 z "},"F":{"ha":721,"x_min":135,"x_max":689,"o":"m 135 0 l 135 992 l 689 992 l 689 882 l 260 882 l 260 531 l 663 531 l 663 421 l 260 421 l 260 0 l 135 0 z "},"ℱ":{"ha":1144,"x_min":-6,"x_max":1178,"o":"m 292 429 q 219 447 246 429 q 180 491 192 465 q 165 542 168 517 q 161 581 161 567 q 181 683 161 626 q 240 798 200 740 q 344 904 281 856 q 497 983 408 953 q 701 1013 586 1013 q 815 1004 771 1013 q 892 982 858 996 q 958 959 926 968 q 1036 950 989 950 q 1112 963 1088 950 q 1154 994 1136 975 l 1178 981 q 1140 923 1165 953 q 1080 872 1114 893 q 1004 851 1046 851 q 917 864 957 851 q 833 897 878 876 q 728 942 783 921 q 611 964 674 964 q 460 932 536 964 q 323 845 385 900 q 224 720 261 790 q 186 575 186 650 q 203 497 186 522 q 243 463 221 471 q 276 456 265 456 q 344 480 310 456 q 410 542 379 504 q 465 626 440 581 q 503 713 489 671 q 517 785 517 754 q 515 815 517 799 q 507 864 514 832 l 526 874 q 560 792 550 833 q 569 704 569 750 q 552 617 569 664 q 499 526 535 569 q 413 456 464 483 q 292 429 361 429 m 213 -14 q 108 5 149 -14 q 44 52 67 24 q 10 110 21 81 q -3 165 0 140 q -6 199 -6 189 q 28 292 -6 254 q 110 331 63 331 q 178 303 160 331 q 197 256 197 276 q 175 192 197 211 q 122 168 153 172 q 89 166 107 167 q 58 158 71 165 q 46 128 46 150 q 51 103 46 122 q 72 63 56 85 q 119 26 88 42 q 204 11 150 11 q 314 49 265 11 q 405 151 363 86 q 489 300 447 217 l 533 389 q 399 345 456 379 q 311 271 342 311 l 290 288 q 342 340 307 313 q 429 388 378 367 q 544 414 481 410 q 622 565 583 494 q 717 701 660 635 q 864 832 774 767 l 882 818 q 809 713 836 774 q 769 604 782 653 q 748 517 760 561 q 722 429 736 474 l 763 435 q 781 441 769 436 q 800 451 793 446 q 811 480 803 458 q 835 526 819 501 q 869 569 850 551 q 913 588 889 588 q 938 576 932 588 q 944 551 944 564 q 846 432 944 510 q 850 399 853 422 q 840 349 847 376 q 826 299 833 322 q 814 267 818 276 l 706 236 q 738 296 721 263 q 769 360 756 329 q 785 411 782 392 q 714 407 758 411 l 711 399 q 643 247 685 321 q 541 115 601 174 q 399 21 481 56 q 213 -14 318 -14 z "},"G":{"ha":1011,"x_min":85,"x_max":908,"o":"m 560 -14 q 300 48 406 -14 q 140 224 194 110 q 85 496 85 339 q 146 765 85 651 q 322 942 207 879 q 599 1006 436 1006 q 756 990 682 1006 q 894 947 831 975 l 847 839 q 728 879 794 863 q 592 896 663 896 q 315 789 414 896 q 215 496 215 682 q 253 287 215 378 q 374 145 292 196 q 589 94 456 94 q 700 101 654 94 q 783 118 746 108 l 783 413 l 565 413 l 565 524 l 908 524 l 908 38 q 746 -1 828 11 q 560 -14 664 -14 z "},"Γ":{"ha":728,"x_min":135,"x_max":694,"o":"m 135 0 l 135 992 l 694 992 l 694 881 l 260 881 l 260 0 l 135 0 z "},"ℾ":{"ha":767,"x_min":135,"x_max":746,"o":"m 135 0 l 135 992 l 746 992 l 746 918 l 375 918 l 375 0 l 135 0 m 208 74 l 301 74 l 301 918 l 208 918 l 208 74 z "},"H":{"ha":1029,"x_min":135,"x_max":893,"o":"m 135 0 l 135 992 l 260 992 l 260 572 l 768 572 l 768 992 l 893 992 l 893 0 l 768 0 l 768 463 l 260 463 l 260 0 l 135 0 z "},"ℌ":{"ha":949,"x_min":-12,"x_max":872,"o":"m 199 176 q 131 192 168 176 q 60 233 94 207 q 31 244 44 244 q 7 238 19 244 l -12 260 l 93 358 q 131 294 104 324 q 191 246 158 264 q 251 228 224 228 q 305 253 283 228 q 326 307 326 278 q 312 383 326 331 q 257 521 297 435 q 187 676 208 628 q 165 738 165 725 q 201 804 165 756 q 243 859 218 826 q 292 922 268 892 q 331 969 317 953 q 365 1000 350 992 q 386 1008 379 1008 q 413 1000 393 1008 q 460 978 433 992 q 500 960 488 964 q 528 956 513 956 q 590 996 556 956 l 611 976 q 566 920 588 946 q 524 874 544 894 q 499 854 508 858 q 479 850 490 850 q 450 859 469 850 q 403 882 431 868 q 339 907 353 907 q 320 901 331 907 q 294 872 310 894 q 265 804 265 832 q 278 749 265 783 q 332 632 292 715 q 410 683 369 661 q 482 719 450 706 q 551 759 525 739 q 579 793 576 779 l 613 793 q 639 765 614 779 l 665 751 q 819 607 767 699 q 872 401 872 515 q 837 220 872 308 q 737 70 801 132 q 585 -8 672 8 l 492 -26 q 414 -44 433 -37 q 385 -57 394 -50 l 353 -50 q 342 1 360 -18 q 289 21 325 21 q 212 -12 239 21 q 185 -93 185 -46 q 219 -182 185 -149 q 304 -215 253 -215 q 375 -195 343 -215 q 422 -135 407 -175 l 454 -146 q 397 -220 436 -193 q 304 -247 357 -247 q 193 -204 236 -247 q 150 -93 150 -161 q 186 8 150 -31 q 235 47 207 31 q 300 72 263 63 q 356 93 326 79 q 394 122 385 107 l 426 110 q 428 75 417 89 q 472 40 440 61 l 515 13 q 644 65 589 22 q 731 178 700 108 q 763 338 763 249 q 726 514 763 440 q 632 627 689 588 q 517 667 575 667 q 438 651 482 667 q 347 601 393 636 q 414 439 401 490 q 426 371 426 388 q 403 300 426 335 q 343 238 379 265 q 268 193 307 210 q 199 176 229 176 z "},"ℍ":{"ha":1079,"x_min":135,"x_max":944,"o":"m 135 0 l 135 992 l 375 992 l 375 556 l 704 556 l 704 992 l 944 992 l 944 0 l 704 0 l 704 482 l 375 482 l 375 0 l 135 0 m 208 74 l 301 74 l 301 918 l 208 918 l 208 74 m 778 74 l 871 74 l 871 918 l 778 918 l 778 74 z "},"ℋ":{"ha":1469,"x_min":-6,"x_max":1503,"o":"m 213 -14 q 88 13 133 -14 q 24 78 43 40 q -1 148 4 115 q -6 193 -6 181 q 28 287 -6 249 q 110 325 63 325 q 178 298 160 325 q 197 250 197 271 q 175 186 197 206 q 122 163 153 167 q 89 160 107 161 q 58 153 71 160 q 46 124 46 146 q 51 100 46 118 q 72 62 56 82 q 122 26 88 42 q 215 11 156 11 q 319 40 276 11 q 398 120 363 68 q 468 242 433 172 q 499 307 483 274 q 532 376 515 340 q 389 299 444 344 q 299 215 333 254 l 279 235 q 340 293 301 261 q 428 356 379 325 q 533 404 478 386 l 549 410 q 648 601 593 503 q 790 807 703 700 q 716 743 757 776 q 634 681 675 710 q 558 633 593 651 q 500 615 522 615 q 453 634 471 615 q 436 681 436 653 q 453 730 436 700 q 490 789 471 760 q 522 838 508 815 q 536 865 536 860 q 533 872 536 868 q 518 875 531 875 q 444 843 490 875 q 346 756 399 811 q 242 631 293 701 l 222 646 q 292 732 253 688 q 373 815 331 776 q 456 876 415 853 q 529 900 496 900 q 578 886 564 900 q 594 856 592 872 q 597 833 597 840 q 594 804 597 819 q 583 772 592 789 q 556 730 575 756 q 528 693 536 704 q 508 658 508 667 q 522 644 508 644 q 570 665 536 644 q 651 721 604 686 q 749 797 697 756 q 851 883 801 839 q 943 965 901 926 l 957 947 q 881 853 913 900 q 826 750 850 806 q 781 626 803 694 q 731 467 758 557 q 811 490 771 478 q 890 517 851 503 q 1006 702 942 611 q 1139 867 1069 793 q 1276 986 1208 942 q 1404 1031 1344 1031 q 1477 1006 1451 1031 q 1503 936 1503 982 q 1467 835 1503 899 q 1355 703 1431 771 q 1157 583 1279 635 q 1098 560 1131 572 q 1029 536 1065 549 q 959 369 990 451 q 906 217 928 286 q 872 101 883 149 q 860 39 860 54 q 867 22 860 31 q 893 13 874 13 q 944 31 914 13 q 1007 78 974 50 q 1071 136 1040 106 q 1124 192 1101 167 q 1157 228 1147 217 l 1185 228 q 1151 186 1175 214 q 1094 124 1126 158 q 1025 59 1061 90 q 953 8 989 28 q 889 -12 918 -12 q 803 28 843 -12 q 763 161 763 69 q 792 303 763 218 q 872 485 822 389 l 721 438 l 714 414 q 651 269 693 343 q 548 130 610 194 q 402 26 486 65 q 213 -14 318 -14 m 1044 567 q 1084 581 1064 574 q 1143 606 1104 589 q 1246 671 1192 626 q 1348 769 1300 715 q 1426 873 1396 822 q 1457 958 1457 924 q 1441 993 1457 982 q 1404 1004 1425 1004 q 1358 991 1390 1004 q 1276 931 1325 978 q 1163 786 1226 885 q 1101 681 1131 736 q 1044 567 1072 625 z "},"I":{"ha":471,"x_min":56,"x_max":414,"o":"m 56 0 l 56 72 l 172 99 l 172 892 l 56 919 l 56 992 l 414 992 l 414 919 l 297 892 l 297 99 l 414 72 l 414 0 l 56 0 z "},"ℑ":{"ha":810,"x_min":25,"x_max":747,"o":"m 235 567 q 93 636 143 582 q 43 765 43 690 q 88 889 43 839 q 206 968 132 939 q 266 989 242 983 q 303 994 290 994 q 328 1015 328 994 l 358 1015 l 358 1014 q 399 979 358 1003 l 515 913 q 585 876 557 889 q 628 863 613 863 q 672 877 647 863 q 696 906 696 892 q 678 939 696 921 q 688 959 678 950 q 713 968 699 968 q 747 925 747 968 q 720 878 747 903 q 656 831 693 853 q 583 795 618 808 q 533 782 549 782 q 444 821 500 782 q 338 885 390 860 q 233 910 285 910 q 154 890 190 910 q 97 838 118 871 q 75 765 75 806 q 119 656 75 703 q 243 599 164 610 l 235 567 m 288 -29 l 260 -17 q 226 92 260 54 q 150 129 192 129 q 96 111 122 129 q 54 50 69 93 l 25 58 q 83 149 42 124 q 175 175 124 175 q 204 173 190 175 q 231 168 218 171 q 254 164 243 165 q 275 163 265 163 q 313 175 294 163 l 336 163 q 335 150 335 158 q 372 71 335 104 q 476 38 408 38 q 589 74 547 38 q 631 164 631 111 q 625 201 631 181 q 602 256 619 221 q 551 353 585 292 q 482 498 501 446 q 463 574 463 550 q 483 639 463 604 q 535 705 503 674 q 605 756 568 736 q 674 775 642 775 q 732 729 732 775 q 699 689 732 689 q 678 699 688 689 q 681 711 681 707 q 651 735 681 735 q 596 712 625 735 q 567 642 567 689 q 573 602 567 625 q 597 539 579 579 q 650 431 615 499 q 703 324 686 363 q 727 265 721 286 q 733 229 733 244 q 710 156 733 197 q 653 79 686 114 q 590 28 619 44 q 492 -1 547 4 q 346 -7 436 -7 q 288 -29 310 -7 z "},"Ι":{"ha":471,"x_min":56,"x_max":414,"o":"m 56 0 l 56 72 l 172 99 l 172 892 l 56 919 l 56 992 l 414 992 l 414 919 l 297 892 l 297 99 l 414 72 l 414 0 l 56 0 z "},"ℐ":{"ha":1032,"x_min":-6,"x_max":1074,"o":"m 213 -14 q 95 9 139 -14 q 30 67 51 32 q 1 136 8 101 q -6 193 -6 171 q 28 287 -6 249 q 110 325 63 325 q 178 298 160 325 q 197 250 197 271 q 173 184 197 206 q 117 163 149 163 q 62 153 78 163 q 46 124 46 144 q 58 81 46 107 q 104 33 69 54 q 208 11 139 11 q 315 48 268 11 q 405 149 363 85 q 489 296 447 214 q 386 347 426 310 q 326 430 346 383 q 307 519 307 476 q 348 672 307 597 q 482 817 389 747 q 729 943 575 886 q 908 992 819 976 q 1074 1007 997 1007 l 1074 986 q 956 937 1001 981 q 875 815 911 893 q 796 604 836 729 q 767 519 782 563 q 735 426 753 475 q 716 378 728 406 q 693 331 704 351 q 784 374 740 344 q 856 453 828 404 q 885 576 885 503 q 878 644 885 621 l 903 646 q 910 581 910 622 q 901 510 910 550 q 870 431 893 471 q 802 356 847 390 q 683 303 757 322 q 576 151 643 224 q 419 32 510 78 q 213 -14 328 -14 m 500 318 q 528 375 513 346 q 558 433 543 404 q 649 602 601 515 q 757 767 697 689 q 853 880 801 826 q 965 976 906 933 q 890 960 931 971 q 818 939 850 950 q 656 856 733 910 q 517 734 578 803 q 420 592 456 665 q 385 453 385 519 q 403 376 385 403 q 449 338 422 350 q 500 318 476 325 z "},"J":{"ha":379,"x_min":-108,"x_max":253,"o":"m -6 -264 q -64 -259 -39 -264 q -108 -246 -89 -254 l -108 -140 q -61 -150 -86 -146 q -8 -154 -36 -154 q 58 -140 26 -154 q 108 -92 89 -126 q 128 6 128 -57 l 128 992 l 253 992 l 253 15 q 182 -196 253 -128 q -6 -264 111 -264 z "},"K":{"ha":860,"x_min":135,"x_max":860,"o":"m 135 0 l 135 992 l 260 992 l 260 503 q 345 597 303 550 q 431 692 388 644 l 699 992 l 844 992 l 451 560 l 860 0 l 713 0 l 361 474 l 260 385 l 260 0 l 135 0 z "},"Κ":{"ha":860,"x_min":135,"x_max":860,"o":"m 135 0 l 135 992 l 260 992 l 260 503 q 345 597 303 550 q 431 692 388 644 l 699 992 l 844 992 l 451 560 l 860 0 l 713 0 l 361 474 l 260 385 l 260 0 l 135 0 z "},"L":{"ha":728,"x_min":135,"x_max":693,"o":"m 135 0 l 135 992 l 260 992 l 260 111 l 693 111 l 693 0 l 135 0 z "},"Λ":{"ha":844,"x_min":0,"x_max":843,"o":"m 0 0 l 356 992 l 486 992 l 843 0 l 711 0 l 492 625 q 451 748 469 690 q 419 856 432 806 q 391 747 410 806 q 350 626 372 689 l 132 0 l 0 0 z "},"ℒ":{"ha":1157,"x_min":15,"x_max":1119,"o":"m 196 -14 q 108 -1 149 -14 q 41 38 67 13 q 15 100 15 64 q 58 171 15 149 q 151 193 100 193 q 263 171 204 193 q 378 119 321 149 q 426 206 401 156 q 472 315 450 256 q 483 342 478 329 q 494 369 489 356 q 346 403 403 374 q 259 473 289 432 q 219 557 229 514 q 208 635 208 600 q 244 775 208 708 q 344 894 281 842 q 488 976 407 946 q 658 1006 569 1006 q 783 993 721 1006 l 778 968 q 658 981 715 981 q 509 949 578 981 q 390 863 440 917 q 311 740 339 808 q 283 599 283 672 q 306 499 283 538 q 363 438 328 460 q 435 406 397 415 q 506 394 474 397 q 585 565 543 478 q 675 730 628 651 q 775 871 722 808 q 886 969 828 933 q 1007 1006 944 1006 q 1093 976 1067 1006 q 1119 904 1119 947 q 1087 783 1119 854 q 995 636 1054 711 q 858 497 936 561 q 686 399 779 433 l 660 328 q 576 173 625 235 q 471 71 526 111 q 558 31 517 47 q 633 14 600 14 q 729 40 679 14 q 825 114 779 67 q 904 224 871 161 l 928 214 q 858 112 903 165 q 753 22 813 58 q 625 -14 694 -14 q 524 3 572 -14 q 432 46 476 21 q 312 -1 372 13 q 196 -14 251 -14 m 699 433 q 874 546 790 472 q 960 644 917 583 q 1035 774 1004 704 q 1065 911 1065 844 q 1048 962 1065 943 q 1004 981 1031 981 q 910 931 953 981 q 855 848 881 897 q 806 739 829 799 q 752 592 779 671 q 699 433 725 513 m 189 11 q 290 31 250 11 q 358 90 329 51 q 258 144 308 121 q 150 168 207 168 q 76 153 113 168 q 40 100 40 138 q 65 50 40 69 q 126 21 90 31 q 189 11 161 11 z "},"M":{"ha":1260,"x_min":135,"x_max":1125,"o":"m 135 0 l 135 992 l 319 992 l 625 179 l 631 179 l 942 992 l 1125 992 l 1125 0 l 1001 0 l 1001 610 q 1005 753 1001 682 q 1011 868 1008 824 l 1006 868 l 675 0 l 572 0 l 246 869 l 240 869 q 247 753 244 826 q 250 601 250 681 l 250 0 l 135 0 z "},"ℳ":{"ha":1604,"x_min":-6,"x_max":1603,"o":"m 181 -14 q 45 38 96 -14 q -6 169 -6 89 q 30 269 -6 228 q 121 310 65 310 q 183 285 167 310 q 199 233 199 261 q 170 174 199 201 q 78 138 142 146 q 54 128 60 136 q 49 108 49 121 q 61 76 49 100 q 103 32 74 53 q 182 11 132 11 q 321 52 257 11 q 444 160 385 93 q 509 238 476 196 q 572 326 542 281 q 633 413 601 369 q 696 500 664 457 q 869 722 783 619 q 1028 899 956 825 q 1150 1007 1101 974 l 1172 993 q 1150 942 1167 979 q 1111 856 1133 906 q 1065 751 1089 806 q 1020 648 1042 697 q 983 564 999 599 q 963 518 968 529 q 940 465 957 504 q 903 372 924 426 q 860 259 882 318 q 823 145 839 200 q 800 50 807 90 q 896 175 842 92 q 925 221 910 196 q 954 268 940 246 q 1041 409 996 338 q 1125 536 1086 481 q 1228 674 1186 619 q 1318 779 1271 729 q 1467 920 1396 863 q 1579 1003 1538 978 l 1603 981 q 1546 890 1579 947 q 1475 763 1513 832 q 1403 628 1438 694 q 1343 508 1368 561 q 1303 422 1326 474 q 1254 313 1279 371 q 1208 199 1229 254 q 1172 99 1186 143 q 1158 31 1158 54 q 1169 11 1158 11 q 1233 43 1194 11 q 1316 124 1272 75 q 1396 219 1360 172 l 1413 206 q 1333 106 1378 157 q 1244 21 1289 56 q 1164 -14 1200 -14 q 1089 24 1117 -14 q 1061 163 1061 63 q 1078 255 1061 203 q 1122 363 1096 307 q 1179 470 1149 418 q 1237 564 1210 522 q 1281 628 1264 606 q 1334 697 1301 657 q 1403 779 1367 736 q 1472 861 1439 822 q 1530 928 1506 900 q 1563 964 1554 956 q 1481 901 1540 949 q 1338 764 1422 853 q 1156 536 1254 675 q 1071 410 1110 471 q 999 293 1032 349 q 946 207 971 247 q 899 133 921 167 q 822 28 857 71 q 758 -14 786 -14 q 714 13 728 -14 q 696 75 700 39 q 692 138 692 111 q 708 233 692 168 q 774 403 725 297 q 921 658 824 508 q 979 746 946 697 q 1046 841 1013 794 q 1104 922 1079 888 q 1138 968 1129 957 q 1034 872 1092 935 q 915 735 976 810 q 797 588 853 661 q 700 461 742 515 q 647 388 674 426 q 593 310 619 349 q 528 218 561 263 q 458 133 494 174 q 331 27 400 68 q 181 -14 263 -14 z "},"Μ":{"ha":1260,"x_min":135,"x_max":1125,"o":"m 135 0 l 135 992 l 319 992 l 625 179 l 631 179 l 942 992 l 1125 992 l 1125 0 l 1001 0 l 1001 610 q 1005 753 1001 682 q 1011 868 1008 824 l 1006 868 l 675 0 l 572 0 l 246 869 l 240 869 q 247 753 244 826 q 250 601 250 681 l 250 0 l 135 0 z "},"N":{"ha":1056,"x_min":135,"x_max":921,"o":"m 135 0 l 135 992 l 279 992 l 808 171 l 814 171 q 810 238 813 193 q 806 335 808 282 q 804 432 804 388 l 804 992 l 921 992 l 921 0 l 775 0 l 244 824 l 239 824 q 247 703 243 775 q 250 554 250 631 l 250 0 l 135 0 z "},"\u0000":{"ha":0,"x_min":0,"x_max":0,"o":""},"ℕ":{"ha":1081,"x_min":135,"x_max":946,"o":"m 135 0 l 135 992 l 240 992 l 872 311 l 872 992 l 946 992 l 946 0 l 839 0 l 208 682 l 208 0 l 135 0 m 872 74 l 872 210 l 208 918 l 208 781 l 872 74 z "},"Ν":{"ha":1056,"x_min":135,"x_max":921,"o":"m 135 0 l 135 992 l 279 992 l 808 171 l 814 171 q 810 238 813 193 q 806 335 808 282 q 804 432 804 388 l 804 992 l 921 992 l 921 0 l 775 0 l 244 824 l 239 824 q 247 703 243 775 q 250 554 250 631 l 250 0 l 135 0 z "},"O":{"ha":1085,"x_min":85,"x_max":1000,"o":"m 543 -14 q 287 50 389 -14 q 135 229 185 114 q 85 499 85 344 q 135 765 85 651 q 287 943 185 879 q 544 1007 389 1007 q 794 944 693 1007 q 948 766 896 881 q 1000 497 1000 651 q 948 228 1000 343 q 794 50 896 114 q 543 -14 693 -14 m 543 94 q 790 202 713 94 q 868 497 868 310 q 790 791 868 685 q 544 897 713 897 q 297 791 376 897 q 217 497 217 685 q 296 202 217 310 q 543 94 375 94 z "},"Ω":{"ha":1086,"x_min":53,"x_max":1035,"o":"m 53 0 l 53 110 l 300 110 q 150 292 211 178 q 89 561 89 406 q 142 797 89 697 q 297 952 194 897 q 543 1007 399 1007 q 792 953 690 1007 q 946 799 893 899 q 999 563 999 699 q 938 292 999 407 q 789 110 878 178 l 1035 110 l 1035 0 l 635 0 l 635 100 q 816 306 764 192 q 868 557 868 419 q 790 806 868 715 q 543 897 711 897 q 299 806 376 897 q 221 557 221 715 q 272 306 221 418 q 453 100 324 193 l 453 0 l 53 0 z "},"Ο":{"ha":1085,"x_min":85,"x_max":1000,"o":"m 543 -14 q 287 50 389 -14 q 135 229 185 114 q 85 499 85 344 q 135 765 85 651 q 287 943 185 879 q 544 1007 389 1007 q 794 944 693 1007 q 948 766 896 881 q 1000 497 1000 651 q 948 228 1000 343 q 794 50 896 114 q 543 -14 693 -14 m 543 94 q 790 202 713 94 q 868 497 868 310 q 790 791 868 685 q 544 897 713 897 q 297 791 376 897 q 217 497 217 685 q 296 202 217 310 q 543 94 375 94 z "},"P":{"ha":840,"x_min":135,"x_max":769,"o":"m 135 0 l 135 992 l 397 992 q 681 915 592 992 q 769 700 769 839 q 733 547 769 618 q 609 431 696 475 q 374 386 522 386 l 260 386 l 260 0 l 135 0 m 260 493 l 360 493 q 571 539 501 493 q 640 694 640 585 q 579 838 640 790 q 386 885 518 885 l 260 885 l 260 493 z "},"ℙ":{"ha":910,"x_min":135,"x_max":839,"o":"m 135 0 l 135 992 l 494 992 q 756 916 672 992 q 839 714 839 840 q 793 562 839 628 q 673 458 747 496 q 513 421 599 421 l 375 421 l 375 0 l 135 0 m 208 74 l 301 74 l 301 918 l 208 918 l 208 74 m 375 494 l 568 494 l 568 918 l 375 918 l 375 494 m 643 518 q 726 586 693 542 q 758 714 758 631 q 643 901 758 863 l 643 518 z "},"Φ":{"ha":1117,"x_min":71,"x_max":1044,"o":"m 496 -14 l 496 139 q 287 176 369 142 q 157 265 204 210 q 90 385 110 319 q 71 514 71 450 q 110 695 71 613 q 243 829 150 778 q 496 883 336 881 l 496 1006 l 619 1006 l 619 883 q 874 831 781 881 q 1006 698 967 781 q 1044 514 1044 615 q 1024 381 1044 447 q 956 262 1004 315 q 825 175 907 208 q 619 139 743 142 l 619 -14 l 496 -14 m 496 242 l 496 778 q 319 742 385 775 q 225 651 253 708 q 197 515 197 593 q 269 320 197 393 q 496 242 340 247 m 619 242 q 849 322 781 247 q 918 515 918 396 q 890 652 918 594 q 797 742 863 710 q 619 778 732 775 l 619 242 z "},"Π":{"ha":1015,"x_min":135,"x_max":879,"o":"m 135 0 l 135 992 l 879 992 l 879 0 l 756 0 l 756 882 l 260 882 l 260 0 l 135 0 z "},"ℿ":{"ha":1157,"x_min":135,"x_max":944,"o":"m 135 0 l 135 992 l 944 992 l 944 0 l 704 0 l 704 918 l 375 918 l 375 0 l 135 0 m 208 74 l 301 74 l 301 918 l 208 918 l 208 74 m 778 74 l 871 74 l 871 918 l 778 918 l 778 74 z "},"Ψ":{"ha":1117,"x_min":74,"x_max":1043,"o":"m 496 0 l 496 301 q 288 332 371 301 q 159 414 206 363 q 93 531 113 465 q 74 664 74 596 l 74 992 l 199 992 l 199 667 q 269 473 199 538 q 496 408 340 408 l 496 992 l 618 992 l 618 408 q 846 473 776 408 q 915 664 915 538 l 915 992 l 1043 992 l 1043 665 q 1023 529 1043 594 q 956 413 1003 464 q 826 331 908 361 q 618 301 743 301 l 618 0 l 496 0 z "},"Q":{"ha":1085,"x_min":85,"x_max":1000,"o":"m 769 -236 l 578 -12 q 558 -14 564 -14 q 543 -14 551 -14 q 287 50 389 -14 q 135 229 185 114 q 85 499 85 344 q 135 765 85 651 q 287 943 185 879 q 544 1007 389 1007 q 794 944 693 1007 q 948 766 896 881 q 1000 497 1000 651 q 927 188 1000 315 q 711 11 854 60 l 949 -236 l 769 -236 m 543 94 q 790 202 713 94 q 868 497 868 310 q 790 791 868 685 q 544 897 713 897 q 297 791 376 897 q 217 497 217 685 q 296 202 217 310 q 543 94 375 94 z "},"ℚ":{"ha":1085,"x_min":85,"x_max":1067,"o":"m 667 -236 l 518 -14 q 194 133 303 -3 q 85 499 85 268 q 137 765 85 651 q 291 943 189 879 q 544 1007 393 1007 q 794 943 693 1007 q 948 765 896 879 q 1000 497 1000 650 q 937 202 1000 315 q 772 36 874 89 l 1067 -236 l 667 -236 m 543 53 q 726 90 650 53 l 726 901 q 642 931 688 921 q 544 940 597 940 q 358 900 436 940 l 358 92 q 543 53 435 53 m 800 140 q 894 288 863 197 q 926 497 926 379 q 895 706 926 615 q 800 853 864 796 l 800 140 m 285 142 l 285 850 q 190 703 221 793 q 158 497 158 613 q 190 290 158 381 q 285 142 221 199 m 715 -169 l 888 -169 l 699 6 q 653 -5 681 0 q 604 -11 625 -10 l 715 -169 z "},"R":{"ha":864,"x_min":135,"x_max":843,"o":"m 135 0 l 135 992 l 408 992 q 681 922 593 992 q 769 710 769 851 q 740 578 769 631 q 666 494 711 525 q 571 444 621 463 l 843 0 l 697 0 l 457 410 l 260 410 l 260 0 l 135 0 m 260 515 l 408 515 q 585 563 529 515 q 640 704 640 611 q 582 842 640 801 q 401 883 524 883 l 260 883 l 260 515 z "},"ℜ":{"ha":1000,"x_min":18,"x_max":1019,"o":"m 257 -32 q 178 -21 218 -32 q 142 -12 160 -15 q 110 -10 125 -10 q 63 -24 85 -10 l 39 -8 q 46 31 46 10 q 18 128 46 96 l 38 154 q 89 143 58 143 q 160 167 136 143 l 183 150 q 168 88 168 115 q 194 24 168 47 q 265 0 221 0 q 344 27 313 0 q 399 101 376 54 q 443 247 429 163 q 457 438 457 332 q 396 784 457 669 q 229 899 335 899 q 106 847 156 899 q 57 710 57 796 q 104 562 57 625 q 235 478 151 499 l 221 449 q 74 548 125 476 q 22 719 22 619 q 53 864 22 799 q 143 968 85 929 q 279 1007 201 1007 q 419 961 364 1007 q 507 838 475 915 q 592 901 553 875 q 664 944 632 926 q 730 983 703 967 q 783 1018 757 1000 l 800 999 q 783 968 783 986 q 808 923 783 953 q 865 860 832 893 q 915 814 899 826 q 938 801 931 801 q 968 811 950 801 l 983 788 q 870 706 928 750 q 754 614 813 661 q 789 582 774 606 q 817 506 804 558 q 846 360 831 454 q 874 208 863 258 q 894 136 885 158 q 916 106 906 114 q 939 97 926 97 q 963 104 947 97 q 999 133 978 111 l 1019 115 q 980 64 1003 88 q 936 21 957 40 q 890 -31 897 -14 l 863 -31 q 858 -18 861 -22 q 840 0 854 -14 q 801 54 817 25 q 774 136 786 83 q 746 281 761 189 q 716 451 728 394 q 694 528 704 508 q 667 549 683 549 q 638 538 657 549 q 560 486 618 526 q 519 211 558 328 q 413 31 481 94 q 257 -32 344 -32 m 661 897 q 610 877 644 897 q 518 807 575 857 q 549 676 539 747 q 560 526 558 604 q 703 619 633 571 q 835 721 774 668 l 746 824 q 692 883 708 868 q 661 897 675 897 z "},"ℝ":{"ha":992,"x_min":135,"x_max":971,"o":"m 135 0 l 135 992 l 494 992 q 756 923 672 992 q 839 728 839 854 q 792 572 839 636 q 661 475 746 507 l 971 0 l 700 0 l 435 440 l 375 440 l 375 0 l 135 0 m 208 74 l 301 74 l 301 918 l 208 918 l 208 74 m 375 514 l 568 514 l 568 918 l 375 918 l 375 514 m 643 538 q 726 603 693 561 q 758 728 758 644 q 729 844 758 804 q 643 901 700 883 l 643 538 m 738 72 l 840 72 l 597 454 q 513 443 556 446 l 738 72 z "},"Ρ":{"ha":840,"x_min":135,"x_max":769,"o":"m 135 0 l 135 992 l 397 992 q 681 915 592 992 q 769 700 769 839 q 733 547 769 618 q 609 431 696 475 q 374 386 522 386 l 260 386 l 260 0 l 135 0 m 260 493 l 360 493 q 571 539 501 493 q 640 694 640 585 q 579 838 640 790 q 386 885 518 885 l 260 885 l 260 493 z "},"ℛ":{"ha":1211,"x_min":-6,"x_max":1197,"o":"m 867 -14 q 798 3 824 -14 q 762 44 772 19 q 751 92 751 68 q 765 166 751 118 q 800 257 779 214 q 844 359 825 310 q 864 436 864 408 q 860 467 864 456 q 853 483 856 478 q 837 480 846 482 q 813 478 828 478 q 783 485 801 478 q 765 511 765 493 q 781 535 765 531 q 806 539 796 539 q 838 531 821 539 q 869 513 854 524 q 918 533 886 517 q 983 582 950 550 q 1040 660 1017 614 q 1064 769 1064 707 q 997 944 1064 900 q 878 839 921 903 q 804 693 835 775 q 784 637 794 667 q 765 576 774 607 q 742 494 754 536 q 714 410 729 453 q 697 359 707 388 q 675 307 686 331 q 570 146 633 218 q 419 31 507 74 q 213 -12 331 -12 q 88 14 133 -12 q 24 77 43 40 q -1 146 4 114 q -6 190 -6 178 q 28 284 -6 246 q 110 322 63 322 q 178 295 160 322 q 197 247 197 268 q 175 183 197 203 q 122 160 153 164 q 89 158 107 158 q 58 149 71 157 q 46 119 46 142 q 51 97 46 114 q 72 60 57 79 q 119 26 88 40 q 200 13 150 13 q 301 34 257 13 q 379 96 344 56 q 462 225 422 147 q 546 401 501 303 q 649 599 588 494 q 797 811 711 703 q 860 882 822 843 q 965 961 897 921 q 899 976 936 972 q 813 981 861 981 q 649 964 728 981 q 508 923 571 947 q 406 875 444 899 q 344 832 385 863 q 258 756 303 801 q 183 657 214 711 q 151 544 151 603 q 176 460 151 488 q 239 432 201 432 q 340 464 288 432 q 436 553 392 496 q 509 685 481 610 q 538 849 538 761 l 558 849 q 571 792 565 826 q 576 719 576 758 q 555 613 576 668 q 494 508 533 557 q 399 430 454 460 q 278 400 344 400 q 165 436 206 400 q 125 544 125 472 q 156 660 125 604 q 233 765 188 717 q 322 847 278 813 q 392 896 365 881 q 578 974 469 942 q 813 1006 686 1006 q 915 998 868 1006 q 1000 978 961 990 q 1072 1003 1036 994 l 1083 979 q 1062 972 1072 976 q 1040 964 1051 968 q 1158 875 1119 929 q 1197 764 1197 821 q 1120 603 1197 675 q 892 494 1043 531 q 950 419 939 460 q 961 349 961 378 q 951 281 961 318 q 926 206 940 243 q 902 137 913 169 q 892 81 892 104 q 899 48 892 63 q 921 33 907 33 q 958 51 935 33 q 1004 93 982 68 q 1052 150 1029 121 q 1091 203 1075 179 q 1110 232 1107 226 l 1132 219 q 1116 194 1131 217 q 1079 142 1101 172 q 1031 82 1057 111 q 954 15 996 43 q 867 -14 913 -14 z "},"S":{"ha":763,"x_min":71,"x_max":697,"o":"m 343 -14 q 189 -1 260 -14 q 71 33 118 11 l 71 153 q 195 113 121 131 q 349 94 269 94 q 516 138 460 94 q 572 254 572 181 q 551 336 572 303 q 480 398 531 369 q 339 458 429 426 q 148 571 213 504 q 83 753 83 638 q 124 888 83 832 q 235 975 164 944 q 400 1006 307 1006 q 550 990 482 1006 q 674 950 618 975 l 635 843 q 523 881 583 865 q 397 896 463 896 q 257 856 304 896 q 210 751 210 817 q 231 668 210 701 q 299 608 251 635 q 426 551 346 582 q 574 483 514 519 q 666 394 635 446 q 697 265 697 343 q 601 60 697 133 q 343 -14 506 -14 z "},"Σ":{"ha":792,"x_min":50,"x_max":758,"o":"m 50 0 l 50 103 l 375 518 l 58 888 l 58 992 l 718 992 l 718 881 l 364 881 q 311 881 344 881 q 247 881 278 881 q 201 882 217 882 l 514 519 l 188 108 q 292 110 240 110 q 400 110 344 110 l 758 110 l 758 0 l 50 0 z "},"T":{"ha":772,"x_min":14,"x_max":757,"o":"m 324 0 l 324 882 l 14 882 l 14 992 l 757 992 l 757 882 l 449 882 l 449 0 l 324 0 z "},"Τ":{"ha":772,"x_min":14,"x_max":757,"o":"m 324 0 l 324 882 l 14 882 l 14 992 l 757 992 l 757 882 l 449 882 l 449 0 l 324 0 z "},"Θ":{"ha":1085,"x_min":85,"x_max":1000,"o":"m 543 -14 q 287 50 389 -14 q 135 229 185 114 q 85 499 85 344 q 135 765 85 651 q 287 943 185 879 q 544 1007 389 1007 q 794 944 693 1007 q 948 766 896 881 q 1000 497 1000 651 q 948 228 1000 343 q 794 50 896 114 q 543 -14 693 -14 m 543 94 q 790 202 713 94 q 868 497 868 310 q 790 791 868 685 q 544 897 713 897 q 297 791 376 897 q 217 497 217 685 q 296 202 217 310 q 543 94 375 94 m 332 450 l 332 558 l 751 558 l 751 450 l 332 450 z "},"ϴ":{"ha":1086,"x_min":85,"x_max":1000,"o":"m 543 -14 q 287 50 389 -14 q 135 229 185 114 q 85 499 85 344 q 135 765 85 651 q 287 943 185 879 q 544 1007 389 1007 q 794 944 693 1007 q 948 766 896 881 q 1000 497 1000 651 q 948 228 1000 343 q 794 50 896 114 q 543 -14 693 -14 m 218 560 l 865 560 q 776 808 853 718 q 544 897 699 897 q 310 808 389 897 q 218 560 231 718 m 543 94 q 780 189 701 94 q 867 451 858 283 l 218 451 q 305 189 226 283 q 543 94 383 94 z "},"U":{"ha":1015,"x_min":125,"x_max":889,"o":"m 503 -14 q 222 87 318 -14 q 125 353 125 188 l 125 992 l 250 992 l 250 349 q 315 161 250 228 q 510 94 379 94 q 705 166 644 94 q 765 350 765 238 l 765 992 l 889 992 l 889 350 q 847 165 889 247 q 720 34 806 82 q 503 -14 635 -14 z "},"Υ":{"ha":786,"x_min":0,"x_max":786,"o":"m 331 0 l 331 379 l 0 992 l 136 992 l 393 504 l 651 992 l 786 992 l 456 385 l 456 0 l 331 0 z "},"V":{"ha":833,"x_min":0,"x_max":833,"o":"m 354 0 l 0 992 l 131 992 l 354 356 q 392 241 376 294 q 417 139 407 188 q 442 242 426 188 q 479 358 457 296 l 701 992 l 833 992 l 479 0 l 354 0 z "},"W":{"ha":1292,"x_min":17,"x_max":1274,"o":"m 279 0 l 17 992 l 147 992 l 301 386 q 330 263 318 322 q 349 150 342 203 q 369 268 356 204 q 401 393 383 332 l 576 992 l 706 992 l 888 389 q 921 262 907 325 q 942 150 935 199 q 961 262 949 201 q 990 388 974 322 l 1143 992 l 1274 992 l 1010 0 l 883 0 l 690 650 q 668 731 679 690 q 650 802 657 771 q 640 846 643 833 q 626 769 639 828 q 593 646 613 710 l 406 0 l 279 0 z "},"X":{"ha":814,"x_min":6,"x_max":808,"o":"m 6 0 l 335 517 l 26 992 l 165 992 l 408 603 l 653 992 l 785 992 l 478 519 l 808 0 l 667 0 l 404 431 l 138 0 l 6 0 z "},"Ξ":{"ha":771,"x_min":49,"x_max":721,"o":"m 76 882 l 76 992 l 693 992 l 693 882 l 76 882 m 132 464 l 132 572 l 638 572 l 638 464 l 132 464 m 49 0 l 49 110 l 721 110 l 721 0 l 49 0 z "},"Y":{"ha":786,"x_min":0,"x_max":786,"o":"m 331 0 l 331 379 l 0 992 l 136 992 l 393 504 l 651 992 l 786 992 l 456 385 l 456 0 l 331 0 z "},"Z":{"ha":794,"x_min":53,"x_max":740,"o":"m 53 0 l 53 94 l 575 881 l 69 881 l 69 992 l 726 992 l 726 897 l 204 111 l 740 111 l 740 0 l 53 0 z "},"ℨ":{"ha":746,"x_min":28,"x_max":669,"o":"m 79 -279 q 42 -235 57 -261 q 28 -178 28 -208 q 69 -94 28 -125 q 176 -40 111 -64 q 213 -24 200 -32 q 225 -6 225 -15 l 257 -6 q 275 -48 257 -21 q 311 -94 293 -75 q 350 -124 329 -112 q 397 -136 371 -136 q 479 -108 439 -136 q 546 -30 519 -79 q 572 81 572 19 q 544 201 572 143 q 467 304 515 258 q 360 376 419 350 q 236 403 300 403 q 153 385 181 403 q 126 342 126 367 q 136 314 126 328 l 106 296 l 67 322 q 113 399 76 367 q 217 449 150 432 q 145 481 174 460 q 100 521 117 501 l 129 547 q 211 493 167 508 q 300 478 256 478 q 410 505 360 478 q 492 584 461 532 q 522 708 522 636 q 491 834 522 782 q 407 914 460 886 q 288 942 354 942 q 133 886 190 942 q 64 749 75 831 l 32 749 q 87 897 39 840 q 205 981 135 954 q 347 1008 275 1008 q 499 975 432 1008 q 606 881 567 942 q 646 738 646 821 q 587 561 646 636 q 428 457 528 486 q 605 351 540 435 q 669 149 669 267 q 599 -54 669 26 q 410 -167 529 -135 l 378 -175 q 315 -193 336 -185 q 294 -214 294 -201 l 261 -214 q 206 -138 236 -169 q 136 -107 175 -107 q 85 -126 107 -107 q 63 -178 63 -146 q 76 -224 63 -204 q 100 -253 89 -244 l 79 -279 z "},"ℤ":{"ha":875,"x_min":53,"x_max":821,"o":"m 53 0 l 53 74 l 561 918 l 97 918 l 97 992 l 821 992 l 821 918 l 322 74 l 807 74 l 807 0 l 53 0 m 136 74 l 238 74 l 740 918 l 642 918 l 136 74 z "},"Ζ":{"ha":794,"x_min":53,"x_max":740,"o":"m 53 0 l 53 94 l 575 881 l 69 881 l 69 992 l 726 992 l 726 897 l 204 111 l 740 111 l 740 0 l 53 0 z "},"a":{"ha":779,"x_min":64,"x_max":667,"o":"m 299 -14 q 131 40 197 -14 q 64 207 64 93 q 151 378 64 318 q 421 444 239 439 l 547 449 l 547 493 q 507 622 547 586 q 393 658 467 658 q 282 641 335 658 q 183 601 229 624 l 146 693 q 261 738 194 719 q 400 757 328 757 q 601 697 536 757 q 667 507 667 638 l 667 0 l 578 0 l 554 106 l 549 106 q 447 15 500 44 q 299 -14 393 -14 m 326 85 q 483 137 421 85 q 546 297 546 189 l 546 364 l 436 360 q 244 315 297 354 q 190 206 190 276 q 228 114 190 143 q 326 85 267 85 z "},"⦟":{"ha":906,"x_min":71,"x_max":835,"o":"m 71 0 l 71 85 l 764 414 l 808 325 l 311 99 l 835 99 l 835 0 l 71 0 z "},"ℵ":{"ha":846,"x_min":51,"x_max":800,"o":"m 726 -36 q 608 126 674 38 q 469 308 542 214 q 319 490 396 401 q 194 239 231 368 q 153 -1 158 110 l 51 -1 q 102 276 56 129 q 258 561 149 424 q 155 672 206 621 q 60 763 104 722 l 135 835 q 326 635 225 750 q 521 400 428 519 q 609 538 575 464 q 660 683 643 611 q 678 810 678 754 l 786 810 q 756 647 781 733 q 686 478 731 561 q 578 326 642 394 q 699 167 643 243 q 800 28 754 92 l 726 -36 z "},"≌":{"ha":794,"x_min":71,"x_max":724,"o":"m 238 626 q 71 701 140 626 l 71 808 q 152 748 110 769 q 231 726 194 726 q 383 767 294 726 q 558 808 474 808 q 724 735 654 808 l 724 626 q 642 688 683 667 q 567 708 600 708 q 413 668 501 708 q 238 626 324 626 m 71 442 l 71 540 l 724 540 l 724 442 l 71 442 m 71 219 l 71 318 l 724 318 l 724 219 l 71 219 z "},"⩯":{"ha":794,"x_min":71,"x_max":724,"o":"m 165 619 l 379 893 l 418 893 l 635 619 l 549 619 l 396 761 l 249 619 l 165 619 m 71 360 l 71 468 q 236 542 140 542 q 411 500 322 542 q 564 460 500 460 q 642 481 600 460 q 724 542 685 503 l 724 435 q 557 360 656 360 q 382 401 472 360 q 228 442 293 442 q 153 421 194 442 q 71 360 111 400 m 71 86 l 71 194 q 236 268 140 268 q 411 226 322 268 q 564 186 500 186 q 642 208 600 186 q 724 268 685 229 l 724 161 q 557 86 656 86 q 382 128 472 86 q 228 168 293 168 q 153 147 194 168 q 71 86 111 126 z "},"≊":{"ha":794,"x_min":71,"x_max":724,"o":"m 71 625 l 71 733 q 236 807 140 807 q 411 765 322 807 q 564 725 500 725 q 642 747 600 725 q 724 807 685 768 l 724 700 q 557 625 656 625 q 382 667 472 625 q 228 707 293 707 q 153 686 194 707 q 71 625 111 665 m 71 403 l 71 511 q 236 585 140 585 q 411 543 322 585 q 564 503 500 503 q 642 524 600 503 q 724 585 685 546 l 724 478 q 557 403 656 403 q 382 444 472 403 q 228 485 293 485 q 153 464 194 485 q 71 403 111 443 m 71 219 l 71 318 l 724 318 l 724 219 l 71 219 z "},"α":{"ha":854,"x_min":76,"x_max":833,"o":"m 382 -14 q 161 83 246 -14 q 76 369 76 179 q 160 658 76 558 q 393 758 243 758 q 530 730 475 758 q 621 644 585 701 l 629 644 q 647 696 636 668 q 674 744 658 724 l 769 744 q 751 664 760 714 q 739 558 743 614 q 735 453 735 503 l 735 164 q 751 103 735 121 q 792 86 768 86 q 815 89 803 86 q 833 93 828 92 l 833 4 q 801 -8 824 -1 q 756 -14 779 -14 q 672 11 704 -14 q 624 100 639 36 l 614 100 q 529 19 582 53 q 382 -14 476 -14 m 403 88 q 566 153 518 88 q 614 363 614 219 l 614 371 q 569 583 614 510 q 401 656 524 656 q 251 582 300 656 q 203 368 203 508 q 251 158 203 229 q 403 88 299 88 z "},"⨿":{"ha":901,"x_min":71,"x_max":831,"o":"m 71 -333 l 71 992 l 196 992 l 196 -222 l 706 -222 l 706 992 l 831 992 l 831 -333 l 71 -333 z "},"&":{"ha":1017,"x_min":74,"x_max":1014,"o":"m 386 -14 q 158 57 243 -14 q 74 258 74 128 q 131 430 74 365 q 288 550 189 494 q 205 657 243 600 q 167 790 167 714 q 235 950 167 893 q 422 1007 304 1007 q 598 951 533 1007 q 663 793 663 894 q 606 644 663 706 q 464 533 550 583 l 732 275 q 791 374 768 318 q 829 496 814 431 l 953 496 q 897 331 931 407 q 811 197 864 254 l 1014 0 l 849 0 l 728 117 q 582 22 663 58 q 386 -14 501 -14 m 389 606 q 506 695 471 653 q 542 793 542 738 q 508 875 542 843 q 418 907 475 907 q 323 876 360 907 q 286 792 286 846 q 313 699 286 742 q 389 606 339 657 m 390 94 q 543 124 479 94 q 650 193 607 153 l 361 474 q 244 383 286 429 q 201 263 201 338 q 253 140 201 186 q 390 94 304 94 z "},"⟑":{"ha":990,"x_min":71,"x_max":919,"o":"m 71 0 l 461 806 l 531 806 l 919 0 l 804 0 l 496 664 l 186 0 l 71 0 m 496 107 q 437 132 461 107 q 413 190 413 157 q 436 248 413 222 q 496 274 460 274 q 555 249 531 274 q 579 190 579 225 q 555 131 579 156 q 496 107 531 107 z "},"∠":{"ha":906,"x_min":71,"x_max":835,"o":"m 71 0 l 71 69 l 640 715 l 710 644 l 231 99 l 835 99 l 835 0 l 71 0 z "},"⦞":{"ha":906,"x_min":71,"x_max":835,"o":"m 71 0 l 71 69 l 640 715 l 710 644 l 231 99 l 835 99 l 835 0 l 71 0 m 644 140 q 543 165 583 140 l 543 239 q 595 213 567 224 q 646 201 624 201 q 692 228 692 201 q 646 264 692 247 q 571 301 599 281 q 543 361 543 322 q 575 422 543 400 q 660 443 607 443 q 764 418 701 443 l 738 360 q 658 383 686 383 q 619 363 619 383 q 664 328 619 339 q 737 294 708 317 q 765 231 765 271 q 733 164 765 188 q 644 140 701 140 z "},"⦤":{"ha":906,"x_min":71,"x_max":835,"o":"m 71 181 l 71 250 l 640 896 l 710 825 l 231 279 l 835 279 l 835 181 l 71 181 m 71 0 l 71 99 l 835 99 l 835 0 l 71 0 z "},"⥀":{"ha":1283,"x_min":188,"x_max":1096,"o":"m 642 25 q 465 60 547 25 q 321 158 383 96 q 223 303 258 221 q 188 479 188 385 q 228 667 188 581 q 338 817 268 754 q 499 911 408 881 q 726 1099 618 971 l 788 1099 q 686 931 735 986 q 847 885 772 922 q 977 785 921 847 q 1065 646 1033 724 q 1096 479 1096 568 q 1060 303 1096 385 q 963 158 1025 221 q 818 60 900 96 q 642 25 736 25 m 642 100 q 790 129 721 100 q 910 210 858 158 q 992 331 963 263 q 1021 479 1021 400 q 976 658 1021 576 q 856 792 932 740 q 685 856 781 844 q 788 688 735 801 l 726 688 q 549 847 640 788 q 402 773 467 826 q 300 644 338 719 q 263 479 263 568 q 292 331 263 400 q 373 210 321 263 q 494 129 425 158 q 642 100 563 100 z "},"⟲":{"ha":1451,"x_min":188,"x_max":1264,"o":"m 810 933 q 986 898 904 933 q 1131 800 1068 863 q 1228 656 1193 738 q 1264 479 1264 574 q 1228 303 1264 385 q 1131 158 1193 221 q 986 60 1068 96 q 810 25 904 25 q 674 44 735 25 q 568 94 614 64 q 492 153 522 124 q 449 204 463 183 l 504 254 q 642 139 561 178 q 810 100 722 100 q 958 129 889 100 q 1078 210 1026 158 q 1160 331 1131 263 q 1189 479 1189 400 q 1160 627 1189 558 q 1078 748 1131 696 q 958 829 1026 800 q 810 858 889 858 q 662 829 731 858 q 541 748 593 800 q 460 627 489 696 q 431 479 431 558 l 431 478 q 501 528 458 503 q 599 579 543 553 l 599 518 q 408 286 469 407 l 378 286 q 188 518 317 407 l 188 579 q 285 528 243 553 q 356 478 328 503 l 356 479 q 391 656 356 574 q 489 800 426 738 q 633 898 551 863 q 810 933 715 933 z "},"⨑":{"ha":814,"x_min":71,"x_max":743,"o":"m 208 -333 q 114 -319 154 -333 l 114 -219 q 197 -236 156 -236 q 317 -78 317 -236 l 317 186 q 139 273 207 201 q 71 449 71 344 l 151 449 q 197 331 151 381 q 317 267 242 282 l 317 982 q 540 1229 317 1229 q 628 1217 597 1229 l 628 1115 q 550 1132 589 1132 q 435 974 435 1132 l 435 267 q 522 304 483 278 q 581 371 561 331 l 499 393 l 658 515 l 743 328 l 661 349 q 573 241 633 283 q 435 186 513 199 l 435 -86 q 208 -333 435 -333 z "},"↺":{"ha":1343,"x_min":188,"x_max":1156,"o":"m 961 801 q 1059 660 1022 743 q 1096 479 1096 578 q 1060 303 1096 385 q 963 158 1025 221 q 818 60 900 96 q 642 25 736 25 q 465 60 547 25 q 321 158 383 96 q 223 303 258 221 q 188 479 188 385 q 244 701 188 606 q 386 854 301 796 l 428 793 q 311 665 360 746 q 263 479 263 583 q 292 331 263 400 q 373 210 321 263 q 494 129 425 158 q 642 100 563 100 q 790 129 721 100 q 910 210 858 158 q 992 331 963 263 q 1021 479 1021 400 q 987 638 1021 569 q 904 753 953 707 q 840 568 893 676 l 801 614 q 799 914 831 781 l 822 933 q 958 893 883 907 q 1117 879 1032 879 l 1156 832 q 1047 808 1096 815 q 961 801 999 801 z "},"⦼":{"ha":1289,"x_min":71,"x_max":1218,"o":"m 644 -89 q 422 -44 526 -89 q 239 79 318 0 q 115 263 160 158 q 71 485 71 367 q 115 708 71 604 q 239 890 160 811 q 422 1014 318 969 q 644 1058 526 1058 q 867 1014 764 1058 q 1050 890 971 969 q 1174 708 1129 811 q 1218 485 1218 604 q 1174 263 1218 367 q 1050 79 1129 158 q 867 -44 971 0 q 644 -89 763 -89 m 644 -18 q 840 21 749 -18 q 1000 129 931 60 q 1108 290 1069 199 q 1147 485 1147 381 q 1108 680 1147 589 q 1000 840 1069 771 q 840 949 931 910 q 644 988 749 988 q 449 949 540 988 q 289 840 358 910 q 181 680 219 771 q 142 485 142 589 q 181 290 142 381 q 289 129 219 199 q 449 21 358 60 q 644 -18 540 -18 m 449 218 l 379 289 l 840 750 l 911 681 l 449 218 m 478 568 q 419 592 443 568 q 394 651 394 617 q 418 711 394 688 q 478 735 442 735 q 538 709 515 735 q 561 653 561 683 q 537 594 561 619 q 478 568 513 568 m 813 233 q 752 260 775 233 q 729 317 729 286 q 753 376 729 353 q 813 400 778 400 q 873 374 850 400 q 896 317 896 349 q 871 258 896 283 q 813 233 846 233 z "},"⃔":{"ha":0,"x_min":-422,"x_max":422,"o":"m -422 844 l -422 1026 l -361 965 q 14 1118 -210 1118 q 245 1065 138 1118 q 422 919 353 1013 l 353 875 q 210 992 300 949 q 14 1036 119 1036 q -161 1003 -78 1036 q -303 906 -244 971 l -240 844 l -422 844 z "},"∳":{"ha":832,"x_min":71,"x_max":761,"o":"m 208 -333 q 114 -319 154 -333 l 114 -219 q 197 -236 156 -236 q 317 -78 317 -236 l 317 186 q 138 275 206 204 q 71 447 71 346 q 139 621 71 550 q 317 710 207 692 l 317 982 q 540 1229 317 1229 q 628 1217 597 1229 l 628 1115 q 550 1132 589 1132 q 435 974 435 1132 l 435 708 q 582 648 519 696 q 667 532 644 600 l 761 460 l 681 438 q 610 272 676 340 q 435 186 544 204 l 435 -86 q 208 -333 435 -333 m 317 267 l 317 628 q 197 563 242 611 q 151 447 151 515 q 197 331 151 379 q 317 267 243 282 m 435 267 q 544 321 500 282 q 597 415 588 360 l 517 394 l 578 531 q 519 594 557 569 q 435 628 481 618 l 435 267 z "},"⃚":{"ha":0,"x_min":-315,"x_max":315,"o":"m 265 47 l 190 122 q 0 57 104 57 q -158 99 -86 57 q -273 214 -231 142 q -315 372 -315 286 q -273 531 -315 460 q -158 645 -231 603 q 0 688 -86 688 q 159 645 88 688 q 273 531 231 603 q 315 372 315 460 q 265 203 315 281 l 265 47 m 0 138 q 133 179 71 138 l 56 257 l 204 257 q 235 372 235 310 q 202 489 235 436 q 117 574 169 542 q 0 607 64 607 q -116 574 -62 607 q -202 489 -169 542 q -235 372 -235 436 q -202 256 -235 310 q -116 170 -169 203 q 0 138 -62 138 z "},"≐":{"ha":794,"x_min":71,"x_max":724,"o":"m 397 781 q 338 805 363 781 q 314 864 314 829 q 338 923 314 899 q 397 947 363 947 q 456 923 432 947 q 481 864 481 899 q 456 805 481 829 q 397 781 432 781 m 71 578 l 71 676 l 724 676 l 724 578 l 71 578 m 71 301 l 71 400 l 724 400 l 724 301 l 71 301 z "},"≈":{"ha":794,"x_min":71,"x_max":724,"o":"m 71 536 l 71 644 q 236 718 140 718 q 411 676 322 718 q 564 636 500 636 q 642 658 600 636 q 724 718 685 679 l 724 611 q 557 536 656 536 q 382 578 472 536 q 228 618 293 618 q 153 597 194 618 q 71 536 111 576 m 71 263 l 71 371 q 236 444 140 444 q 411 403 322 444 q 564 363 500 363 q 642 384 600 363 q 724 444 685 406 l 724 338 q 557 263 656 263 q 382 304 472 263 q 228 344 293 344 q 153 324 194 344 q 71 263 111 303 z "},"≒":{"ha":794,"x_min":71,"x_max":724,"o":"m 154 781 q 95 805 119 781 q 71 864 71 829 q 95 923 71 899 q 154 947 119 947 q 213 923 189 947 q 238 864 238 899 q 213 805 238 829 q 154 781 189 781 m 71 578 l 71 676 l 724 676 l 724 578 l 71 578 m 71 301 l 71 400 l 724 400 l 724 301 l 71 301 m 640 31 q 581 55 606 31 q 557 114 557 79 q 581 173 557 149 q 640 197 606 197 q 699 173 675 197 q 724 114 724 149 q 699 55 724 79 q 640 31 675 31 z "},"⩰":{"ha":794,"x_min":71,"x_max":724,"o":"m 71 713 l 71 821 q 236 894 140 894 q 411 853 322 894 q 564 813 500 813 q 642 834 600 813 q 724 894 685 856 l 724 788 q 557 713 656 713 q 382 754 472 713 q 228 794 293 794 q 153 774 194 794 q 71 713 111 753 m 71 490 l 71 599 q 236 672 140 672 q 411 631 322 672 q 564 590 500 590 q 642 612 600 590 q 724 672 685 633 l 724 565 q 557 490 656 490 q 382 532 472 490 q 228 572 293 572 q 153 551 194 572 q 71 490 111 531 m 71 307 l 71 406 l 724 406 l 724 307 l 71 307 m 71 85 l 71 183 l 724 183 l 724 85 l 71 85 z "},"≆":{"ha":794,"x_min":71,"x_max":724,"o":"m 71 626 l 71 735 q 236 808 140 808 q 411 767 322 808 q 564 726 500 726 q 642 748 600 726 q 724 808 685 769 l 724 701 q 557 626 656 626 q 382 668 472 626 q 228 708 293 708 q 153 688 194 708 q 71 626 111 667 m 71 219 l 71 318 l 317 318 l 376 442 l 71 442 l 71 540 l 422 540 l 453 603 l 536 564 l 525 540 l 724 540 l 724 442 l 478 442 l 418 318 l 724 318 l 724 219 l 371 219 l 292 53 l 208 92 l 269 219 l 71 219 z "},"^":{"ha":794,"x_min":53,"x_max":742,"o":"m 53 371 l 347 999 l 417 999 l 742 371 l 633 371 l 383 869 l 161 371 l 53 371 z "},"~":{"ha":794,"x_min":69,"x_max":724,"o":"m 69 399 l 69 507 q 236 581 136 581 q 316 572 276 581 q 419 536 356 564 q 502 506 469 514 q 564 499 535 499 q 647 522 604 499 q 724 581 690 546 l 724 474 q 557 399 656 399 q 477 408 518 399 q 374 443 436 417 q 291 473 324 465 q 228 481 258 481 q 146 457 189 481 q 69 399 103 433 z "},"⊦":{"ha":646,"x_min":71,"x_max":575,"o":"m 71 36 l 71 944 l 169 944 l 169 540 l 575 540 l 575 442 l 169 442 l 169 36 l 71 36 z "},"*":{"ha":765,"x_min":57,"x_max":706,"o":"m 271 431 l 147 496 l 310 715 l 57 736 l 76 864 l 340 789 l 311 1056 l 447 1056 l 419 789 l 686 864 l 706 736 l 450 715 l 615 496 l 496 431 l 378 674 l 271 431 z "},"∗":{"ha":633,"x_min":71,"x_max":563,"o":"m 267 235 l 274 417 l 121 319 l 71 406 l 231 490 l 71 575 l 121 661 l 274 564 l 267 746 l 367 746 l 360 564 l 513 661 l 563 575 l 403 490 l 563 406 l 513 319 l 360 417 l 367 235 l 267 235 z "},"⊛":{"ha":1289,"x_min":71,"x_max":1218,"o":"m 644 -89 q 422 -44 526 -89 q 239 79 318 0 q 115 263 160 158 q 71 485 71 367 q 115 708 71 604 q 239 890 160 811 q 422 1014 318 969 q 644 1058 526 1058 q 867 1014 764 1058 q 1050 890 971 969 q 1174 708 1129 811 q 1218 485 1218 604 q 1174 263 1218 367 q 1050 79 1129 158 q 867 -44 971 0 q 644 -89 764 -89 m 644 -18 q 840 21 749 -18 q 1000 129 931 60 q 1108 290 1069 199 q 1147 485 1147 381 q 1108 680 1147 589 q 1000 840 1069 771 q 840 949 931 910 q 644 988 749 988 q 449 949 540 988 q 289 840 358 910 q 181 680 219 771 q 142 485 142 589 q 181 290 142 381 q 289 129 219 199 q 449 21 358 60 q 644 -18 540 -18 m 594 229 l 601 411 l 449 314 l 399 400 l 558 485 l 399 569 l 449 656 l 601 558 l 594 740 l 694 740 l 688 558 l 840 656 l 890 569 l 731 485 l 890 400 l 840 314 l 688 411 l 694 229 l 594 229 z "},"≃":{"ha":794,"x_min":71,"x_max":724,"o":"m 71 526 l 71 635 q 236 708 140 708 q 411 667 322 708 q 564 626 500 626 q 642 648 600 626 q 724 708 685 669 l 724 601 q 557 526 656 526 q 382 568 472 526 q 228 608 293 608 q 153 588 194 608 q 71 526 111 567 m 71 342 l 71 440 l 724 440 l 724 342 l 71 342 z "},"@":{"ha":1249,"x_min":81,"x_max":1168,"o":"m 601 -124 q 321 -62 438 -124 q 142 113 204 -1 q 81 389 81 228 q 121 628 81 518 q 238 820 161 739 q 423 947 314 901 q 669 992 532 992 q 926 932 814 992 q 1103 761 1039 872 q 1168 496 1168 650 q 1153 371 1168 432 q 1108 260 1139 310 q 1033 181 1078 211 q 928 151 989 151 q 827 188 864 151 q 782 272 790 225 l 775 272 q 701 186 750 221 q 579 151 653 151 q 416 222 474 151 q 358 410 358 293 q 394 572 358 501 q 497 682 431 642 q 653 722 563 722 q 773 712 714 722 q 865 689 832 701 l 851 407 q 850 372 850 382 q 850 357 850 361 q 876 261 850 285 q 936 238 901 238 q 1009 273 979 238 q 1055 367 1039 308 q 1071 497 1071 426 q 1019 716 1071 626 q 876 853 967 806 q 669 900 785 900 q 402 835 511 900 q 237 655 293 769 q 181 393 181 540 q 289 78 181 188 q 601 -32 397 -32 q 763 -13 686 -32 q 900 28 840 6 l 900 -67 q 766 -108 840 -92 q 601 -124 692 -124 m 597 238 q 710 296 675 238 q 749 447 744 354 l 757 621 q 711 631 739 626 q 654 635 683 635 q 544 601 586 635 q 485 516 503 568 q 467 407 467 464 q 502 278 467 318 q 597 238 538 238 z "},"b":{"ha":854,"x_min":118,"x_max":778,"o":"m 471 -14 q 328 18 383 -14 q 240 94 272 50 l 231 94 l 206 0 l 118 0 l 118 1056 l 240 1056 l 240 799 q 238 710 240 751 q 233 646 236 669 l 240 646 q 328 725 272 693 q 471 757 383 757 q 694 660 610 757 q 778 372 778 564 q 693 83 778 181 q 471 -14 608 -14 m 453 88 q 602 161 553 88 q 651 374 651 235 q 450 656 651 656 q 286 588 332 656 q 240 376 240 519 l 240 371 q 285 160 240 233 q 453 88 331 88 z "},"\\":{"ha":517,"x_min":14,"x_max":504,"o":"m 383 0 l 14 992 l 133 992 l 504 0 l 383 0 z "},"|":{"ha":601,"x_min":250,"x_max":351,"o":"m 250 -243 l 250 1146 l 351 1146 l 351 -243 l 250 -243 z "},"⦶":{"ha":1289,"x_min":71,"x_max":1218,"o":"m 644 1058 q 867 1014 764 1058 q 1050 890 971 969 q 1174 708 1129 811 q 1218 485 1218 604 q 1174 263 1218 367 q 1050 79 1129 158 q 867 -44 971 0 q 644 -89 764 -89 q 422 -44 526 -89 q 239 79 318 0 q 115 263 160 158 q 71 485 71 367 q 115 708 71 604 q 239 890 160 811 q 422 1014 318 969 q 644 1058 526 1058 m 142 485 q 178 297 142 385 q 278 140 214 208 q 427 31 342 72 q 610 -17 513 -10 l 610 986 q 427 938 513 979 q 278 829 342 897 q 178 673 214 761 q 142 485 142 585 m 679 -17 q 863 31 778 -10 q 1011 140 947 72 q 1111 297 1075 208 q 1147 485 1147 385 q 1111 673 1147 585 q 1011 829 1075 761 q 863 938 947 897 q 679 986 778 979 l 679 -17 z "},"∵":{"ha":794,"x_min":71,"x_max":724,"o":"m 640 643 q 581 667 606 643 q 557 726 557 692 q 581 785 557 761 q 640 810 606 810 q 699 785 675 810 q 724 726 724 761 q 699 667 724 692 q 640 643 675 643 m 154 643 q 95 667 119 643 q 71 726 71 692 q 95 785 71 761 q 154 810 119 810 q 213 785 189 810 q 238 726 238 761 q 213 667 238 692 q 154 643 189 643 m 397 169 q 338 194 363 169 q 314 253 314 218 q 338 312 314 288 q 397 336 363 336 q 456 312 432 336 q 481 253 481 288 q 456 194 481 218 q 397 169 432 169 z "},"β":{"ha":876,"x_min":118,"x_max":814,"o":"m 118 -333 l 118 743 q 161 926 118 856 q 279 1029 204 996 q 450 1063 354 1063 q 615 1033 543 1063 q 728 944 688 1003 q 769 797 769 886 q 715 639 769 697 q 558 564 661 581 l 558 558 q 749 476 685 544 q 814 282 814 408 q 724 63 814 139 q 475 -14 635 -14 q 340 -1 394 -14 q 240 33 285 11 l 240 -333 l 118 -333 m 464 86 q 638 140 583 86 q 692 290 692 193 q 625 451 692 400 q 450 501 558 501 l 376 501 l 376 604 l 436 604 q 594 656 544 604 q 644 792 644 707 q 591 919 644 878 q 447 961 538 961 q 344 942 392 961 q 269 874 297 922 q 240 738 240 825 l 240 143 q 341 102 289 118 q 464 86 393 86 z "},"ℶ":{"ha":736,"x_min":47,"x_max":681,"o":"m 47 0 l 47 85 l 478 85 l 478 497 q 430 671 478 619 q 257 722 382 722 l 78 722 l 78 807 l 257 807 q 443 777 374 807 q 543 676 513 747 q 574 482 574 606 l 574 85 l 681 85 l 681 0 l 47 0 z "},"≬":{"ha":483,"x_min":71,"x_max":413,"o":"m 72 0 q 132 62 104 28 q 186 133 160 96 q 71 524 71 306 q 186 919 71 743 q 135 989 164 956 q 71 1056 106 1022 l 182 1056 q 212 1025 197 1042 q 240 992 226 1008 q 276 1030 260 1014 q 301 1056 292 1046 l 411 1056 q 296 919 343 990 q 413 524 413 740 q 296 133 413 308 q 349 64 319 97 q 410 0 378 31 l 301 0 q 268 33 283 17 q 240 63 253 49 q 182 0 228 46 l 72 0 m 240 215 q 293 349 276 296 q 314 442 310 401 q 318 525 318 483 q 313 611 318 569 q 292 706 308 653 q 240 836 276 758 q 194 717 210 769 q 172 619 178 665 q 165 525 165 574 q 172 431 165 476 q 194 333 178 385 q 240 215 210 282 z "},"⧹":{"ha":560,"x_min":-17,"x_max":576,"o":"m 478 -407 l -17 1485 l 82 1485 l 576 -407 l 478 -407 z "},"⧸":{"ha":560,"x_min":-17,"x_max":576,"o":"m -17 -407 l 478 1485 l 576 1485 l 82 -407 l -17 -407 z "},"⧓":{"ha":1026,"x_min":71,"x_max":956,"o":"m 71 -24 l 71 893 l 513 492 l 956 893 l 956 -24 l 513 376 l 71 -24 z "},"⧭":{"ha":1089,"x_min":71,"x_max":1018,"o":"m 544 -297 l 290 -40 l 401 -40 l 500 -137 l 500 60 q 331 108 410 68 q 194 211 253 147 q 103 357 136 275 q 71 532 71 439 q 108 717 71 631 q 209 867 144 803 q 360 969 274 932 q 544 1006 446 1006 q 729 969 643 1006 q 880 867 815 932 q 981 717 944 803 q 1018 532 1018 631 q 985 357 1018 439 q 894 211 953 275 q 758 108 836 147 q 589 60 679 68 l 589 -137 l 688 -40 l 799 -40 l 544 -297 z "},"⧪":{"ha":1219,"x_min":71,"x_max":1149,"o":"m 610 -297 l 356 -40 l 467 -40 l 565 -137 l 565 31 l 71 525 l 610 1064 l 1149 525 l 654 31 l 654 -137 l 753 -40 l 864 -40 l 610 -297 z "},"⧗":{"ha":1058,"x_min":71,"x_max":988,"o":"m 71 0 l 471 442 l 71 885 l 988 885 l 586 442 l 988 0 l 71 0 z "},"⧫":{"ha":806,"x_min":71,"x_max":735,"o":"m 376 0 l 71 500 l 376 1000 l 429 1000 l 735 500 l 429 0 l 376 0 z "},"⤻":{"ha":1389,"x_min":188,"x_max":1307,"o":"m 706 242 q 469 292 575 242 q 290 431 363 342 q 188 635 218 519 l 274 635 q 431 401 317 486 q 706 317 544 317 q 953 382 847 317 q 1111 565 1058 447 q 1029 562 1076 561 q 924 571 982 563 l 958 621 q 1113 657 1043 632 q 1242 717 1183 682 l 1268 700 q 1270 558 1261 633 q 1307 400 1279 483 l 1272 351 q 1216 448 1238 403 q 1185 529 1194 493 q 996 320 1121 399 q 706 242 871 242 z "},"⌞":{"ha":614,"x_min":71,"x_max":543,"o":"m 71 0 l 71 511 l 169 511 l 169 99 l 543 99 l 543 0 l 71 0 z "},"⌟":{"ha":614,"x_min":71,"x_max":543,"o":"m 71 0 l 71 99 l 444 99 l 444 511 l 543 511 l 543 0 l 71 0 z "},"⏟":{"ha":2375,"x_min":21,"x_max":2354,"o":"m 1140 725 q 994 831 1135 831 l 263 831 q 78 890 135 831 q 21 1065 21 950 l 122 1065 q 158 969 122 997 q 272 942 193 942 l 1011 942 q 1183 840 1153 942 l 1192 840 q 1364 942 1222 942 l 2103 942 q 2217 969 2182 942 q 2253 1065 2253 997 l 2354 1065 q 2297 890 2354 950 q 2113 831 2240 831 l 1381 831 q 1235 725 1240 831 l 1140 725 z "},"⏝":{"ha":1589,"x_min":3,"x_max":1586,"o":"m 794 783 q 476 829 625 783 q 206 961 326 875 q 3 1169 86 1047 l 114 1169 q 404 968 236 1042 q 794 894 572 894 q 1185 968 1018 894 q 1475 1169 1353 1042 l 1586 1169 q 1383 961 1504 1047 q 1113 829 1263 875 q 794 783 964 783 z "},"⎵":{"ha":1061,"x_min":71,"x_max":990,"o":"m 71 -197 l 71 58 l 160 58 l 160 -99 l 901 -99 l 901 58 l 990 58 l 990 -197 l 71 -197 z "},"⎶":{"ha":1061,"x_min":71,"x_max":990,"o":"m 71 538 l 71 793 l 160 793 l 160 636 l 901 636 l 901 793 l 990 793 l 990 538 l 71 538 m 71 196 l 71 451 l 990 451 l 990 196 l 901 196 l 901 353 l 160 353 l 160 196 l 71 196 z "},"⏡":{"ha":2375,"x_min":21,"x_max":2354,"o":"m 469 538 l 21 1065 l 160 1065 l 526 649 l 1849 649 l 2215 1065 l 2354 1065 l 1906 538 l 469 538 z "},"⋈":{"ha":1019,"x_min":71,"x_max":949,"o":"m 125 0 l 71 19 l 71 889 l 125 908 l 510 525 l 894 908 l 949 889 l 949 19 l 894 0 l 508 383 l 125 0 m 850 183 l 850 725 l 581 456 l 850 183 m 169 185 l 439 456 l 169 722 l 169 185 z "},"⧑":{"ha":1026,"x_min":71,"x_max":956,"o":"m 71 -24 l 71 893 l 513 492 l 956 893 l 956 -24 l 513 376 l 71 -24 m 857 200 l 857 669 l 600 435 l 857 200 z "},"⧒":{"ha":1026,"x_min":71,"x_max":956,"o":"m 71 -24 l 71 893 l 514 492 l 956 893 l 956 -24 l 514 376 l 71 -24 m 169 200 l 426 435 l 169 669 l 169 200 z "},"{":{"ha":528,"x_min":39,"x_max":483,"o":"m 483 -219 q 282 -164 356 -218 q 208 1 208 -110 l 208 206 q 165 306 208 276 q 39 336 121 336 l 39 438 q 165 468 121 439 q 208 567 208 497 l 208 772 q 285 938 208 883 q 483 992 361 992 l 483 892 q 370 860 411 890 q 329 761 329 829 l 329 561 q 178 392 329 418 l 178 383 q 329 214 329 357 l 329 10 q 369 -88 329 -58 q 483 -119 410 -118 l 483 -219 z "},"｛":{"ha":1389,"x_min":542,"x_max":986,"o":"m 986 -219 q 785 -164 858 -218 q 711 1 711 -110 l 711 206 q 667 306 711 276 q 542 336 624 336 l 542 438 q 667 468 624 439 q 711 567 711 497 l 711 772 q 788 938 711 883 q 986 992 864 992 l 986 892 q 873 860 914 890 q 832 761 832 829 l 832 561 q 681 392 832 418 l 681 383 q 832 214 832 357 l 832 10 q 872 -88 832 -58 q 986 -119 913 -118 l 986 -219 z "},"}":{"ha":528,"x_min":44,"x_max":489,"o":"m 44 -219 l 44 -119 q 158 -87 117 -117 q 199 11 199 -57 l 199 213 q 350 382 199 356 l 350 390 q 199 560 199 417 l 199 763 q 158 860 199 831 q 44 892 118 890 l 44 992 q 246 936 172 990 q 319 771 319 882 l 319 568 q 363 467 319 497 q 489 438 407 438 l 489 336 q 363 306 407 335 q 319 207 319 276 l 319 0 q 243 -165 319 -110 q 44 -219 167 -219 z "},"｝":{"ha":1389,"x_min":542,"x_max":986,"o":"m 542 -219 l 542 -119 q 655 -87 614 -117 q 696 11 696 -57 l 696 213 q 847 382 696 356 l 847 390 q 696 560 696 417 l 696 763 q 656 860 696 831 q 542 892 615 890 l 542 992 q 743 936 669 990 q 817 771 817 882 l 817 568 q 860 467 817 497 q 986 438 904 438 l 986 336 q 860 306 904 335 q 817 207 817 276 l 817 0 q 740 -165 817 -110 q 542 -219 664 -219 z "},"[":{"ha":457,"x_min":111,"x_max":422,"o":"m 111 -219 l 111 992 l 422 992 l 422 892 l 231 892 l 231 -119 l 422 -119 l 422 -219 l 111 -219 z "},"]":{"ha":457,"x_min":35,"x_max":346,"o":"m 35 -219 l 35 -119 l 226 -119 l 226 892 l 35 892 l 35 992 l 346 992 l 346 -219 l 35 -219 z "},"⦿":{"ha":1289,"x_min":71,"x_max":1218,"o":"m 644 -89 q 422 -44 526 -89 q 239 79 318 0 q 115 263 160 158 q 71 485 71 367 q 115 708 71 604 q 239 890 160 811 q 422 1014 318 969 q 644 1058 526 1058 q 867 1014 764 1058 q 1050 890 971 969 q 1174 708 1129 811 q 1218 485 1218 604 q 1174 263 1218 367 q 1050 79 1129 158 q 867 -44 971 0 q 644 -89 764 -89 m 644 -18 q 840 21 749 -18 q 1000 129 931 60 q 1108 290 1069 199 q 1147 485 1147 381 q 1108 680 1147 589 q 1000 840 1069 771 q 840 949 931 910 q 644 988 749 988 q 449 949 540 988 q 289 840 358 910 q 181 680 219 771 q 142 485 142 589 q 181 290 142 381 q 289 129 219 199 q 449 21 358 60 q 644 -18 540 -18 m 644 233 q 518 267 575 233 q 427 358 461 301 q 393 485 393 415 q 427 611 393 554 q 519 702 461 668 q 644 736 576 736 q 769 702 713 736 q 861 611 826 668 q 896 485 896 554 q 862 358 896 415 q 771 267 828 301 q 644 233 714 233 z "},"∙":{"ha":403,"x_min":71,"x_max":332,"o":"m 201 358 q 108 396 146 358 q 71 489 71 433 q 108 581 71 542 q 201 621 146 621 q 294 581 257 621 q 332 489 332 542 q 294 396 332 433 q 201 358 257 358 z "},"c":{"ha":667,"x_min":76,"x_max":621,"o":"m 417 -14 q 241 26 318 -14 q 120 151 164 67 q 76 368 76 236 q 122 592 76 506 q 247 718 168 678 q 425 758 325 758 q 535 747 482 758 q 621 718 588 735 l 583 617 q 506 640 550 629 q 422 651 461 651 q 203 369 203 651 q 256 163 203 235 q 415 92 310 92 q 523 104 476 92 q 608 135 569 117 l 608 26 q 526 -3 571 7 q 417 -14 481 -14 z "},"↵":{"ha":839,"x_min":160,"x_max":679,"o":"m 392 158 q 160 349 281 288 l 160 379 q 392 569 281 440 l 453 569 q 351 401 400 456 l 604 401 l 604 800 l 679 800 l 679 326 l 351 326 q 453 158 400 272 l 392 158 z "},"χ":{"ha":765,"x_min":-15,"x_max":757,"o":"m -15 -333 l 301 236 l 188 532 q 144 619 167 588 q 85 650 121 650 q 39 642 58 650 l 39 738 q 75 745 54 742 q 125 749 96 749 q 227 705 194 749 q 292 579 260 661 l 386 340 l 599 744 l 729 744 l 438 222 l 567 -106 q 617 -201 592 -169 q 694 -233 643 -233 q 728 -231 713 -233 q 757 -228 744 -229 l 757 -322 q 721 -330 742 -326 q 671 -333 700 -333 q 569 -310 608 -333 q 503 -245 529 -287 q 456 -144 478 -203 l 357 114 l 115 -333 l -15 -333 z "},"⦺":{"ha":1106,"x_min":72,"x_max":1092,"o":"m 582 -14 q 384 26 476 -14 q 222 135 292 65 q 112 298 151 206 q 72 496 72 390 q 112 694 72 601 q 222 856 151 786 q 384 966 292 926 q 582 1006 476 1006 q 780 966 688 1006 q 942 856 872 926 q 1052 694 1013 786 q 1092 496 1092 601 q 1052 298 1092 390 q 942 135 1013 206 q 778 26 871 65 q 582 -14 686 -14 m 626 540 l 989 540 q 929 715 979 636 q 801 843 879 793 q 626 903 722 893 l 626 540 m 175 540 l 538 540 l 538 903 q 363 843 442 893 q 235 715 285 793 q 175 540 185 636 m 582 86 q 776 135 688 86 q 921 266 864 183 q 989 451 978 349 l 175 451 q 243 266 186 349 q 388 135 300 183 q 582 86 476 86 z "},"⧂":{"ha":1506,"x_min":71,"x_max":1435,"o":"m 581 -14 q 383 26 475 -14 q 220 135 290 65 q 110 298 150 206 q 71 496 71 390 q 110 694 71 601 q 220 856 150 786 q 383 966 290 926 q 581 1006 475 1006 q 778 966 686 1006 q 941 856 871 926 q 1051 694 1011 786 q 1090 496 1090 601 q 1051 298 1090 390 q 940 135 1011 206 q 777 26 869 65 q 581 -14 685 -14 m 581 86 q 740 118 665 86 q 870 206 814 150 q 958 337 926 263 q 990 496 990 411 q 958 655 990 581 q 870 785 926 729 q 740 874 814 842 q 581 906 665 906 q 422 874 496 906 q 291 785 347 842 q 203 655 235 729 q 171 496 171 581 q 203 337 171 411 q 291 206 235 263 q 422 118 347 150 q 581 86 496 86 m 1288 349 q 1183 391 1226 349 q 1140 496 1140 433 q 1183 600 1140 557 q 1288 643 1225 643 q 1392 601 1349 643 q 1435 496 1435 558 q 1392 391 1435 433 q 1288 349 1349 349 m 1288 418 q 1342 441 1319 418 q 1365 496 1365 464 q 1343 551 1365 528 q 1288 574 1321 574 q 1232 551 1254 574 q 1210 496 1210 528 q 1233 441 1210 464 q 1288 418 1256 418 z "},"⧃":{"ha":1421,"x_min":71,"x_max":1350,"o":"m 581 -14 q 383 26 475 -14 q 220 135 290 65 q 110 298 150 206 q 71 496 71 390 q 110 694 71 601 q 220 856 150 786 q 383 966 290 926 q 581 1006 475 1006 q 806 953 703 1006 q 981 812 910 901 q 1078 608 1053 722 l 1350 608 l 1350 533 l 1089 533 q 1090 496 1090 515 q 1088 447 1090 471 l 1350 447 l 1350 372 l 1075 372 q 975 174 1047 261 q 801 36 903 86 q 581 -14 699 -14 m 581 86 q 740 118 665 86 q 870 206 814 150 q 958 337 926 263 q 990 496 990 411 q 958 655 990 581 q 870 785 926 729 q 740 874 814 842 q 581 906 665 906 q 422 874 496 906 q 291 785 347 842 q 203 655 235 729 q 171 496 171 581 q 203 337 171 411 q 291 206 235 263 q 422 118 347 150 q 581 86 496 86 z "},"⦵":{"ha":1500,"x_min":71,"x_max":1429,"o":"m 71 451 l 71 540 l 242 540 q 293 722 250 638 q 405 871 336 807 q 562 970 474 935 q 750 1006 650 1006 q 938 970 850 1006 q 1095 871 1026 935 q 1207 723 1164 807 q 1258 540 1250 639 l 1429 540 l 1429 451 l 1258 451 q 1206 269 1249 354 q 1094 121 1164 185 q 937 22 1025 57 q 750 -14 849 -14 q 562 22 650 -14 q 405 121 474 57 q 293 269 336 185 q 242 451 250 353 l 71 451 m 750 906 q 556 857 644 906 q 411 726 468 808 q 343 540 354 643 l 1157 540 q 1089 726 1146 643 q 944 857 1032 808 q 750 906 856 906 m 750 86 q 944 135 856 86 q 1089 266 1032 183 q 1157 451 1146 349 l 343 451 q 411 266 354 349 q 556 135 468 183 q 750 86 644 86 z "},"⦻":{"ha":1164,"x_min":71,"x_max":1093,"o":"m 133 -15 l 71 47 l 192 168 q 104 318 136 235 q 72 496 72 401 q 104 674 72 590 q 192 824 136 757 l 71 944 l 133 1007 l 254 886 q 404 974 321 942 q 582 1006 488 1006 q 760 974 676 1006 q 910 886 843 942 l 1031 1007 l 1093 944 l 972 824 q 1060 674 1028 757 q 1092 496 1092 590 q 1060 319 1092 403 q 972 168 1028 235 l 1093 47 l 1031 -15 l 910 106 q 759 18 843 50 q 582 -14 675 -14 q 404 18 488 -14 q 254 106 321 50 l 133 -15 m 582 906 q 443 881 508 906 q 325 815 378 857 l 582 558 l 839 815 q 721 881 786 857 q 582 906 656 906 m 992 496 q 967 635 992 569 q 901 753 943 700 l 644 496 l 901 239 q 967 357 943 292 q 992 496 992 422 m 172 496 q 197 357 172 422 q 263 239 221 292 l 519 496 l 263 753 q 197 635 221 700 q 172 496 172 569 m 582 86 q 721 110 656 86 q 839 176 786 135 l 582 433 l 325 176 q 443 110 378 135 q 582 86 508 86 z "},"⨐":{"ha":699,"x_min":71,"x_max":628,"o":"m 208 -333 q 114 -319 154 -333 l 114 -219 q 197 -236 156 -236 q 317 -78 317 -236 l 317 186 q 138 275 206 204 q 71 447 71 346 q 139 621 71 550 q 317 710 207 692 l 317 982 q 540 1229 317 1229 q 628 1217 597 1229 l 628 1115 q 550 1132 589 1132 q 435 974 435 1132 l 435 708 q 581 649 521 696 l 538 579 q 435 628 492 615 l 435 267 q 501 290 472 271 l 547 224 q 435 186 504 199 l 435 -86 q 208 -333 435 -333 m 317 267 l 317 628 q 197 563 242 611 q 151 447 151 515 q 197 331 151 379 q 317 267 243 282 z "},"̂":{"ha":0,"x_min":-232,"x_max":238,"o":"m -232 842 l -232 857 q -173 921 -206 885 q -110 995 -140 957 q -61 1064 -79 1033 l 64 1064 q 112 995 81 1033 q 177 920 143 957 q 238 857 211 883 l 238 842 l 151 842 q 76 897 115 864 q 0 967 38 929 q -75 897 -37 929 q -149 842 -112 865 l -232 842 z "},"⥁":{"ha":1283,"x_min":188,"x_max":1096,"o":"m 642 25 q 465 60 547 25 q 321 158 383 96 q 223 303 258 221 q 188 479 188 385 q 219 646 188 568 q 306 785 250 724 q 437 885 363 847 q 597 931 511 922 q 496 1099 549 986 l 557 1099 q 785 911 668 969 q 945 817 875 881 q 1056 667 1015 754 q 1096 479 1096 579 q 1060 303 1096 385 q 963 158 1025 221 q 818 60 900 96 q 642 25 736 25 m 642 100 q 790 129 721 100 q 910 210 858 158 q 992 331 963 263 q 1021 479 1021 400 q 983 644 1021 568 q 881 773 946 719 q 735 847 817 826 q 557 688 643 788 l 496 688 q 599 856 549 801 q 427 792 503 844 q 307 658 351 740 q 263 479 263 576 q 292 331 263 400 q 373 210 321 263 q 494 129 425 158 q 642 100 563 100 z "},"⟳":{"ha":1451,"x_min":188,"x_max":1264,"o":"m 1096 478 q 1166 528 1124 503 q 1264 579 1208 553 l 1264 518 q 1074 286 1135 407 l 1043 286 q 853 518 982 407 l 853 579 q 951 528 908 553 q 1021 478 993 503 l 1021 479 q 992 627 1021 558 q 910 748 963 696 q 790 829 858 800 q 642 858 721 858 q 494 829 563 858 q 373 748 425 800 q 292 627 321 696 q 263 479 263 558 q 292 331 263 400 q 373 210 321 263 q 494 129 425 158 q 642 100 563 100 q 774 124 714 100 q 879 183 835 147 q 947 254 924 218 l 1003 204 q 915 116 969 157 q 792 50 861 75 q 642 25 722 25 q 465 60 547 25 q 321 158 383 96 q 223 303 258 221 q 188 479 188 385 q 223 656 188 574 q 321 800 258 738 q 465 898 383 863 q 642 933 547 933 q 818 898 736 933 q 963 800 900 863 q 1060 656 1025 738 q 1096 479 1096 574 l 1096 478 z "},"↻":{"ha":1343,"x_min":188,"x_max":1156,"o":"m 957 854 q 1053 768 1007 822 q 1127 641 1099 714 q 1156 479 1156 568 q 1120 303 1156 385 q 1022 158 1085 221 q 878 60 960 96 q 701 25 796 25 q 525 60 607 25 q 381 158 443 96 q 283 303 318 221 q 247 479 247 385 q 283 658 247 574 q 382 801 319 742 q 188 832 304 799 l 226 879 q 386 893 313 879 q 521 933 460 907 l 544 914 q 542 614 513 781 l 503 568 q 439 754 450 676 q 358 642 394 711 q 322 479 322 572 q 351 331 322 400 q 433 210 381 263 q 553 129 485 158 q 701 100 622 100 q 849 129 781 100 q 970 210 918 158 q 1051 331 1022 263 q 1081 479 1081 400 q 1060 603 1081 549 q 1012 697 1040 657 q 956 760 983 736 q 915 793 929 785 l 957 854 z "},"⃕":{"ha":0,"x_min":-422,"x_max":422,"o":"m 240 844 l 303 906 q 161 1003 244 971 q -14 1036 78 1036 q -210 992 -119 1036 q -353 875 -300 949 l -422 919 q -246 1065 -353 1011 q -14 1118 -139 1118 q 361 965 210 1118 l 422 1026 l 422 844 l 240 844 z "},"∲":{"ha":813,"x_min":71,"x_max":743,"o":"m 208 -333 q 114 -319 154 -333 l 114 -219 q 197 -236 156 -236 q 317 -78 317 -236 l 317 186 q 138 275 206 204 q 71 447 71 346 q 139 621 71 550 q 317 710 207 692 l 317 982 q 540 1229 317 1229 q 628 1217 597 1229 l 628 1115 q 550 1132 589 1132 q 435 974 435 1132 l 435 708 q 573 655 513 697 q 661 546 633 613 l 743 568 l 679 428 q 608 269 674 335 q 435 186 542 204 l 435 -86 q 208 -333 435 -333 m 317 267 l 317 628 q 197 563 242 611 q 151 447 151 515 q 197 331 151 379 q 317 267 243 282 m 435 267 q 548 324 504 282 q 599 426 592 367 l 499 503 l 582 525 q 522 592 561 565 q 435 628 483 618 l 435 267 z "},"∱":{"ha":814,"x_min":71,"x_max":743,"o":"m 208 -333 q 114 -319 154 -333 l 114 -219 q 197 -236 156 -236 q 317 -78 317 -236 l 317 629 q 196 564 240 613 q 151 447 151 515 l 71 447 q 138 621 71 550 q 317 710 206 692 l 317 982 q 540 1229 317 1229 q 628 1217 597 1229 l 628 1115 q 550 1132 589 1132 q 435 974 435 1132 l 435 708 q 576 653 517 696 q 661 546 635 611 l 743 568 l 658 381 l 499 503 l 581 525 q 522 592 561 565 q 435 628 483 618 l 435 -86 q 208 -333 435 -333 z "},"⃙":{"ha":0,"x_min":-315,"x_max":315,"o":"m 0 57 q -158 99 -86 57 q -273 214 -231 142 q -315 372 -315 286 q -273 531 -315 460 q -158 645 -231 603 q 0 688 -86 688 q 190 622 104 688 l 265 697 l 265 542 q 315 372 315 467 q 273 214 315 286 q 159 99 231 142 q 0 57 88 57 m 0 138 q 117 170 64 138 q 202 256 169 203 q 235 372 235 310 q 204 488 235 435 l 56 488 l 133 565 q 0 607 71 607 q -116 574 -62 607 q -202 489 -169 542 q -235 372 -235 436 q -202 256 -235 310 q -116 170 -169 203 q 0 138 -62 138 z "},"⩍":{"ha":1128,"x_min":71,"x_max":1057,"o":"m 71 0 l 71 90 l 160 90 l 160 446 q 263 801 160 679 q 564 922 365 922 q 866 801 764 922 q 968 446 968 679 l 968 90 l 1057 90 l 1057 0 l 71 0 m 258 446 l 258 90 l 869 90 l 869 446 q 564 822 869 822 q 334 729 410 822 q 258 446 258 636 z "},"⫏":{"ha":943,"x_min":71,"x_max":872,"o":"m 547 156 q 187 236 303 156 q 71 490 71 317 q 187 744 71 664 q 547 825 303 825 l 872 825 l 872 156 l 547 156 m 547 254 l 774 254 l 774 726 l 547 726 q 328 702 411 726 q 208 626 244 678 q 171 490 171 575 q 208 355 171 407 q 328 278 244 303 q 547 254 411 254 z "},"⫑":{"ha":943,"x_min":71,"x_max":872,"o":"m 547 194 q 187 275 303 194 q 71 529 71 356 q 187 783 71 703 q 547 864 303 864 l 872 864 l 872 194 l 547 194 m 547 293 l 774 293 l 774 765 l 547 765 q 328 741 411 765 q 208 665 244 717 q 171 529 171 614 q 208 394 171 446 q 328 317 244 342 q 547 293 411 293 m 71 0 l 71 99 l 872 99 l 872 0 l 71 0 z "},"⫐":{"ha":943,"x_min":71,"x_max":872,"o":"m 71 156 l 71 825 l 396 825 q 756 744 640 825 q 872 490 872 664 q 756 236 872 317 q 396 156 640 156 l 71 156 m 169 254 l 396 254 q 616 278 533 254 q 735 355 699 303 q 772 490 772 407 q 735 626 772 575 q 616 702 699 678 q 396 726 533 726 l 169 726 l 169 254 z "},"⫒":{"ha":943,"x_min":71,"x_max":872,"o":"m 71 194 l 71 864 l 396 864 q 756 783 640 864 q 872 529 872 703 q 756 275 872 356 q 396 194 640 194 l 71 194 m 169 293 l 396 293 q 616 317 533 293 q 735 394 699 342 q 772 529 772 446 q 735 665 772 614 q 616 741 699 717 q 396 765 533 765 l 169 765 l 169 293 m 71 0 l 71 99 l 872 99 l 872 0 l 71 0 z "},"⩌":{"ha":1069,"x_min":71,"x_max":1057,"o":"m 564 0 q 263 122 365 0 q 160 476 160 243 l 160 832 l 71 832 l 71 922 l 1057 922 l 1057 832 l 968 832 l 968 476 q 866 122 968 243 q 564 0 764 0 m 258 476 q 334 193 258 286 q 564 100 410 100 q 869 476 869 100 l 869 832 l 258 832 l 258 476 z "},"⩐":{"ha":1069,"x_min":71,"x_max":1057,"o":"m 564 0 q 263 122 365 0 q 160 476 160 243 l 160 832 l 71 832 l 71 922 l 1057 922 l 1057 832 l 968 832 l 968 476 q 866 122 968 243 q 564 0 764 0 m 258 476 q 334 193 258 286 q 564 100 410 100 q 869 476 869 100 l 869 832 l 258 832 l 258 476 m 432 214 l 396 251 l 528 382 l 467 443 l 372 347 l 336 383 l 432 479 l 335 575 l 372 613 l 468 515 l 528 575 l 394 708 l 431 747 l 565 613 l 699 747 l 735 710 l 601 576 l 663 515 l 757 611 l 793 575 l 697 479 l 794 383 l 757 346 l 661 443 l 601 383 l 732 253 l 696 214 l 564 346 l 432 214 m 565 421 l 624 479 l 564 538 l 506 479 l 565 421 z "},":":{"ha":372,"x_min":100,"x_max":272,"o":"m 185 575 q 125 597 150 575 q 100 669 100 619 q 125 743 100 722 q 185 764 150 764 q 247 743 221 764 q 272 669 272 722 q 247 597 272 619 q 185 575 221 575 m 185 -19 q 125 3 150 -19 q 100 75 100 25 q 125 147 100 126 q 185 168 150 168 q 247 147 221 168 q 272 75 272 126 q 247 3 272 25 q 185 -19 221 -19 z "},"≔":{"ha":857,"x_min":71,"x_max":786,"o":"m 154 544 q 95 569 119 544 q 71 628 71 593 q 95 687 71 663 q 154 711 119 711 q 213 687 189 711 q 238 628 238 663 q 213 569 238 593 q 154 544 189 544 m 314 578 l 314 676 l 786 676 l 786 578 l 314 578 m 154 267 q 95 291 119 267 q 71 350 71 315 q 95 409 71 385 q 154 433 119 433 q 213 409 189 433 q 238 350 238 385 q 213 291 238 315 q 154 267 189 267 m 314 301 l 314 400 l 786 400 l 786 301 l 314 301 z "},",":{"ha":372,"x_min":57,"x_max":267,"o":"m 57 -179 q 97 -6 76 -100 q 126 161 117 89 l 257 161 l 267 146 q 215 -16 249 72 q 147 -179 181 -104 l 57 -179 z "},"∁":{"ha":599,"x_min":71,"x_max":528,"o":"m 304 -17 q 127 64 183 -17 q 71 307 71 144 l 71 685 q 132 926 71 842 q 304 1010 193 1010 q 471 928 414 1010 q 528 692 528 847 l 417 692 q 390 851 417 800 q 301 903 363 903 q 211 850 238 903 q 185 675 185 797 l 185 318 q 213 144 185 199 q 306 90 242 90 q 390 140 363 90 q 417 300 417 190 l 528 300 q 469 65 528 147 q 304 -17 411 -17 z "},"≅":{"ha":794,"x_min":71,"x_max":724,"o":"m 71 626 l 71 735 q 236 808 140 808 q 411 767 322 808 q 564 726 500 726 q 642 748 600 726 q 724 808 685 769 l 724 701 q 557 626 656 626 q 382 668 472 626 q 228 708 293 708 q 153 688 194 708 q 71 626 111 667 m 71 442 l 71 540 l 724 540 l 724 442 l 71 442 m 71 219 l 71 318 l 724 318 l 724 219 l 71 219 z "},"⩭":{"ha":794,"x_min":71,"x_max":724,"o":"m 397 732 q 339 756 364 732 q 314 815 314 781 q 338 874 314 850 q 397 899 363 899 q 457 873 433 899 q 481 815 481 847 q 456 756 481 781 q 397 732 432 732 m 71 488 l 71 596 q 236 669 138 669 q 322 660 278 669 q 411 629 365 650 q 564 588 503 588 q 644 609 600 588 q 724 669 688 631 l 724 563 q 557 488 656 488 q 381 529 471 488 q 228 569 292 569 q 150 548 192 569 q 71 488 108 526 m 71 303 l 71 401 l 724 401 l 724 303 l 71 303 m 71 81 l 71 179 l 724 179 l 724 81 l 71 81 z "},"∍":{"ha":772,"x_min":71,"x_max":701,"o":"m 71 185 l 71 283 l 356 283 q 529 325 471 283 q 600 440 588 367 l 71 440 l 71 539 l 600 539 q 529 654 588 613 q 356 696 471 696 l 71 696 l 71 794 l 344 794 q 610 717 519 794 q 701 489 701 639 q 610 263 701 340 q 344 185 519 185 l 71 185 z "},"⊳":{"ha":794,"x_min":71,"x_max":724,"o":"m 71 228 l 71 751 l 724 513 l 724 465 l 71 228 m 164 356 l 560 488 l 164 624 l 164 356 z "},"⊵":{"ha":794,"x_min":71,"x_max":724,"o":"m 71 307 l 71 831 l 724 592 l 724 544 l 71 307 m 164 435 l 560 567 l 164 703 l 164 435 m 71 142 l 71 240 l 724 240 l 724 142 l 71 142 z "},"⋺":{"ha":1133,"x_min":71,"x_max":1063,"o":"m 71 85 l 71 183 l 440 183 q 692 249 600 183 q 797 440 783 314 l 71 440 l 71 539 l 797 539 q 440 794 767 794 l 71 794 l 71 893 l 424 893 q 763 803 643 893 q 899 539 883 714 l 1063 539 l 1063 440 l 899 440 q 763 175 883 265 q 424 85 642 85 l 71 85 z "},"⋽":{"ha":971,"x_min":71,"x_max":900,"o":"m 71 1018 l 71 1117 l 844 1117 l 844 1018 l 71 1018 m 71 85 l 71 183 l 440 183 q 692 249 600 183 q 797 440 783 314 l 71 440 l 71 539 l 797 539 q 440 794 767 794 l 71 794 l 71 893 l 424 893 q 779 790 658 893 q 900 489 900 688 q 778 188 900 290 q 424 85 656 85 l 71 85 z "},"⋻":{"ha":971,"x_min":71,"x_max":900,"o":"m 71 85 l 71 183 l 440 183 q 692 249 600 183 q 797 440 783 314 l 167 440 l 167 297 l 71 297 l 71 683 l 167 683 l 167 539 l 797 539 q 440 794 767 794 l 71 794 l 71 893 l 424 893 q 779 790 658 893 q 900 489 900 688 q 778 188 900 290 q 424 85 656 85 l 71 85 z "},"∮":{"ha":757,"x_min":71,"x_max":686,"o":"m 211 -333 q 117 -319 157 -333 l 117 -219 q 200 -236 158 -236 q 319 -78 319 -236 l 319 186 q 138 276 206 204 q 71 447 71 347 q 140 619 71 549 q 319 708 208 690 l 319 982 q 543 1229 319 1229 q 631 1217 600 1229 l 631 1115 q 553 1132 592 1132 q 438 974 438 1132 l 438 708 q 617 619 549 690 q 686 447 686 547 q 617 275 686 346 q 438 186 549 204 l 438 -86 q 211 -333 438 -333 m 319 279 l 319 615 q 210 555 250 601 q 169 447 169 508 q 210 338 169 383 q 319 279 251 292 m 438 279 q 547 338 506 293 q 588 447 588 383 q 547 556 588 510 q 438 615 507 603 l 438 279 z "},"∐":{"ha":901,"x_min":71,"x_max":831,"o":"m 71 -333 l 71 992 l 196 992 l 196 -222 l 706 -222 l 706 992 l 831 992 l 831 -333 l 71 -333 z "},"≘":{"ha":794,"x_min":71,"x_max":724,"o":"m 129 557 l 78 638 q 236 721 160 697 q 397 744 313 744 q 560 721 483 744 q 717 638 636 697 l 665 557 q 521 630 582 614 q 397 646 460 646 q 263 627 325 646 q 129 557 200 608 m 71 346 l 71 444 l 724 444 l 724 346 l 71 346 m 71 69 l 71 168 l 724 168 l 724 69 l 71 69 z "},"∛":{"ha":840,"x_min":71,"x_max":883,"o":"m 381 -10 l 193 518 l 71 518 l 71 615 l 269 615 l 426 158 l 785 1181 l 883 1181 l 471 -10 l 381 -10 m 376 660 q 224 692 290 660 l 224 772 q 378 735 303 735 q 489 818 489 735 q 458 875 489 858 q 367 892 426 892 l 299 892 l 299 965 l 367 965 q 474 1040 474 965 q 393 1106 474 1106 q 268 1063 325 1106 l 224 1122 q 299 1164 256 1147 q 401 1181 342 1181 q 519 1145 475 1181 q 564 1050 564 1110 q 486 932 564 964 q 579 815 579 903 q 527 701 579 743 q 376 660 475 660 z "},"⋏":{"ha":1014,"x_min":71,"x_max":943,"o":"m 71 0 q 203 168 140 74 q 320 367 267 263 q 413 579 374 472 q 475 783 453 686 l 539 783 q 603 576 563 683 q 698 363 644 468 q 814 163 751 257 q 943 0 876 69 l 824 0 q 765 74 799 25 q 693 185 731 122 q 619 315 656 247 q 555 451 583 383 q 511 574 526 518 l 503 574 q 444 420 483 504 q 359 253 406 336 q 267 103 313 169 q 190 0 222 36 l 71 0 z "},"⎪":{"ha":425,"x_min":154,"x_max":272,"o":"m 154 -407 l 154 1485 l 272 1485 l 272 -407 l 154 -407 z "},"⋎":{"ha":1014,"x_min":71,"x_max":943,"o":"m 475 0 q 414 203 453 97 q 322 413 375 308 q 206 612 269 517 q 71 783 142 707 l 190 783 q 250 706 215 756 q 322 595 285 657 q 394 465 358 533 q 459 331 431 397 q 503 210 488 265 l 511 210 q 556 334 528 267 q 621 469 585 401 q 694 600 657 538 q 765 710 732 663 q 824 783 799 758 l 943 783 q 814 621 876 714 q 698 423 751 528 q 603 210 644 318 q 539 0 563 101 l 475 0 z "},"d":{"ha":854,"x_min":76,"x_max":736,"o":"m 382 -14 q 160 83 243 -14 q 76 371 76 179 q 160 660 76 563 q 383 758 244 758 q 524 726 469 758 q 614 649 579 694 l 622 649 q 617 702 621 667 q 614 758 614 738 l 614 1056 l 736 1056 l 736 0 l 638 0 l 619 100 l 614 100 q 525 19 581 53 q 382 -14 469 -14 m 401 88 q 567 152 519 88 q 615 347 615 217 l 615 369 q 569 583 615 508 q 400 657 524 657 q 252 578 301 657 q 203 368 203 500 q 252 161 203 235 q 401 88 301 88 z "},"ℸ":{"ha":636,"x_min":3,"x_max":606,"o":"m 403 0 l 403 722 l 3 722 l 3 807 l 606 807 l 606 722 l 499 722 l 499 0 l 403 0 z "},"⊝":{"ha":1289,"x_min":71,"x_max":1218,"o":"m 644 -89 q 422 -44 526 -89 q 239 79 318 0 q 115 263 160 158 q 71 485 71 367 q 115 708 71 604 q 239 890 160 811 q 422 1014 318 969 q 644 1058 526 1058 q 867 1014 764 1058 q 1050 890 971 969 q 1174 708 1129 811 q 1218 485 1218 604 q 1174 263 1218 367 q 1050 79 1129 158 q 867 -44 971 0 q 644 -89 764 -89 m 644 -18 q 840 21 749 -18 q 1000 129 931 60 q 1108 290 1069 199 q 1147 485 1147 381 q 1108 680 1147 589 q 1000 840 1069 771 q 840 949 931 910 q 644 988 749 988 q 449 949 540 988 q 289 840 358 910 q 181 680 219 771 q 142 485 142 589 q 181 290 142 381 q 289 129 219 199 q 449 21 358 60 q 644 -18 540 -18 m 308 435 l 308 535 l 981 535 l 981 435 l 308 435 z "},"⇣":{"ha":606,"x_min":97,"x_max":508,"o":"m 265 836 l 265 990 l 340 990 l 340 836 l 265 836 m 265 608 l 265 761 l 340 761 l 340 608 l 265 608 m 265 381 l 265 533 l 340 533 l 340 381 l 265 381 m 288 -29 q 97 203 226 92 l 97 264 q 265 163 211 211 l 265 306 l 340 306 l 340 163 q 508 264 394 211 l 508 203 q 318 -29 379 92 l 288 -29 z "},"∬":{"ha":897,"x_min":7,"x_max":881,"o":"m 461 -335 q 367 -321 407 -335 l 367 -221 q 450 -237 408 -237 q 569 -79 569 -237 l 569 982 q 793 1229 569 1229 q 881 1217 850 1229 l 881 1115 q 803 1132 846 1132 q 688 974 688 1132 l 688 -87 q 461 -335 688 -335 m 101 -335 q 7 -321 47 -335 l 7 -221 q 90 -237 49 -237 q 210 -79 210 -237 l 210 982 q 433 1229 210 1229 q 521 1217 490 1229 l 521 1115 q 443 1132 483 1132 q 328 974 328 1132 l 328 -87 q 101 -335 328 -335 z "},"δ":{"ha":839,"x_min":75,"x_max":764,"o":"m 417 -14 q 240 22 318 -14 q 119 128 163 58 q 75 297 75 199 q 113 453 75 386 q 217 565 151 519 q 365 633 283 610 q 240 731 288 678 q 193 861 193 785 q 265 1006 193 957 q 443 1056 336 1056 q 607 1032 539 1056 q 729 981 675 1008 l 676 885 q 567 935 625 914 q 438 956 508 956 q 346 927 375 956 q 317 860 317 899 q 335 800 317 826 q 394 745 353 774 q 503 679 435 717 q 697 530 629 611 q 764 328 764 449 q 669 74 764 161 q 417 -14 574 -14 m 417 88 q 581 149 524 88 q 638 326 638 211 q 591 479 638 421 q 463 581 544 538 q 374 551 419 571 q 290 498 329 531 q 227 416 251 465 q 203 296 203 367 q 259 146 203 204 q 417 88 315 88 z "},"≜":{"ha":794,"x_min":71,"x_max":724,"o":"m 192 540 l 176 571 l 382 965 l 413 965 l 618 571 l 603 540 l 192 540 m 290 617 l 504 617 l 397 833 l 290 617 m 71 346 l 71 444 l 724 444 l 724 346 l 71 346 m 71 69 l 71 168 l 724 168 l 724 69 l 71 69 z "},"⋄":{"ha":818,"x_min":71,"x_max":747,"o":"m 410 151 l 71 490 l 410 828 l 747 490 l 410 151 m 410 289 l 611 490 l 410 692 l 208 490 l 410 289 z "},"̈":{"ha":0,"x_min":-196,"x_max":194,"o":"m -131 876 q -176 894 -157 876 q -196 946 -196 911 q -176 998 -196 982 q -131 1014 -157 1014 q -85 998 -104 1014 q -65 946 -65 982 q -85 894 -65 911 q -131 876 -104 876 m 129 876 q 84 894 103 876 q 65 946 65 911 q 84 998 65 982 q 129 1014 103 1014 q 175 998 156 1014 q 194 946 194 982 q 175 894 194 911 q 129 876 156 876 z "},"≏":{"ha":794,"x_min":71,"x_max":724,"o":"m 71 578 l 71 676 l 199 676 q 251 825 199 775 q 397 875 304 875 q 544 825 492 875 q 596 676 596 775 l 724 676 l 724 578 l 494 578 l 494 676 q 468 749 494 721 q 397 776 442 776 q 327 749 354 776 q 300 676 300 721 l 300 578 l 71 578 m 71 301 l 71 400 l 724 400 l 724 301 l 71 301 z "},"ⅆ":{"ha":804,"x_min":13,"x_max":892,"o":"m 214 -12 q 69 51 125 -12 q 13 242 13 115 q 36 424 13 333 q 106 591 60 515 q 220 712 151 667 q 378 757 289 757 q 497 719 450 757 q 560 625 544 681 l 651 1056 l 892 1056 l 667 0 l 426 0 l 457 140 q 346 28 403 68 q 214 -12 289 -12 m 514 68 l 607 68 l 801 982 l 710 982 l 514 68 m 218 60 q 340 103 283 60 q 438 214 396 146 q 502 359 479 282 q 525 506 525 436 q 512 591 525 550 q 465 658 499 632 q 369 685 432 685 q 358 684 364 685 q 344 682 351 683 l 218 60 m 147 75 l 271 661 q 181 572 224 632 q 113 428 139 513 q 86 239 86 344 q 103 134 86 175 q 147 75 119 93 z "},"÷":{"ha":794,"x_min":69,"x_max":724,"o":"m 396 642 q 341 662 364 642 q 318 726 318 682 q 341 792 318 774 q 396 810 364 810 q 450 792 428 810 q 472 726 472 774 q 450 662 472 682 q 396 642 428 642 m 69 440 l 69 539 l 724 539 l 724 440 l 69 440 m 396 168 q 341 188 364 168 q 318 253 318 208 q 341 318 318 300 q 396 336 364 336 q 450 318 428 336 q 472 253 472 300 q 450 188 472 208 q 396 168 428 168 z "},"⨸":{"ha":1289,"x_min":71,"x_max":1218,"o":"m 644 -89 q 422 -44 526 -89 q 239 79 318 0 q 115 263 160 158 q 71 485 71 367 q 115 708 71 604 q 239 890 160 811 q 422 1014 318 969 q 644 1058 526 1058 q 867 1014 764 1058 q 1050 890 971 969 q 1174 708 1129 811 q 1218 485 1218 604 q 1174 263 1218 367 q 1050 79 1129 158 q 867 -44 971 0 q 644 -89 764 -89 m 644 -18 q 840 21 749 -18 q 1000 129 931 60 q 1108 290 1069 199 q 1147 485 1147 381 q 1108 680 1147 589 q 1000 840 1069 771 q 840 949 931 910 q 644 988 749 988 q 449 949 540 988 q 289 840 358 910 q 181 680 219 771 q 142 485 142 589 q 181 290 142 381 q 289 129 219 199 q 449 21 358 60 q 644 -18 540 -18 m 644 638 q 585 662 610 638 q 561 721 561 686 q 585 778 561 753 q 644 804 608 804 q 703 780 679 804 q 728 721 728 756 q 702 661 728 685 q 644 638 676 638 m 318 435 l 318 533 l 971 533 l 971 435 l 318 435 m 644 164 q 585 189 610 164 q 561 247 561 214 q 585 306 561 282 q 644 331 610 331 q 702 307 676 331 q 728 247 728 283 q 703 188 728 213 q 644 164 679 164 z "},"∣":{"ha":240,"x_min":71,"x_max":169,"o":"m 71 -167 l 71 1056 l 169 1056 l 169 -167 l 71 -167 z "},"∕":{"ha":560,"x_min":71,"x_max":489,"o":"m 71 -168 l 390 1056 l 489 1056 l 169 -168 l 71 -168 z "},"⋇":{"ha":794,"x_min":71,"x_max":724,"o":"m 399 678 q 340 702 365 678 q 315 761 315 726 q 340 820 315 796 q 399 844 364 844 q 458 819 435 844 q 482 761 482 793 q 458 702 482 726 q 399 678 433 678 m 164 183 l 92 254 l 278 440 l 71 440 l 71 539 l 278 539 l 90 725 l 163 797 l 397 560 l 635 797 l 704 726 l 515 539 l 724 539 l 724 440 l 517 440 l 703 254 l 633 183 l 396 418 l 164 183 m 399 133 q 340 158 364 133 q 315 217 315 182 q 340 276 315 251 q 399 300 364 300 q 458 274 435 300 q 482 217 482 249 q 458 158 482 182 q 399 133 433 133 z "},"⫮":{"ha":599,"x_min":71,"x_max":528,"o":"m 244 -167 l 244 432 l 71 617 l 138 678 l 244 564 l 244 1056 l 343 1056 l 343 457 l 528 260 l 464 197 l 343 326 l 343 -167 l 244 -167 z "},"⋫":{"ha":794,"x_min":71,"x_max":724,"o":"m 218 92 l 133 128 l 188 269 l 71 228 l 71 751 l 335 654 l 453 961 l 538 925 l 421 624 l 724 513 l 724 465 l 301 311 l 218 92 m 164 356 l 229 376 l 304 575 l 164 624 l 164 356 m 342 414 l 560 488 l 392 546 l 342 414 z "},"⋭":{"ha":794,"x_min":71,"x_max":724,"o":"m 200 -103 l 114 -78 l 171 142 l 71 142 l 71 240 l 197 240 l 229 364 l 71 307 l 71 831 l 326 736 l 408 1049 l 494 1024 l 411 706 l 724 592 l 724 544 l 332 401 l 289 240 l 724 240 l 724 142 l 264 142 l 200 -103 m 164 435 l 256 465 l 306 654 l 164 703 l 164 435 m 357 499 l 560 567 l 390 625 l 357 499 z "},"∤":{"ha":599,"x_min":71,"x_max":528,"o":"m 135 197 l 71 260 l 256 457 l 256 1056 l 354 1056 l 354 564 l 461 678 l 528 617 l 354 432 l 354 -167 l 256 -167 l 256 326 l 135 197 z "},"⊮":{"ha":1161,"x_min":71,"x_max":1090,"o":"m 608 -12 l 524 24 l 686 442 l 433 442 l 433 36 l 335 36 l 335 944 l 433 944 l 433 540 l 724 540 l 901 996 l 986 960 l 824 540 l 1090 540 l 1090 442 l 785 442 l 608 -12 m 71 36 l 71 944 l 169 944 l 169 36 l 71 36 z "},"⋠":{"ha":753,"x_min":71,"x_max":682,"o":"m 336 -103 l 250 -78 l 322 201 q 188 257 250 236 q 71 288 125 278 l 71 386 q 347 294 206 361 l 386 446 q 71 542 226 514 l 71 606 q 287 661 189 629 q 461 732 385 693 l 544 1049 l 631 1024 l 569 793 q 682 886 633 836 l 682 774 q 619 717 656 744 q 536 665 583 690 l 493 500 q 682 376 603 447 l 682 254 q 585 336 639 299 q 469 407 532 374 l 429 254 q 571 165 507 211 q 682 69 635 119 l 682 -58 q 575 47 647 -10 q 404 160 503 104 l 336 -103 m 410 536 l 432 618 q 358 594 393 604 q 294 578 324 583 l 294 572 q 359 554 331 563 q 410 536 388 546 z "},"⊬":{"ha":1050,"x_min":71,"x_max":979,"o":"m 393 -14 l 308 22 l 471 442 l 169 442 l 169 36 l 71 36 l 71 944 l 169 944 l 169 540 l 510 540 l 686 994 l 771 958 l 608 540 l 979 540 l 979 442 l 569 442 l 393 -14 z "},"⋡":{"ha":753,"x_min":71,"x_max":682,"o":"m 285 -103 l 199 -78 l 244 97 q 142 18 185 57 q 71 -58 99 -21 l 71 69 q 278 228 149 150 l 331 429 q 71 254 165 351 l 71 376 q 361 543 190 482 l 375 599 q 197 676 278 631 q 71 774 115 722 l 71 886 q 399 686 185 764 l 493 1049 l 579 1024 l 483 656 q 682 606 582 625 l 682 542 q 435 474 553 518 l 386 285 q 540 349 465 324 q 682 386 614 374 l 682 288 q 528 246 610 276 q 354 164 446 215 l 285 -103 z "},"$":{"ha":794,"x_min":86,"x_max":717,"o":"m 351 -81 l 351 68 q 203 81 275 69 q 86 114 131 93 l 86 232 q 207 193 133 210 q 351 175 281 176 l 351 456 q 150 550 214 493 q 86 706 86 607 q 158 867 86 808 q 351 932 229 925 l 351 1054 l 440 1054 l 440 933 q 574 917 514 932 q 685 882 635 903 l 647 779 q 549 810 603 797 q 440 828 496 824 l 440 549 q 593 492 532 522 q 685 419 654 463 q 717 306 717 375 q 644 148 717 208 q 440 74 572 88 l 440 -81 l 351 -81 m 351 579 l 351 825 q 241 790 276 819 q 206 715 206 761 q 237 630 206 660 q 351 579 268 600 m 440 182 q 560 220 522 190 q 597 297 597 250 q 564 377 597 350 q 440 426 531 404 l 440 182 z "},"̇":{"ha":0,"x_min":-71,"x_max":72,"o":"m 1 868 q -50 888 -29 868 q -71 946 -71 907 q -50 1005 -71 986 q 1 1024 -29 1024 q 51 1005 29 1024 q 72 946 72 986 q 51 888 72 907 q 1 868 29 868 z "},"⋅":{"ha":308,"x_min":71,"x_max":238,"o":"m 154 406 q 95 431 119 406 q 71 489 71 456 q 95 548 71 524 q 154 572 119 572 q 212 549 186 572 q 238 489 238 525 q 213 430 238 454 q 154 406 189 406 z "},"∸":{"ha":794,"x_min":71,"x_max":724,"o":"m 397 643 q 338 667 363 643 q 314 726 314 692 q 338 785 314 761 q 397 810 363 810 q 456 785 432 810 q 481 726 481 761 q 456 667 481 692 q 397 643 432 643 m 71 440 l 71 539 l 724 539 l 724 440 l 71 440 z "},"∔":{"ha":794,"x_min":71,"x_max":724,"o":"m 396 883 q 339 906 360 883 q 318 968 318 929 q 339 1030 318 1008 q 396 1051 360 1051 q 452 1029 432 1051 q 472 968 472 1007 q 450 903 472 924 q 396 883 428 883 m 347 151 l 347 439 l 71 439 l 71 538 l 347 538 l 347 824 l 447 824 l 447 538 l 724 538 l 724 439 l 447 439 l 447 151 l 347 151 z "},"◌":{"ha":825,"x_min":67,"x_max":758,"o":"m 413 678 q 388 689 399 678 q 376 714 376 700 q 388 740 376 729 q 413 750 399 750 q 438 740 428 750 q 449 714 449 729 q 438 689 449 700 q 413 678 428 678 m 296 653 q 271 664 282 653 q 260 689 260 675 q 271 715 260 704 q 296 725 282 725 q 322 715 311 725 q 332 689 332 704 q 322 664 332 675 q 296 653 311 653 m 529 653 q 504 664 515 653 q 493 689 493 675 q 504 715 493 704 q 529 725 515 725 q 555 715 544 725 q 565 689 565 704 q 555 664 565 675 q 529 653 544 653 m 632 588 q 607 599 618 588 q 596 624 596 610 q 607 649 596 639 q 632 660 618 660 q 658 649 647 660 q 668 624 668 639 q 658 599 668 610 q 632 588 647 588 m 193 588 q 168 599 179 588 q 157 624 157 610 q 168 649 157 639 q 193 660 179 660 q 219 649 208 660 q 229 624 229 639 q 219 599 229 610 q 193 588 208 588 m 128 485 q 103 496 114 485 q 92 521 92 507 q 103 547 92 536 q 128 557 114 557 q 153 547 143 557 q 164 521 164 536 q 153 496 164 507 q 128 485 143 485 m 697 485 q 672 496 683 485 q 661 521 661 507 q 672 547 661 536 q 697 557 683 557 q 723 547 713 557 q 733 521 733 536 q 723 496 733 507 q 697 485 713 485 m 103 368 q 78 379 89 368 q 67 404 67 390 q 78 430 67 419 q 103 440 89 440 q 128 430 118 440 q 139 404 139 419 q 128 379 139 390 q 103 368 118 368 m 722 368 q 697 379 708 368 q 686 404 686 390 q 697 430 686 419 q 722 440 708 440 q 748 430 738 440 q 758 404 758 419 q 748 379 758 390 q 722 368 738 368 m 128 251 q 103 263 114 251 q 92 288 92 274 q 103 313 92 303 q 128 324 114 324 q 153 313 143 324 q 164 288 164 303 q 153 263 164 274 q 128 251 143 251 m 697 251 q 672 263 683 251 q 661 288 661 274 q 672 313 661 303 q 697 324 683 324 q 723 313 713 324 q 733 288 733 303 q 723 263 733 274 q 697 251 713 251 m 193 149 q 168 160 179 149 q 157 185 157 171 q 168 210 157 200 q 193 221 179 221 q 219 210 208 221 q 229 185 229 200 q 219 160 229 171 q 193 149 208 149 m 632 149 q 607 160 618 149 q 596 185 596 171 q 607 210 596 200 q 632 221 618 221 q 658 210 647 221 q 668 185 668 200 q 658 160 668 171 q 632 149 647 149 m 296 83 q 271 94 282 83 q 260 119 260 106 q 271 145 260 135 q 296 156 282 156 q 322 145 311 156 q 332 119 332 135 q 322 94 332 106 q 296 83 311 83 m 529 83 q 504 94 515 83 q 493 119 493 106 q 504 145 493 135 q 529 156 515 156 q 555 145 544 156 q 565 119 565 135 q 555 94 565 106 q 529 83 544 83 m 413 58 q 388 69 399 58 q 376 94 376 81 q 388 120 376 110 q 413 131 399 131 q 438 120 428 131 q 449 94 449 110 q 438 69 449 81 q 413 58 428 58 z "},"⦙":{"ha":311,"x_min":71,"x_max":240,"o":"m 156 838 q 97 863 122 838 q 71 922 71 888 q 96 982 71 957 q 156 1007 121 1007 q 216 981 192 1007 q 240 922 240 956 q 215 863 240 888 q 156 838 190 838 m 156 554 q 97 579 122 554 q 71 639 71 604 q 97 699 71 675 q 156 724 122 724 q 216 699 192 724 q 240 639 240 674 q 215 579 240 604 q 156 554 190 554 m 156 269 q 96 294 121 269 q 71 354 71 319 q 97 415 71 390 q 156 439 122 439 q 216 414 192 439 q 240 354 240 389 q 216 295 240 321 q 156 269 192 269 m 156 -14 q 97 11 122 -14 q 71 71 71 36 q 97 131 71 106 q 156 156 122 156 q 216 131 192 156 q 240 71 240 106 q 215 11 240 36 q 156 -14 190 -14 z "},"⩴":{"ha":1092,"x_min":71,"x_max":1021,"o":"m 154 544 q 95 569 119 544 q 71 628 71 593 q 95 687 71 663 q 154 711 119 711 q 213 687 189 711 q 238 628 238 663 q 213 569 238 593 q 154 544 189 544 m 389 544 q 330 569 354 544 q 306 628 306 593 q 330 687 306 663 q 389 711 354 711 q 448 687 424 711 q 472 628 472 663 q 448 569 472 593 q 389 544 424 544 m 549 578 l 549 676 l 1021 676 l 1021 578 l 549 578 m 154 267 q 95 291 119 267 q 71 350 71 315 q 95 409 71 385 q 154 433 119 433 q 213 409 189 433 q 238 350 238 385 q 213 291 238 315 q 154 267 189 267 m 389 267 q 330 291 354 267 q 306 350 306 315 q 330 409 306 385 q 389 433 354 433 q 448 409 424 433 q 472 350 472 385 q 448 291 472 315 q 389 267 424 267 m 549 301 l 549 400 l 1021 400 l 1021 301 l 549 301 z "},"⫪":{"ha":1050,"x_min":71,"x_max":979,"o":"m 314 36 l 314 846 l 71 846 l 71 944 l 979 944 l 979 846 l 736 846 l 736 36 l 638 36 l 638 846 l 413 846 l 413 36 l 314 36 z "},"⧟":{"ha":1269,"x_min":71,"x_max":1199,"o":"m 261 301 q 165 327 208 301 q 97 396 122 353 q 71 492 71 439 q 97 588 71 544 q 167 656 124 631 q 261 682 210 682 q 378 640 326 682 q 446 533 431 599 l 822 533 q 891 640 838 599 q 1008 682 944 682 q 1103 656 1060 682 q 1172 588 1146 631 q 1199 492 1199 544 q 1173 396 1199 439 q 1104 327 1147 353 q 1008 301 1061 301 q 890 344 943 301 q 822 450 838 386 l 446 450 q 378 343 431 385 q 261 301 326 301 m 261 389 q 334 419 304 389 q 364 492 364 449 q 334 565 364 535 q 261 594 304 594 q 188 565 218 594 q 158 492 158 535 q 188 419 158 449 q 261 389 218 389 m 1008 389 q 1081 419 1051 389 q 1111 492 1111 450 q 1081 564 1111 533 q 1008 594 1051 594 q 935 565 965 594 q 906 492 906 535 q 936 419 906 449 q 1008 389 967 389 z "},"⪚":{"ha":794,"x_min":71,"x_max":724,"o":"m 71 844 l 71 943 l 724 943 l 724 844 l 71 844 m 71 622 l 71 721 l 724 721 l 724 622 l 71 622 m 71 39 l 71 140 l 574 310 l 71 478 l 71 579 l 724 344 l 724 275 l 71 39 z "},"⪙":{"ha":794,"x_min":71,"x_max":724,"o":"m 71 844 l 71 943 l 724 943 l 724 844 l 71 844 m 71 622 l 71 721 l 724 721 l 724 622 l 71 622 m 724 39 l 71 275 l 71 344 l 724 579 l 724 478 l 221 310 l 724 140 l 724 39 z "},"⪜":{"ha":794,"x_min":71,"x_max":724,"o":"m 724 686 l 71 993 l 71 1101 l 724 794 l 724 686 m 724 421 l 71 728 l 71 836 l 724 529 l 724 421 m 71 -112 l 71 -4 l 579 229 l 71 463 l 71 571 l 724 264 l 724 194 l 71 -112 z "},"⪛":{"ha":794,"x_min":71,"x_max":724,"o":"m 71 686 l 71 794 l 724 1101 l 724 993 l 71 686 m 71 421 l 71 529 l 724 836 l 724 728 l 71 421 m 724 -112 l 71 194 l 71 264 l 724 571 l 724 463 l 215 229 l 724 -4 l 724 -112 z "},"⫺":{"ha":794,"x_min":71,"x_max":724,"o":"m 71 414 l 71 522 l 579 756 l 71 989 l 71 1097 l 724 790 l 724 721 l 71 414 m 71 149 l 71 257 l 724 564 l 724 456 l 71 149 m 71 -117 l 71 -8 l 724 299 l 724 190 l 71 -117 z "},"⫹":{"ha":794,"x_min":71,"x_max":724,"o":"m 724 414 l 71 721 l 71 790 l 724 1097 l 724 989 l 215 756 l 724 522 l 724 414 m 724 149 l 71 456 l 71 564 l 724 257 l 724 149 m 724 -117 l 71 190 l 71 299 l 724 -8 l 724 -117 z "},"⩓":{"ha":992,"x_min":71,"x_max":921,"o":"m 71 0 l 461 806 l 531 806 l 921 0 l 814 0 l 496 682 l 178 0 l 71 0 m 256 0 l 476 474 l 515 474 l 736 0 l 640 0 l 496 325 l 351 0 l 256 0 z "},"⩔":{"ha":992,"x_min":71,"x_max":921,"o":"m 461 0 l 71 806 l 178 806 l 496 124 l 814 806 l 921 806 l 531 0 l 461 0 m 476 332 l 256 806 l 351 806 l 496 481 l 640 806 l 736 806 l 515 332 l 476 332 z "},"⪢":{"ha":1108,"x_min":71,"x_max":1038,"o":"m 71 -39 l 71 69 l 892 468 l 71 871 l 71 978 l 1038 510 l 1038 426 l 71 -39 m 71 181 l 71 289 l 451 468 l 71 649 l 71 756 l 633 492 l 633 447 l 71 181 z "},"⪡":{"ha":1108,"x_min":71,"x_max":1038,"o":"m 1038 -39 l 71 426 l 71 510 l 1038 978 l 1038 871 l 217 468 l 1038 69 l 1038 -39 m 1038 181 l 475 447 l 475 492 l 1038 756 l 1038 649 l 657 468 l 1038 289 l 1038 181 z "},"⪣":{"ha":1213,"x_min":71,"x_max":1142,"o":"m 1142 217 l 515 538 l 515 607 l 1142 928 l 1142 819 l 660 572 l 1142 325 l 1142 217 m 697 217 l 71 538 l 71 607 l 697 928 l 697 819 l 215 572 l 697 325 l 697 217 m 72 51 l 72 150 l 1140 150 l 1140 51 l 72 51 z "},"⧺":{"ha":1033,"x_min":71,"x_max":963,"o":"m 347 153 l 347 439 l 71 439 l 71 538 l 347 538 l 347 825 l 447 825 l 447 538 l 586 538 l 586 825 l 686 825 l 686 538 l 963 538 l 963 439 l 686 439 l 686 153 l 586 153 l 586 439 l 447 439 l 447 153 l 347 153 z "},"⪻":{"ha":1168,"x_min":71,"x_max":1097,"o":"m 1097 129 q 913 270 1018 204 q 697 385 808 336 q 486 458 586 435 l 486 522 q 640 571 557 539 q 805 647 722 603 q 963 744 888 692 q 1097 851 1039 796 l 1097 732 q 1023 674 1071 707 q 916 605 975 640 q 796 540 857 569 q 682 493 735 510 l 682 488 q 788 444 731 472 q 904 383 846 417 q 1013 314 963 349 q 1097 249 1064 279 l 1097 129 m 682 129 q 497 270 603 204 q 281 386 392 336 q 71 458 169 436 l 71 522 q 223 571 142 539 q 388 647 304 603 q 547 743 471 690 q 682 851 622 796 l 682 732 q 610 674 657 707 q 503 605 563 640 q 383 540 444 569 q 267 493 321 510 l 267 488 q 373 444 315 472 q 489 383 431 417 q 597 315 547 350 q 682 249 647 279 l 682 129 z "},"⫽":{"ha":819,"x_min":71,"x_max":749,"o":"m 331 -168 l 650 1056 l 749 1056 l 429 -168 l 331 -168 m 71 -168 l 390 1056 l 489 1056 l 169 -168 l 71 -168 z "},"⩎":{"ha":1028,"x_min":71,"x_max":957,"o":"m 71 0 l 71 1007 l 957 1007 l 957 0 l 858 0 l 858 908 l 169 908 l 169 0 l 71 0 m 260 0 l 260 818 l 768 818 l 768 0 l 669 0 l 669 719 l 358 719 l 358 0 l 260 0 z "},"⩏":{"ha":1028,"x_min":71,"x_max":957,"o":"m 71 0 l 71 1007 l 169 1007 l 169 99 l 858 99 l 858 1007 l 957 1007 l 957 0 l 71 0 m 260 189 l 260 1007 l 358 1007 l 358 288 l 669 288 l 669 1007 l 768 1007 l 768 189 l 260 189 z "},"⫬":{"ha":794,"x_min":71,"x_max":724,"o":"m 625 251 l 625 344 l 71 344 l 71 443 l 625 443 l 625 514 l 71 514 l 71 613 l 724 613 l 724 251 l 625 251 z "},"⪼":{"ha":1168,"x_min":71,"x_max":1097,"o":"m 486 129 l 486 249 q 556 303 510 271 q 663 372 603 336 q 784 439 722 408 q 901 488 846 469 l 901 493 q 789 539 850 510 q 668 603 728 568 q 560 673 608 639 q 486 732 513 707 l 486 851 q 620 744 544 796 q 779 647 696 692 q 944 571 863 603 q 1097 522 1026 539 l 1097 458 q 886 385 997 435 q 670 270 775 336 q 486 129 565 204 m 71 129 l 71 249 q 144 308 96 274 q 253 377 193 342 q 375 442 314 413 q 486 488 436 472 l 486 493 q 376 538 436 508 q 256 602 315 567 q 147 672 196 638 q 71 732 99 707 l 71 851 q 207 743 131 796 q 366 647 283 690 q 530 571 449 603 q 682 522 611 539 l 682 458 q 472 385 583 435 q 256 270 361 336 q 71 129 151 204 z "},"⫫":{"ha":1050,"x_min":71,"x_max":979,"o":"m 71 36 l 71 135 l 314 135 l 314 944 l 413 944 l 413 135 l 638 135 l 638 944 l 736 944 l 736 135 l 979 135 l 979 36 l 71 36 z "},"⫥":{"ha":1161,"x_min":71,"x_max":1090,"o":"m 728 36 l 728 279 l 71 279 l 71 378 l 728 378 l 728 603 l 71 603 l 71 701 l 728 701 l 728 944 l 826 944 l 826 36 l 728 36 m 992 38 l 992 944 l 1090 944 l 1090 38 l 992 38 z "},"⫣":{"ha":1161,"x_min":71,"x_max":1090,"o":"m 728 36 l 728 443 l 71 443 l 71 542 l 728 542 l 728 944 l 826 944 l 826 36 l 728 36 m 992 36 l 992 944 l 1090 944 l 1090 36 l 992 36 z "},"⋒":{"ha":950,"x_min":71,"x_max":879,"o":"m 71 75 l 71 426 q 177 780 71 656 q 475 904 283 904 q 776 782 674 904 q 879 428 879 660 l 879 75 l 781 75 l 781 428 q 475 804 781 804 q 245 712 321 804 q 169 428 169 619 l 169 75 l 71 75 m 260 75 l 260 429 q 313 640 260 567 q 475 714 367 714 q 636 640 582 714 q 690 429 690 565 l 690 75 l 592 75 l 592 429 q 475 614 592 614 q 358 429 358 614 l 358 75 l 260 75 z "},"⦕":{"ha":1017,"x_min":71,"x_max":946,"o":"m 428 -136 q 363 -14 392 -76 q 313 114 335 49 l 71 3 l 71 111 l 286 208 q 258 446 258 326 q 290 701 258 574 l 71 808 l 71 917 l 317 792 q 442 1053 360 918 l 549 1053 q 400 750 450 913 l 533 683 q 689 1053 578 876 l 796 1053 q 621 639 663 865 l 946 475 l 946 406 l 619 256 q 778 -136 654 49 l 675 -136 q 532 215 569 44 l 396 153 q 531 -136 442 0 l 428 -136 m 374 247 l 514 310 q 506 446 506 383 q 508 519 506 482 q 515 592 510 556 l 378 658 q 361 556 367 610 q 356 446 356 503 q 360 344 356 393 q 374 247 364 294 m 607 351 l 815 446 l 607 547 q 603 446 603 497 q 607 351 603 397 z "},"‶":{"ha":611,"x_min":-36,"x_max":494,"o":"m 414 633 l 190 992 l 315 992 l 494 633 l 414 633 m 188 633 l -36 992 l 89 992 l 268 633 l 188 633 z "},"⦖":{"ha":1017,"x_min":71,"x_max":946,"o":"m 239 -136 q 340 53 300 -44 q 397 256 379 150 l 71 406 l 71 475 l 396 639 q 221 1053 354 868 l 328 1053 q 483 683 439 876 l 617 750 q 468 1053 567 913 l 575 1053 q 700 792 654 926 l 946 917 l 946 808 l 726 701 q 758 446 758 574 q 731 208 758 326 l 946 111 l 946 3 l 704 114 q 653 -14 682 49 q 589 -136 625 -76 l 486 -136 q 621 153 575 0 l 485 215 q 342 -136 447 44 l 239 -136 m 643 247 q 657 344 653 294 q 661 446 661 393 q 656 556 661 503 q 639 658 650 610 l 501 592 q 509 521 507 557 q 511 446 511 485 q 503 310 511 372 l 643 247 m 410 351 q 414 446 414 397 q 410 547 414 497 l 201 446 l 410 351 z "},"⋐":{"ha":971,"x_min":71,"x_max":900,"o":"m 547 86 q 192 190 313 86 q 71 490 71 293 q 195 790 71 685 q 547 894 319 894 l 900 894 l 900 796 l 547 796 q 171 490 171 796 q 547 185 171 185 l 900 185 l 900 86 l 547 86 m 546 275 q 334 329 407 275 q 261 490 261 383 q 334 651 261 597 q 546 706 407 706 l 900 706 l 900 607 l 546 607 q 361 490 361 607 q 406 402 361 431 q 546 374 451 374 l 900 374 l 900 275 l 546 275 z "},"⋑":{"ha":971,"x_min":71,"x_max":900,"o":"m 71 86 l 71 185 l 424 185 q 800 490 800 185 q 424 796 800 796 l 71 796 l 71 894 l 422 894 q 775 790 650 894 q 900 490 900 685 q 778 190 900 293 q 424 86 657 86 l 71 86 m 71 275 l 71 374 l 425 374 q 610 490 610 374 q 425 607 610 607 l 71 607 l 71 706 l 425 706 q 636 652 563 706 q 710 490 710 599 q 636 329 710 383 q 425 275 563 275 l 71 275 z "},"⋓":{"ha":950,"x_min":71,"x_max":879,"o":"m 475 75 q 176 200 282 75 q 71 553 71 325 l 71 904 l 169 904 l 169 551 q 245 267 169 360 q 475 175 321 175 q 781 551 781 175 l 781 904 l 879 904 l 879 551 q 776 197 879 318 q 475 75 674 75 m 475 265 q 313 339 367 265 q 260 550 260 413 l 260 904 l 358 904 l 358 550 q 475 365 358 365 q 592 550 592 365 l 592 904 l 690 904 l 690 550 q 636 338 690 411 q 475 265 582 265 z "},"⊫":{"ha":1161,"x_min":71,"x_max":1090,"o":"m 335 36 l 335 944 l 433 944 l 433 701 l 1090 701 l 1090 603 l 433 603 l 433 378 l 1090 378 l 1090 279 l 433 279 l 433 36 l 335 36 m 71 38 l 71 944 l 169 944 l 169 38 l 71 38 z "},"⃦":{"ha":0,"x_min":-204,"x_max":203,"o":"m 101 -335 l 101 1056 l 203 1056 l 203 -335 l 101 -335 m -204 -335 l -204 1056 l -103 1056 l -103 -335 l -204 -335 z "},"⇵":{"ha":1061,"x_min":97,"x_max":964,"o":"m 721 0 l 721 769 q 553 668 667 721 l 553 729 q 743 961 682 840 l 774 961 q 964 729 835 840 l 964 668 q 796 769 850 721 l 796 0 l 721 0 m 288 0 q 97 232 226 121 l 97 293 q 265 192 211 240 l 265 961 l 340 961 l 340 192 q 508 293 394 240 l 508 232 q 318 0 379 121 l 288 0 z "},"↓":{"ha":606,"x_min":97,"x_max":508,"o":"m 288 0 q 97 232 226 121 l 97 293 q 265 192 211 240 l 265 961 l 340 961 l 340 192 q 508 293 394 240 l 508 232 q 318 0 379 121 l 288 0 z "},"⤓":{"ha":572,"x_min":97,"x_max":508,"o":"m 97 -75 l 97 0 l 288 0 q 97 232 226 121 l 97 293 q 265 192 211 240 l 265 961 l 340 961 l 340 192 q 508 293 394 240 l 508 232 q 318 0 379 121 l 508 0 l 508 -75 l 97 -75 z "},"⤈":{"ha":606,"x_min":97,"x_max":508,"o":"m 288 0 q 97 232 226 121 l 97 293 q 265 192 211 240 l 265 511 l 97 511 l 97 586 l 265 586 l 265 961 l 340 961 l 340 586 l 508 586 l 508 511 l 340 511 l 340 192 q 508 293 394 240 l 508 232 q 318 0 379 121 l 288 0 z "},"⇃":{"ha":606,"x_min":97,"x_max":340,"o":"m 288 0 q 97 232 226 121 l 97 293 q 265 192 211 240 l 265 961 l 340 961 l 340 0 l 288 0 z "},"⇂":{"ha":606,"x_min":265,"x_max":508,"o":"m 265 0 l 265 961 l 340 961 l 340 192 q 508 293 394 240 l 508 232 q 318 0 379 121 l 265 0 z "},"⇓":{"ha":853,"x_min":97,"x_max":756,"o":"m 413 0 q 241 170 319 96 q 97 300 163 244 l 97 361 q 290 244 193 313 l 290 961 l 365 961 l 365 190 q 426 140 397 165 q 488 190 456 165 l 488 961 l 563 961 l 563 244 q 756 361 660 313 l 756 300 q 613 170 692 244 q 440 0 533 96 l 413 0 z "},"⇊":{"ha":1061,"x_min":97,"x_max":964,"o":"m 288 0 q 97 232 226 121 l 97 293 q 265 192 211 240 l 265 961 l 340 961 l 340 192 q 508 293 394 240 l 508 232 q 318 0 379 121 l 288 0 m 743 0 q 553 232 682 121 l 553 293 q 721 192 667 240 l 721 961 l 796 961 l 796 192 q 964 293 850 240 l 964 232 q 774 0 835 121 l 743 0 z "},"⥿":{"ha":881,"x_min":125,"x_max":756,"o":"m 296 63 q 169 114 214 63 q 125 263 125 165 l 125 365 l 200 365 l 200 263 q 299 139 200 139 q 403 260 403 139 l 403 896 l 478 896 l 478 260 q 582 139 478 139 q 681 263 681 139 l 681 365 l 756 365 l 756 263 q 711 114 756 165 q 585 63 667 63 q 440 135 478 63 q 296 63 403 63 z "},"↧":{"ha":606,"x_min":97,"x_max":508,"o":"m 288 0 q 97 232 226 121 l 97 293 q 265 192 211 240 l 265 886 l 97 886 l 97 961 l 508 961 l 508 886 l 340 886 l 340 192 q 508 293 394 240 l 508 232 q 318 0 379 121 l 288 0 z "},"⥥":{"ha":919,"x_min":97,"x_max":822,"o":"m 288 0 q 97 232 226 121 l 97 293 q 265 192 211 240 l 265 961 l 340 961 l 340 0 l 288 0 m 579 0 l 579 961 l 654 961 l 654 192 q 822 293 708 240 l 822 232 q 632 0 693 121 l 579 0 z "},"⥯":{"ha":919,"x_min":97,"x_max":822,"o":"m 579 0 l 579 961 l 632 961 q 822 729 693 840 l 822 668 q 654 769 708 721 l 654 0 l 579 0 m 288 0 q 97 232 226 121 l 97 293 q 265 192 211 240 l 265 961 l 340 961 l 340 0 l 288 0 z "},"⥡":{"ha":606,"x_min":97,"x_max":508,"o":"m 288 0 q 97 232 226 121 l 97 293 q 265 192 211 240 l 265 886 l 97 886 l 97 961 l 508 961 l 508 886 l 340 886 l 340 0 l 288 0 z "},"⥙":{"ha":606,"x_min":97,"x_max":508,"o":"m 97 -75 l 97 0 l 288 0 q 97 232 226 121 l 97 293 q 265 192 211 240 l 265 961 l 340 961 l 340 0 l 508 0 l 508 -75 l 97 -75 z "},"⥝":{"ha":694,"x_min":97,"x_max":508,"o":"m 265 0 l 265 886 l 97 886 l 97 961 l 508 961 l 508 886 l 340 886 l 340 192 q 508 293 394 240 l 508 232 q 318 0 379 121 l 265 0 z "},"⥕":{"ha":606,"x_min":97,"x_max":508,"o":"m 97 -75 l 97 0 l 265 0 l 265 961 l 340 961 l 340 192 q 508 293 394 240 l 508 232 q 318 0 379 121 l 508 0 l 508 -75 l 97 -75 z "},"⟱":{"ha":1028,"x_min":71,"x_max":957,"o":"m 500 0 q 290 153 399 78 q 71 303 182 229 l 71 365 q 145 337 104 354 q 231 299 186 319 l 231 961 l 306 961 l 306 263 q 394 218 351 240 l 394 961 l 469 961 l 469 176 q 514 149 493 161 q 558 176 535 161 l 558 961 l 633 961 l 633 218 q 722 263 676 240 l 722 961 l 797 961 l 797 299 q 883 337 842 319 q 957 365 924 354 l 957 303 q 739 153 847 229 q 528 0 631 78 l 500 0 z "},"⫱":{"ha":532,"x_min":71,"x_max":461,"o":"m 267 -42 q 172 -16 215 -42 q 102 53 128 10 q 76 149 76 97 q 119 268 76 215 q 225 335 161 321 l 225 904 l 71 904 l 71 988 l 461 988 l 461 904 l 308 904 l 308 335 q 415 269 374 321 q 457 150 457 217 q 431 55 457 99 q 363 -15 406 11 q 267 -42 319 -42 m 267 46 q 338 76 307 46 q 369 149 369 106 q 339 222 369 192 q 267 251 308 251 q 194 220 224 251 q 164 149 164 189 q 194 76 164 106 q 267 46 224 46 z "},"⤶":{"ha":969,"x_min":71,"x_max":899,"o":"m 303 104 q 71 294 192 233 l 71 325 q 303 515 192 386 l 364 515 q 263 347 311 401 l 672 347 q 751 353 717 347 q 804 381 785 360 q 824 447 824 403 l 824 854 l 899 854 l 899 447 q 869 340 899 378 q 792 287 840 301 q 685 272 743 272 l 263 272 q 364 104 311 218 l 303 104 z "},"⤷":{"ha":969,"x_min":71,"x_max":899,"o":"m 285 272 q 178 287 226 272 q 100 340 129 301 q 71 447 71 378 l 71 854 l 146 854 l 146 447 q 165 381 146 403 q 219 353 185 360 q 297 347 253 347 l 707 347 q 606 515 658 401 l 667 515 q 899 325 778 386 l 899 294 q 667 104 778 233 l 606 104 q 707 272 658 218 l 285 272 z "},"↲":{"ha":839,"x_min":160,"x_max":679,"o":"m 392 0 q 160 190 281 129 l 160 221 q 392 411 281 282 l 453 411 q 351 243 400 297 l 604 243 l 604 961 l 679 961 l 679 168 l 351 168 q 453 0 400 114 l 392 0 z "},"↳":{"ha":839,"x_min":160,"x_max":679,"o":"m 160 168 l 160 961 l 235 961 l 235 243 l 488 243 q 386 411 439 297 l 447 411 q 679 221 558 282 l 679 190 q 447 0 558 129 l 386 0 q 488 168 439 114 l 160 168 z "},"⧨":{"ha":1317,"x_min":71,"x_max":1246,"o":"m 658 -4 l 71 992 l 1246 992 l 658 -4 m 658 228 l 1046 893 l 658 893 l 658 228 z "},"⧩":{"ha":1317,"x_min":71,"x_max":1246,"o":"m 658 -4 l 71 992 l 1246 992 l 658 -4 m 658 228 l 658 893 l 271 893 l 658 228 z "},"⤋":{"ha":1011,"x_min":97,"x_max":914,"o":"m 492 0 q 299 152 397 76 q 97 303 200 228 l 97 365 q 181 329 133 351 q 279 279 228 307 l 279 961 l 354 961 l 354 239 q 468 168 417 203 l 468 961 l 543 961 l 543 168 q 657 239 594 203 l 657 961 l 732 961 l 732 279 q 831 329 783 307 q 914 365 878 351 l 914 303 q 713 152 813 228 q 519 0 614 76 l 492 0 z "},"↡":{"ha":606,"x_min":97,"x_max":508,"o":"m 288 -69 q 97 163 226 51 l 97 224 q 265 122 211 171 l 265 181 q 97 372 206 281 l 97 433 q 265 332 211 381 l 265 1031 l 340 1031 l 340 332 q 508 433 394 381 l 508 372 q 340 181 400 281 l 340 122 q 508 224 394 171 l 508 163 q 318 -69 379 51 l 288 -69 z "},"▽":{"ha":1260,"x_min":71,"x_max":1189,"o":"m 631 0 l 71 968 l 1189 968 l 631 0 m 631 199 l 1017 868 l 243 868 l 631 199 z "},"⋱":{"ha":1161,"x_min":71,"x_max":1090,"o":"m 154 831 q 95 856 119 831 q 71 914 71 881 q 95 973 71 949 q 154 997 119 997 q 213 974 189 997 q 238 914 238 950 q 213 855 238 879 q 154 831 189 831 m 581 406 q 522 430 546 406 q 497 489 497 454 q 522 549 497 525 q 581 572 547 572 q 638 549 613 572 q 664 489 664 525 q 640 430 664 454 q 581 406 615 406 m 1007 -14 q 948 10 972 -14 q 924 69 924 35 q 948 128 924 104 q 1007 153 972 153 q 1067 127 1043 153 q 1090 69 1090 101 q 1066 10 1090 35 q 1007 -14 1042 -14 z "},"e":{"ha":783,"x_min":76,"x_max":713,"o":"m 435 -14 q 248 29 329 -14 q 122 158 167 72 q 76 367 76 243 q 117 576 76 489 q 233 711 158 664 q 406 758 307 758 q 570 717 501 758 q 676 599 639 675 q 713 422 713 524 l 713 349 l 203 349 q 267 156 206 222 q 440 90 329 90 q 566 103 511 90 q 679 142 621 117 l 679 35 q 567 -2 622 10 q 435 -14 511 -14 m 206 446 l 585 446 q 541 599 585 540 q 404 658 497 658 q 266 602 317 658 q 206 446 215 546 z "},"ⅇ":{"ha":693,"x_min":13,"x_max":694,"o":"m 322 -14 q 92 62 171 -14 q 13 267 13 138 q 42 442 13 356 q 128 601 71 529 q 269 715 186 672 q 461 758 353 758 q 628 717 561 758 q 694 589 694 675 q 595 428 694 497 q 276 339 496 358 l 222 75 q 329 61 265 61 q 457 79 392 61 q 585 128 522 97 l 578 40 q 456 0 518 14 q 322 -14 393 -14 m 292 414 q 367 423 331 417 q 435 436 403 429 l 486 682 q 474 683 481 683 q 461 683 468 683 q 399 678 429 683 q 342 661 369 672 l 292 414 m 513 463 q 591 516 563 485 q 619 590 619 547 q 554 669 619 644 l 513 463 m 157 108 l 263 618 q 138 467 183 561 q 93 274 93 374 q 108 178 93 219 q 157 108 124 136 z "},"∈":{"ha":971,"x_min":71,"x_max":900,"o":"m 547 85 q 193 188 315 85 q 71 489 71 290 q 192 790 71 688 q 547 893 313 893 l 900 893 l 900 794 l 531 794 q 174 539 204 794 l 900 539 l 900 440 l 174 440 q 279 249 188 314 q 531 183 371 183 l 900 183 l 900 85 l 547 85 z "},"⫙":{"ha":811,"x_min":71,"x_max":740,"o":"m 71 85 l 71 538 q 151 863 71 765 q 406 961 231 961 q 660 863 581 961 q 740 538 740 765 l 740 85 l 642 85 l 642 565 q 597 781 642 713 q 454 861 551 850 l 454 85 l 356 85 l 356 861 q 215 781 260 849 q 169 565 169 713 l 169 85 l 71 85 z "},"⟒":{"ha":888,"x_min":71,"x_max":740,"o":"m 406 85 q 151 183 231 85 q 71 508 71 281 l 71 961 l 169 961 l 169 481 q 215 265 169 333 q 356 185 260 197 l 356 961 l 454 961 l 454 185 q 597 265 551 196 q 642 481 642 333 l 642 961 l 740 961 l 740 508 q 660 183 740 281 q 406 85 581 85 z "},"∊":{"ha":772,"x_min":71,"x_max":701,"o":"m 428 185 q 162 263 253 185 q 71 489 71 340 q 163 717 71 640 q 428 794 256 794 l 701 794 l 701 696 l 428 696 q 167 539 194 696 l 701 539 l 701 440 l 167 440 q 428 283 192 283 l 701 283 l 701 185 l 428 185 z "},"⋵":{"ha":971,"x_min":71,"x_max":900,"o":"m 594 967 q 536 991 561 967 q 511 1050 511 1015 q 535 1109 511 1085 q 594 1133 560 1133 q 654 1109 631 1133 q 678 1050 678 1085 q 653 991 678 1015 q 594 967 628 967 m 547 85 q 193 188 315 85 q 71 489 71 290 q 192 790 71 688 q 547 893 313 893 l 900 893 l 900 794 l 531 794 q 174 539 204 794 l 900 539 l 900 440 l 174 440 q 279 249 188 314 q 531 183 371 183 l 900 183 l 900 85 l 547 85 z "},"⋲":{"ha":1133,"x_min":71,"x_max":1063,"o":"m 71 440 l 71 539 l 235 539 q 370 803 250 714 q 710 893 490 893 l 1063 893 l 1063 794 l 693 794 q 336 539 367 794 l 1063 539 l 1063 440 l 336 440 q 442 249 350 314 q 693 183 533 183 l 1063 183 l 1063 85 l 710 85 q 371 175 492 85 q 235 440 250 265 l 71 440 z "},"⋶":{"ha":971,"x_min":71,"x_max":900,"o":"m 126 1018 l 126 1117 l 900 1117 l 900 1018 l 126 1018 m 547 85 q 193 188 315 85 q 71 489 71 290 q 192 790 71 688 q 547 893 313 893 l 900 893 l 900 794 l 531 794 q 174 539 204 794 l 900 539 l 900 440 l 174 440 q 279 249 188 314 q 531 183 371 183 l 900 183 l 900 85 l 547 85 z "},"⋹":{"ha":971,"x_min":71,"x_max":900,"o":"m 547 85 q 193 188 315 85 q 71 489 71 290 q 192 790 71 688 q 547 893 313 893 l 900 893 l 900 794 l 531 794 q 211 657 294 794 l 900 657 l 900 558 l 176 558 q 171 489 171 526 q 176 421 171 453 l 900 421 l 900 322 l 211 322 q 531 183 294 183 l 900 183 l 900 85 l 547 85 z "},"⋸":{"ha":971,"x_min":71,"x_max":900,"o":"m 547 85 q 193 188 315 85 q 71 489 71 290 q 192 790 71 688 q 547 893 313 893 l 900 893 l 900 794 l 531 794 q 174 539 204 794 l 900 539 l 900 440 l 174 440 q 279 249 188 314 q 531 183 371 183 l 900 183 l 900 85 l 547 85 m 126 -137 l 126 -39 l 900 -39 l 900 -137 l 126 -137 z "},"⋳":{"ha":971,"x_min":71,"x_max":900,"o":"m 547 85 q 193 188 315 85 q 71 489 71 290 q 192 790 71 688 q 547 893 313 893 l 900 893 l 900 794 l 531 794 q 174 539 204 794 l 804 539 l 804 683 l 900 683 l 900 297 l 804 297 l 804 440 l 174 440 q 279 249 188 314 q 531 183 371 183 l 900 183 l 900 85 l 547 85 z "},"⋮":{"ha":308,"x_min":71,"x_max":238,"o":"m 154 831 q 95 856 119 831 q 71 914 71 881 q 95 973 71 949 q 154 997 119 997 q 213 974 189 997 q 238 914 238 950 q 213 855 238 879 q 154 831 189 831 m 154 406 q 95 431 119 406 q 71 489 71 456 q 95 548 71 524 q 154 572 119 572 q 212 549 186 572 q 238 489 238 525 q 213 430 238 454 q 154 406 189 406 m 154 -14 q 95 11 119 -14 q 71 69 71 36 q 94 127 71 101 q 154 153 118 153 q 213 128 189 153 q 238 69 238 104 q 213 10 238 35 q 154 -14 189 -14 z "},"⦴":{"ha":1164,"x_min":71,"x_max":1093,"o":"m 456 1053 l 253 1206 l 456 1358 l 446 1253 l 911 1253 l 911 1160 l 446 1160 l 456 1053 m 133 -15 l 71 47 l 192 168 q 104 318 136 235 q 72 496 72 401 q 112 694 72 601 q 222 856 151 786 q 384 966 292 926 q 582 1006 476 1006 q 760 974 676 1006 q 910 886 843 942 l 1031 1007 l 1093 944 l 972 824 q 1060 674 1028 757 q 1092 496 1092 590 q 1052 298 1092 390 q 942 135 1013 206 q 778 26 871 65 q 582 -14 686 -14 q 404 18 488 -14 q 254 106 321 50 l 133 -15 m 172 496 q 197 357 172 422 q 263 239 221 292 l 839 815 q 721 881 786 857 q 582 906 656 906 q 423 874 497 906 q 292 785 349 842 q 204 655 236 729 q 172 496 172 581 m 582 86 q 741 118 667 86 q 872 206 815 150 q 960 337 928 263 q 992 496 992 411 q 967 635 992 569 q 901 753 943 700 l 325 176 q 443 110 378 135 q 582 86 508 86 z "},"⦱":{"ha":1164,"x_min":71,"x_max":1093,"o":"m 222 1138 l 222 1231 l 942 1231 l 942 1138 l 222 1138 m 133 -15 l 71 47 l 192 168 q 104 318 136 235 q 72 496 72 401 q 112 694 72 601 q 222 856 151 786 q 384 966 292 926 q 582 1006 476 1006 q 760 974 676 1006 q 910 886 843 942 l 1031 1007 l 1093 944 l 972 824 q 1060 674 1028 757 q 1092 496 1092 590 q 1052 298 1092 390 q 942 135 1013 206 q 778 26 871 65 q 582 -14 686 -14 q 404 18 488 -14 q 254 106 321 50 l 133 -15 m 172 496 q 197 357 172 422 q 263 239 221 292 l 839 815 q 721 881 786 857 q 582 906 656 906 q 423 874 497 906 q 292 785 349 842 q 204 655 236 729 q 172 496 172 581 m 582 86 q 741 118 667 86 q 872 206 815 150 q 960 337 928 263 q 992 496 992 411 q 967 635 992 569 q 901 753 943 700 l 325 176 q 443 110 378 135 q 582 86 508 86 z "},"⦳":{"ha":1164,"x_min":71,"x_max":1093,"o":"m 708 1053 l 718 1160 l 253 1160 l 253 1253 l 718 1253 l 708 1358 l 911 1206 l 708 1053 m 133 -15 l 71 47 l 192 168 q 104 318 136 235 q 72 496 72 401 q 112 694 72 601 q 222 856 151 786 q 384 966 292 926 q 582 1006 476 1006 q 760 974 676 1006 q 910 886 843 942 l 1031 1007 l 1093 944 l 972 824 q 1060 674 1028 757 q 1092 496 1092 590 q 1052 298 1092 390 q 942 135 1013 206 q 778 26 871 65 q 582 -14 686 -14 q 404 18 488 -14 q 254 106 321 50 l 133 -15 m 172 496 q 197 357 172 422 q 263 239 221 292 l 839 815 q 721 881 786 857 q 582 906 656 906 q 423 874 497 906 q 292 785 349 842 q 204 655 236 729 q 172 496 172 581 m 582 86 q 741 118 667 86 q 872 206 815 150 q 960 337 928 263 q 992 496 992 411 q 967 635 992 569 q 901 753 943 700 l 325 176 q 443 110 378 135 q 582 86 508 86 z "},"∅":{"ha":1164,"x_min":71,"x_max":1093,"o":"m 133 -15 l 71 47 l 192 168 q 104 318 136 235 q 72 496 72 401 q 112 694 72 601 q 222 856 151 786 q 384 966 292 926 q 582 1006 476 1006 q 760 974 676 1006 q 910 886 843 942 l 1031 1007 l 1093 944 l 972 824 q 1060 674 1028 757 q 1092 496 1092 590 q 1052 298 1092 390 q 942 135 1013 206 q 778 26 871 65 q 582 -14 686 -14 q 404 18 488 -14 q 254 106 321 50 l 133 -15 m 172 496 q 197 357 172 422 q 263 239 221 292 l 839 815 q 721 881 786 857 q 582 906 656 906 q 423 874 497 906 q 292 785 349 842 q 204 655 236 729 q 172 496 172 581 m 582 86 q 741 118 667 86 q 872 206 815 150 q 960 337 928 263 q 992 496 992 411 q 967 635 992 569 q 901 753 943 700 l 325 176 q 443 110 378 135 q 582 86 508 86 z "},"⦲":{"ha":1164,"x_min":71,"x_max":1093,"o":"m 582 1056 q 478 1098 521 1056 q 435 1203 435 1140 q 477 1307 435 1264 q 582 1350 519 1350 q 687 1307 644 1350 q 729 1203 729 1264 q 687 1099 729 1142 q 582 1056 644 1056 m 582 1125 q 637 1148 614 1125 q 660 1203 660 1171 q 637 1258 660 1235 q 582 1281 614 1281 q 528 1258 551 1281 q 504 1203 504 1236 q 528 1147 504 1169 q 582 1125 551 1125 m 133 -15 l 71 47 l 192 168 q 104 318 136 235 q 72 496 72 401 q 112 694 72 601 q 222 856 151 786 q 384 966 292 926 q 582 1006 476 1006 q 760 974 676 1006 q 910 886 843 942 l 1031 1007 l 1093 944 l 972 824 q 1060 674 1028 757 q 1092 496 1092 590 q 1052 298 1092 390 q 942 135 1013 206 q 778 26 871 65 q 582 -14 686 -14 q 404 18 488 -14 q 254 106 321 50 l 133 -15 m 172 496 q 197 357 172 422 q 263 239 221 292 l 839 815 q 721 881 786 857 q 582 906 656 906 q 423 874 497 906 q 292 785 349 842 q 204 655 236 729 q 172 496 172 581 m 582 86 q 741 118 667 86 q 872 206 815 150 q 960 337 928 263 q 992 496 992 411 q 967 635 992 569 q 901 753 943 700 l 325 176 q 443 110 378 135 q 582 86 508 86 z "},"∎":{"ha":775,"x_min":71,"x_max":704,"o":"m 71 0 l 71 933 l 704 933 l 704 0 l 71 0 z "},"ε":{"ha":671,"x_min":60,"x_max":624,"o":"m 372 -14 q 136 48 213 -14 q 60 203 60 110 q 83 294 60 258 q 143 351 106 329 q 225 385 181 372 l 225 392 q 124 452 163 411 q 86 561 86 493 q 166 707 86 656 q 372 758 246 758 q 510 744 453 758 q 624 706 568 731 l 578 608 q 484 643 532 629 q 371 657 436 657 q 203 551 203 657 q 260 464 203 490 q 415 438 318 438 l 493 438 l 493 338 l 392 338 q 182 210 182 338 q 239 114 182 142 q 379 86 296 86 q 516 104 457 86 q 621 144 575 122 l 621 38 q 518 1 578 15 q 372 -14 458 -14 z "},"ϵ":{"ha":688,"x_min":76,"x_max":640,"o":"m 431 -14 q 248 26 328 -14 q 122 150 168 65 q 76 368 76 235 q 124 593 76 507 q 252 719 171 679 q 435 758 333 758 q 547 747 492 758 q 640 718 601 736 l 604 618 q 519 643 565 633 q 432 653 472 653 q 269 599 325 653 q 203 433 214 544 l 568 433 l 568 333 l 201 333 q 264 150 208 210 q 428 90 319 90 q 539 103 490 90 q 629 132 588 115 l 629 26 q 543 -3 590 7 q 431 -14 496 -14 z "},"=":{"ha":794,"x_min":79,"x_max":715,"o":"m 79 578 l 79 676 l 715 676 l 715 578 l 79 578 m 79 301 l 79 400 l 715 400 l 715 301 l 79 301 z "},"⋕":{"ha":833,"x_min":71,"x_max":763,"o":"m 238 0 l 238 332 l 71 332 l 71 428 l 238 428 l 238 628 l 71 628 l 71 724 l 238 724 l 238 1056 l 336 1056 l 336 724 l 497 724 l 497 1056 l 596 1056 l 596 724 l 763 724 l 763 628 l 596 628 l 596 428 l 763 428 l 763 332 l 596 332 l 596 0 l 497 0 l 497 332 l 336 332 l 336 0 l 238 0 m 336 428 l 497 428 l 497 628 l 336 628 l 336 428 z "},"⊜":{"ha":1289,"x_min":71,"x_max":1218,"o":"m 644 -89 q 422 -44 526 -89 q 239 79 318 0 q 115 263 160 158 q 71 485 71 367 q 115 708 71 604 q 239 890 160 811 q 422 1014 318 969 q 644 1058 526 1058 q 867 1014 764 1058 q 1050 890 971 969 q 1174 708 1129 811 q 1218 485 1218 604 q 1174 263 1218 367 q 1050 79 1129 158 q 867 -44 971 0 q 644 -89 764 -89 m 644 -18 q 840 21 749 -18 q 1000 129 931 60 q 1108 290 1069 199 q 1147 485 1147 381 q 1108 680 1147 589 q 1000 840 1069 771 q 840 949 931 910 q 644 988 749 988 q 449 949 540 988 q 289 840 358 910 q 181 680 219 771 q 142 485 142 589 q 181 290 142 381 q 289 129 219 199 q 449 21 358 60 q 644 -18 540 -18 m 308 557 l 308 657 l 981 657 l 981 557 l 308 557 m 308 313 l 308 413 l 981 413 l 981 313 l 308 313 z "},"⭀":{"ha":1103,"x_min":71,"x_max":1032,"o":"m 493 771 l 493 846 l 897 846 l 897 771 l 493 771 m 303 274 q 71 464 192 403 l 71 494 q 303 685 192 556 l 364 685 q 263 517 311 571 l 1032 517 l 1032 442 l 263 442 q 364 274 311 388 l 303 274 m 493 610 l 493 685 l 897 685 l 897 610 l 493 610 z "},"⩱":{"ha":794,"x_min":71,"x_max":724,"o":"m 71 918 l 71 1017 l 724 1017 l 724 918 l 71 918 m 71 696 l 71 794 l 724 794 l 724 696 l 71 696 m 71 250 l 71 349 l 347 349 l 347 636 l 447 636 l 447 349 l 724 349 l 724 250 l 447 250 l 447 -36 l 347 -36 l 347 250 l 71 250 z "},"⥱":{"ha":1103,"x_min":71,"x_max":1032,"o":"m 206 771 l 206 846 l 610 846 l 610 771 l 206 771 m 71 442 l 71 517 l 840 517 q 739 685 792 571 l 800 685 q 1032 494 911 556 l 1032 464 q 800 274 911 403 l 739 274 q 840 442 792 388 l 71 442 m 206 610 l 206 685 l 610 685 l 610 610 l 206 610 z "},"⩳":{"ha":794,"x_min":71,"x_max":724,"o":"m 71 710 l 71 808 l 724 808 l 724 710 l 71 710 m 71 488 l 71 586 l 724 586 l 724 488 l 71 488 m 71 219 l 71 326 q 238 401 140 401 q 413 360 324 401 q 567 319 501 319 q 642 340 600 319 q 724 401 683 361 l 724 293 q 558 219 654 219 q 383 261 474 219 q 231 301 294 301 q 152 281 194 301 q 71 219 110 260 z "},"⧣":{"ha":957,"x_min":71,"x_max":886,"o":"m 71 0 l 225 301 l 72 301 l 72 400 l 276 400 l 368 578 l 72 578 l 72 676 l 418 676 l 581 992 l 667 992 l 504 676 l 638 676 l 800 992 l 886 992 l 724 676 l 885 676 l 885 578 l 674 578 l 582 400 l 885 400 l 885 301 l 531 301 l 376 0 l 290 0 l 444 301 l 311 301 l 157 0 l 71 0 m 363 400 l 496 400 l 588 578 l 454 578 l 363 400 z "},"⧤":{"ha":957,"x_min":71,"x_max":886,"o":"m 225 1051 q 273 1181 233 1133 q 378 1229 313 1229 q 492 1189 424 1229 q 589 1150 557 1150 q 638 1170 621 1150 q 665 1231 656 1190 l 735 1231 q 687 1100 726 1147 q 583 1053 647 1053 q 471 1093 540 1053 q 372 1132 406 1132 q 322 1112 338 1132 q 296 1051 306 1092 l 225 1051 m 71 0 l 225 301 l 72 301 l 72 400 l 276 400 l 368 578 l 72 578 l 72 676 l 418 676 l 581 992 l 667 992 l 504 676 l 638 676 l 800 992 l 886 992 l 724 676 l 885 676 l 885 578 l 674 578 l 582 400 l 885 400 l 885 301 l 531 301 l 376 0 l 290 0 l 444 301 l 311 301 l 157 0 l 71 0 m 363 400 l 496 400 l 588 578 l 454 578 l 363 400 z "},"⪮":{"ha":794,"x_min":71,"x_max":724,"o":"m 71 682 l 71 781 l 199 781 q 251 929 199 879 q 397 979 304 979 q 544 929 492 979 q 596 781 596 879 l 724 781 l 724 682 l 494 682 l 494 781 q 468 853 494 825 q 397 881 442 881 q 327 853 354 881 q 300 781 300 825 l 300 682 l 71 682 m 71 440 l 71 539 l 724 539 l 724 440 l 71 440 m 71 199 l 71 297 l 724 297 l 724 199 l 71 199 z "},"⩦":{"ha":794,"x_min":71,"x_max":724,"o":"m 71 578 l 71 676 l 724 676 l 724 578 l 71 578 m 71 301 l 71 400 l 724 400 l 724 301 l 71 301 m 397 31 q 338 55 363 31 q 314 114 314 79 q 338 173 314 149 q 397 197 363 197 q 456 173 432 197 q 481 114 481 149 q 456 55 481 79 q 397 31 432 31 z "},"⩷":{"ha":794,"x_min":71,"x_max":724,"o":"m 265 781 q 206 805 231 781 q 182 864 182 829 q 206 923 182 899 q 265 947 231 947 q 324 923 300 947 q 349 864 349 899 q 324 805 349 829 q 265 781 300 781 m 529 781 q 470 805 494 781 q 446 864 446 829 q 470 923 446 899 q 529 947 494 947 q 588 923 564 947 q 613 864 613 899 q 588 805 613 829 q 529 781 564 781 m 71 578 l 71 676 l 724 676 l 724 578 l 71 578 m 71 301 l 71 400 l 724 400 l 724 301 l 71 301 m 265 31 q 206 55 231 31 q 182 114 182 79 q 206 173 182 149 q 265 197 231 197 q 324 173 300 197 q 349 114 349 149 q 324 55 349 79 q 265 31 300 31 m 529 31 q 470 55 494 31 q 446 114 446 79 q 470 173 446 149 q 529 197 494 197 q 588 173 564 197 q 613 114 613 149 q 588 55 613 79 q 529 31 564 31 z "},"⩮":{"ha":794,"x_min":71,"x_max":724,"o":"m 314 754 l 249 800 l 338 915 l 197 958 l 221 1035 l 361 983 l 357 1129 l 438 1129 l 432 983 l 571 1035 l 596 958 l 453 915 l 544 800 l 479 754 l 394 875 l 314 754 m 71 578 l 71 676 l 724 676 l 724 578 l 71 578 m 71 301 l 71 400 l 724 400 l 724 301 l 71 301 z "},"≕":{"ha":857,"x_min":71,"x_max":786,"o":"m 703 544 q 644 569 668 544 q 619 628 619 593 q 644 687 619 663 q 703 711 668 711 q 762 687 738 711 q 786 628 786 663 q 762 569 786 593 q 703 544 738 544 m 71 578 l 71 676 l 543 676 l 543 578 l 71 578 m 703 267 q 644 291 668 267 q 619 350 619 315 q 644 409 619 385 q 703 433 668 433 q 762 409 738 433 q 786 350 786 385 q 762 291 786 315 q 703 267 738 267 m 71 301 l 71 400 l 543 400 l 543 301 l 71 301 z "},"≝":{"ha":794,"x_min":71,"x_max":724,"o":"m 586 539 l 586 738 l 544 738 l 544 775 l 586 789 l 586 806 q 665 896 586 896 q 695 894 681 896 q 724 885 710 892 l 710 838 q 674 844 693 844 q 653 837 661 844 q 646 806 646 829 l 646 789 l 699 789 l 699 738 l 646 738 l 646 539 l 586 539 m 172 532 q 98 568 125 532 q 71 664 71 604 q 100 763 71 729 q 176 796 129 796 q 232 771 214 796 l 232 888 l 292 888 l 292 539 l 242 539 l 235 564 q 172 532 214 532 m 446 532 q 355 564 388 532 q 322 661 322 596 q 352 760 322 725 q 431 796 382 796 q 506 765 479 796 q 533 679 533 733 l 533 644 l 383 644 q 446 579 388 579 q 524 606 481 579 l 524 553 q 446 532 485 532 m 182 582 q 232 664 232 582 q 222 726 232 704 q 185 747 211 747 q 132 664 132 747 q 182 582 132 582 m 383 693 l 474 693 q 460 728 472 713 q 429 744 449 744 q 399 730 411 744 q 383 693 386 715 m 71 346 l 71 444 l 724 444 l 724 346 l 71 346 m 71 69 l 71 168 l 724 168 l 724 69 l 71 69 z "},"⋝":{"ha":794,"x_min":71,"x_max":724,"o":"m 71 750 l 71 849 l 724 849 l 724 750 l 71 750 m 71 0 l 71 108 l 579 342 l 71 575 l 71 683 l 724 376 l 724 307 l 71 0 z "},"⋜":{"ha":794,"x_min":71,"x_max":724,"o":"m 71 750 l 71 849 l 724 849 l 724 750 l 71 750 m 724 0 l 71 307 l 71 376 l 724 683 l 724 575 l 215 342 l 724 108 l 724 0 z "},"⋞":{"ha":753,"x_min":71,"x_max":682,"o":"m 71 456 l 71 554 q 235 601 146 567 q 410 684 324 635 q 569 790 497 733 q 682 900 640 846 l 682 772 q 513 636 614 700 q 297 525 411 572 q 71 456 182 478 m 682 -44 q 71 236 504 142 l 71 300 q 297 361 182 319 q 513 460 413 403 q 682 588 614 518 l 682 465 q 502 345 606 397 q 294 269 399 293 l 294 264 q 440 221 365 251 q 580 151 515 190 q 682 68 644 111 l 682 -44 z "},"⋟":{"ha":753,"x_min":71,"x_max":682,"o":"m 682 456 q 456 525 571 478 q 240 637 340 572 q 71 772 140 701 l 71 900 q 181 792 110 847 q 340 687 253 736 q 517 602 428 638 q 682 554 607 567 l 682 456 m 71 -44 l 71 68 q 172 151 108 111 q 313 221 236 190 q 458 264 389 251 l 458 269 q 251 345 354 293 q 71 465 147 397 l 71 588 q 241 460 140 518 q 457 360 342 401 q 682 300 572 319 l 682 236 q 71 -44 249 142 z "},"≚":{"ha":794,"x_min":71,"x_max":724,"o":"m 346 540 l 144 921 l 254 921 l 397 636 l 540 921 l 650 921 l 449 540 l 346 540 m 71 346 l 71 444 l 724 444 l 724 346 l 71 346 m 71 69 l 71 168 l 724 168 l 724 69 l 71 69 z "},"≡":{"ha":794,"x_min":71,"x_max":724,"o":"m 71 682 l 71 781 l 724 781 l 724 682 l 71 682 m 71 440 l 71 539 l 724 539 l 724 440 l 71 440 m 71 199 l 71 297 l 724 297 l 724 199 l 71 199 z "},"⩸":{"ha":1058,"x_min":71,"x_max":988,"o":"m 154 885 q 95 909 119 885 q 71 968 71 933 q 95 1027 71 1003 q 154 1051 119 1051 q 213 1027 189 1051 q 238 968 238 1003 q 213 909 238 933 q 154 885 189 885 m 404 885 q 345 909 369 885 q 321 968 321 933 q 345 1027 321 1003 q 404 1051 369 1051 q 463 1027 439 1051 q 488 968 488 1003 q 463 909 488 933 q 404 885 439 885 m 654 885 q 595 909 619 885 q 571 968 571 933 q 595 1027 571 1003 q 654 1051 619 1051 q 713 1027 689 1051 q 738 968 738 1003 q 713 909 738 933 q 654 885 689 885 m 904 885 q 845 909 869 885 q 821 968 821 933 q 845 1027 821 1003 q 904 1051 869 1051 q 963 1027 939 1051 q 988 968 988 1003 q 963 909 988 933 q 904 885 939 885 m 71 682 l 71 781 l 988 781 l 988 682 l 71 682 m 71 440 l 71 539 l 988 539 l 988 440 l 71 440 m 71 199 l 71 297 l 988 297 l 988 199 l 71 199 z "},"≍":{"ha":794,"x_min":71,"x_max":724,"o":"m 397 543 q 71 636 225 543 l 122 717 q 234 667 188 683 q 319 647 281 651 q 397 642 357 642 q 478 647 440 642 q 563 667 517 651 q 672 717 608 683 l 724 636 q 562 567 643 590 q 397 543 481 543 m 122 269 l 71 350 q 397 443 225 443 q 562 419 481 443 q 724 350 643 396 l 672 269 q 560 319 607 304 q 476 340 514 335 q 397 344 438 344 q 317 340 356 344 q 233 319 279 335 q 122 269 188 304 z "},"⧳":{"ha":964,"x_min":71,"x_max":893,"o":"m 178 -275 l 178 -192 l 440 -192 l 440 -37 q 253 31 336 -26 q 120 176 169 88 q 71 372 71 265 q 120 568 71 479 q 253 714 169 657 q 440 782 336 771 l 440 936 l 178 936 l 178 1019 l 786 1019 l 786 936 l 524 936 l 524 782 q 711 714 628 771 q 844 568 794 657 q 893 372 893 479 q 844 176 893 265 q 711 31 794 88 q 524 -37 628 -26 l 524 -192 l 786 -192 l 786 -275 l 178 -275 z "},"⧱":{"ha":1108,"x_min":71,"x_max":1038,"o":"m 250 -275 l 250 -192 l 513 -192 l 513 -69 l 71 372 l 513 814 l 513 936 l 250 936 l 250 1019 l 858 1019 l 858 936 l 596 936 l 596 814 l 1038 372 l 596 -69 l 596 -192 l 858 -192 l 858 -275 l 250 -275 z "},"⧯":{"ha":886,"x_min":71,"x_max":815,"o":"m 71 0 l 71 744 l 401 744 l 401 936 l 139 936 l 139 1019 l 747 1019 l 747 936 l 485 936 l 485 744 l 815 744 l 815 0 l 485 0 l 485 -192 l 747 -192 l 747 -275 l 139 -275 l 139 -192 l 401 -192 l 401 0 l 71 0 z "},"⧲":{"ha":964,"x_min":71,"x_max":893,"o":"m 178 -275 l 178 -192 l 440 -192 l 440 -37 q 253 31 336 -26 q 120 176 169 88 q 71 372 71 265 q 120 568 71 479 q 253 714 169 657 q 440 782 336 771 l 440 936 l 178 936 l 178 1019 l 786 1019 l 786 936 l 524 936 l 524 782 q 711 714 628 771 q 844 568 794 657 q 893 372 893 479 q 844 176 893 265 q 711 30 794 86 q 524 -37 628 -26 l 524 -192 l 786 -192 l 786 -275 l 178 -275 m 482 44 q 648 88 574 44 q 766 206 722 132 q 810 372 810 281 q 766 538 810 464 q 648 656 722 613 q 482 700 574 700 q 317 656 392 700 q 198 538 242 613 q 154 372 154 464 q 198 207 154 282 q 317 88 242 132 q 482 44 392 44 z "},"⧰":{"ha":1108,"x_min":71,"x_max":1038,"o":"m 250 -275 l 250 -192 l 513 -192 l 513 -69 l 71 372 l 513 814 l 513 936 l 250 936 l 250 1019 l 858 1019 l 858 936 l 596 936 l 596 814 l 1038 372 l 596 -69 l 596 -192 l 858 -192 l 858 -275 l 250 -275 m 554 7 l 919 372 l 554 738 l 189 372 l 554 7 z "},"⧮":{"ha":886,"x_min":71,"x_max":815,"o":"m 71 0 l 71 744 l 401 744 l 401 936 l 139 936 l 139 1019 l 747 1019 l 747 936 l 485 936 l 485 744 l 815 744 l 815 0 l 485 0 l 485 -192 l 747 -192 l 747 -275 l 139 -275 l 139 -192 l 401 -192 l 401 0 l 71 0 m 154 83 l 732 83 l 732 661 l 154 661 l 154 83 z "},"⪪":{"ha":946,"x_min":71,"x_max":875,"o":"m 875 54 l 71 446 l 71 515 l 875 907 l 875 792 l 315 529 l 875 529 l 875 432 l 315 432 l 875 169 l 875 54 z "},"⪬":{"ha":946,"x_min":71,"x_max":875,"o":"m 875 146 l 71 538 l 71 607 l 875 999 l 875 883 l 315 621 l 875 621 l 875 524 l 315 524 l 875 261 l 875 146 m 71 -19 l 71 79 l 875 79 l 875 -19 l 71 -19 z "},"ℯ":{"ha":711,"x_min":90,"x_max":649,"o":"m 551 128 q 430 28 493 69 q 299 -14 367 -14 q 212 5 246 -14 q 158 52 178 24 q 131 111 139 81 q 124 164 124 142 q 131 228 124 203 q 151 282 139 253 l 111 235 l 90 253 q 123 291 103 268 q 157 331 143 314 q 236 417 201 383 q 310 478 271 451 q 417 535 363 513 q 538 557 472 557 q 612 539 589 557 q 642 499 635 521 q 649 461 649 476 q 633 389 649 429 q 576 308 617 349 q 465 233 536 268 q 285 178 394 199 q 268 129 275 157 q 261 75 261 101 q 271 30 261 49 q 304 11 281 11 q 413 49 353 11 q 533 146 474 86 l 551 128 m 300 207 q 435 275 382 233 q 517 361 488 317 q 559 442 547 406 q 571 494 571 478 q 535 532 571 532 q 465 497 500 532 q 399 410 431 463 q 342 303 368 358 q 300 207 317 249 z "},"≙":{"ha":794,"x_min":71,"x_max":724,"o":"m 144 540 l 346 921 l 449 921 l 650 540 l 540 540 l 397 825 l 254 540 l 144 540 m 71 346 l 71 444 l 724 444 l 724 346 l 71 346 m 71 69 l 71 168 l 724 168 l 724 69 l 71 69 z "},"η":{"ha":858,"x_min":118,"x_max":746,"o":"m 625 -333 l 625 476 q 585 610 625 565 q 458 656 544 656 q 288 586 336 656 q 240 386 240 517 l 240 0 l 118 0 l 118 744 l 217 744 l 235 643 l 242 643 q 342 730 278 701 q 476 758 406 758 q 678 694 610 758 q 746 485 746 629 l 746 -333 l 625 -333 z "},"∹":{"ha":857,"x_min":71,"x_max":786,"o":"m 703 544 q 644 569 668 544 q 619 628 619 593 q 644 687 619 663 q 703 711 668 711 q 762 687 738 711 q 786 628 786 663 q 762 569 786 593 q 703 544 738 544 m 71 440 l 71 539 l 543 539 l 543 440 l 71 440 m 703 267 q 644 291 668 267 q 619 350 619 315 q 644 409 619 385 q 703 433 668 433 q 762 409 738 433 q 786 350 786 385 q 762 291 786 315 q 703 267 738 267 z "},"!":{"ha":374,"x_min":100,"x_max":272,"o":"m 147 279 l 113 992 l 261 992 l 226 279 l 147 279 m 186 -19 q 125 3 150 -19 q 100 75 100 25 q 125 147 100 126 q 186 168 150 168 q 247 147 221 168 q 272 75 272 126 q 247 3 272 25 q 186 -19 221 -19 z "},"∃":{"ha":797,"x_min":71,"x_max":726,"o":"m 71 0 l 71 111 l 611 111 l 611 460 l 111 460 l 111 571 l 611 571 l 611 882 l 82 882 l 82 993 l 726 993 l 726 0 l 71 0 z "},"f":{"ha":478,"x_min":21,"x_max":538,"o":"m 151 0 l 151 650 l 21 650 l 21 707 l 151 749 l 151 792 q 215 999 151 936 q 393 1063 279 1063 q 474 1055 438 1063 q 538 1038 511 1047 l 506 942 q 454 956 483 949 q 394 963 425 963 q 303 922 333 963 q 274 793 274 881 l 274 744 l 461 744 l 461 650 l 274 650 l 274 0 l 151 0 z "},"⟍":{"ha":1188,"x_min":64,"x_max":1124,"o":"m 978 -169 l 64 744 l 210 744 l 1124 -169 l 978 -169 z "},"⤯":{"ha":964,"x_min":71,"x_max":893,"o":"m 839 68 l 71 836 l 125 890 l 893 122 l 839 68 m 588 532 l 535 585 l 719 769 q 528 817 646 774 l 571 860 q 869 889 742 844 l 892 867 q 863 568 847 739 l 819 525 q 772 717 776 643 l 588 532 m 125 68 l 71 122 l 376 426 l 429 374 l 125 68 z "},"⤬":{"ha":964,"x_min":71,"x_max":893,"o":"m 839 68 l 71 836 l 125 890 l 893 122 l 839 68 m 588 532 l 535 585 l 839 890 l 893 836 l 588 532 m 125 68 l 71 122 l 376 426 l 429 374 l 125 68 z "},"⨍":{"ha":679,"x_min":71,"x_max":608,"o":"m 172 -333 q 78 -319 118 -333 l 78 -219 q 161 -236 119 -236 q 281 -78 281 -236 l 281 399 l 71 399 l 71 497 l 281 497 l 281 982 q 504 1229 281 1229 q 592 1217 561 1229 l 592 1115 q 514 1132 554 1132 q 399 974 399 1132 l 399 497 l 608 497 l 608 399 l 399 399 l 399 -86 q 172 -333 399 -333 z "},"♭":{"ha":482,"x_min":71,"x_max":411,"o":"m 71 -35 l 71 811 l 122 811 l 122 249 q 207 338 163 306 q 300 371 251 371 q 381 336 350 371 q 411 236 411 301 q 365 96 411 158 q 239 -3 319 33 q 167 -27 203 -19 q 96 -35 131 -35 l 71 -35 m 278 308 q 196 276 239 308 q 122 199 153 243 l 122 6 q 180 19 147 6 q 244 58 213 33 q 299 115 276 82 q 332 229 332 164 q 320 288 332 267 q 278 308 308 308 z "},"⊩":{"ha":1161,"x_min":71,"x_max":1090,"o":"m 335 36 l 335 944 l 433 944 l 433 542 l 1090 542 l 1090 443 l 433 443 l 433 36 l 335 36 m 71 36 l 71 944 l 169 944 l 169 36 l 71 36 z "},"⫝̸":{"ha":839,"x_min":71,"x_max":768,"o":"m 71 57 l 188 203 q 97 506 97 289 l 97 615 l 196 615 l 196 506 q 250 283 196 349 l 383 450 l 383 810 l 482 810 l 482 575 l 668 810 l 767 810 l 482 450 l 482 226 q 627 300 585 235 q 669 506 669 365 l 669 615 l 768 615 l 768 506 q 688 214 768 304 q 433 124 607 124 q 250 158 321 124 l 169 57 l 71 57 m 383 226 l 383 326 l 315 240 q 345 232 328 235 q 383 226 363 229 z "},"⃜":{"ha":0,"x_min":-471,"x_max":468,"o":"m 397 868 q 346 887 367 868 q 325 946 325 906 q 346 1005 325 986 q 397 1024 367 1024 q 447 1005 425 1024 q 468 946 468 986 q 447 887 468 906 q 397 868 425 868 m -399 868 q -450 887 -429 868 q -471 946 -471 906 q -450 1005 -471 986 q -399 1024 -429 1024 q -349 1005 -371 1024 q -328 946 -328 986 q -349 887 -328 906 q -399 868 -371 868 m -133 868 q -185 887 -164 868 q -206 946 -206 906 q -185 1005 -206 986 q -133 1024 -164 1024 q -84 1005 -106 1024 q -62 946 -62 986 q -84 887 -62 906 q -133 868 -106 868 m 132 868 q 81 887 101 868 q 60 946 60 906 q 81 1005 60 986 q 132 1024 101 1024 q 181 1005 160 1024 q 203 946 203 986 q 181 887 203 906 q 132 868 160 868 z "},"∜":{"ha":840,"x_min":71,"x_max":883,"o":"m 381 -10 l 193 518 l 71 518 l 71 615 l 269 615 l 426 158 l 785 1181 l 883 1181 l 471 -10 l 381 -10 m 406 669 l 406 781 l 179 781 l 179 843 l 408 1171 l 497 1171 l 497 854 l 567 854 l 567 781 l 497 781 l 497 669 l 406 669 m 269 854 l 410 854 l 410 1072 l 269 854 z "},"⊘":{"ha":1289,"x_min":71,"x_max":1218,"o":"m 644 -89 q 422 -44 526 -89 q 239 79 318 0 q 115 263 160 158 q 71 485 71 367 q 115 708 71 604 q 239 890 160 811 q 422 1014 318 969 q 644 1058 526 1058 q 867 1014 764 1058 q 1050 890 971 969 q 1174 708 1129 811 q 1218 485 1218 604 q 1174 263 1218 367 q 1050 79 1129 158 q 867 -44 971 0 q 644 -89 764 -89 m 142 485 q 174 306 142 390 q 265 156 207 221 l 974 864 q 824 955 908 922 q 644 988 739 988 q 449 949 540 988 q 289 840 358 910 q 181 680 219 771 q 142 485 142 589 m 644 -18 q 840 21 749 -18 q 1000 129 931 60 q 1108 290 1069 199 q 1147 485 1147 381 q 1115 664 1147 579 q 1024 814 1082 749 l 315 106 q 465 15 381 47 q 644 -18 550 -18 z "},"⟗":{"ha":1585,"x_min":71,"x_max":1514,"o":"m 71 0 l 71 99 l 350 99 l 350 815 l 71 815 l 71 914 l 350 914 l 793 514 l 1235 914 l 1514 914 l 1514 815 l 1235 815 l 1235 99 l 1514 99 l 1514 0 l 1235 0 l 793 399 l 350 0 l 71 0 m 449 224 l 706 457 l 449 692 l 449 224 m 1136 222 l 1136 692 l 879 457 l 1136 222 z "},"g":{"ha":854,"x_min":76,"x_max":736,"o":"m 403 -333 q 135 -286 239 -333 l 135 -174 q 410 -232 244 -232 q 560 -176 506 -232 q 615 -22 615 -119 l 615 7 q 617 55 615 24 q 619 99 618 86 l 614 99 q 383 -14 539 -14 q 158 88 239 -14 q 76 371 76 189 q 158 653 76 549 q 382 758 239 758 q 515 731 456 758 q 615 646 574 703 l 622 646 l 639 744 l 736 744 l 736 -12 q 655 -253 736 -172 q 403 -333 574 -333 m 401 86 q 565 147 514 86 q 617 342 617 207 l 617 371 q 564 590 617 524 q 399 656 511 656 q 254 581 306 656 q 203 369 203 507 q 253 159 203 232 q 401 86 304 86 z "},"γ":{"ha":719,"x_min":7,"x_max":713,"o":"m 238 -333 q 247 -236 238 -294 q 272 -113 256 -178 q 308 8 288 -49 l 7 744 l 133 744 l 290 354 q 321 274 306 318 q 349 189 336 229 q 365 124 361 149 l 371 124 q 387 188 375 146 q 413 274 399 229 q 439 349 428 318 l 586 744 l 713 744 l 438 18 q 401 -101 417 -37 q 378 -226 386 -165 q 369 -333 369 -286 l 238 -333 z "},"ℽ":{"ha":754,"x_min":7,"x_max":715,"o":"m 293 -333 q 302 -236 293 -294 q 327 -113 311 -178 q 364 8 343 -49 l 7 744 l 261 744 l 436 378 q 457 333 446 358 q 472 292 468 307 q 485 333 475 304 q 500 376 494 363 l 636 744 l 715 744 l 438 18 q 401 -101 417 -37 q 378 -226 386 -165 q 369 -333 369 -286 l 293 -333 m 390 83 l 396 83 q 411 136 399 100 q 438 214 424 172 l 214 676 l 119 676 l 296 308 q 332 230 313 274 q 368 147 351 186 q 390 83 385 108 z "},"≑":{"ha":794,"x_min":71,"x_max":724,"o":"m 397 781 q 338 805 363 781 q 314 864 314 829 q 338 923 314 899 q 397 947 363 947 q 456 923 432 947 q 481 864 481 899 q 456 805 481 829 q 397 781 432 781 m 71 578 l 71 676 l 724 676 l 724 578 l 71 578 m 71 301 l 71 400 l 724 400 l 724 301 l 71 301 m 397 31 q 338 55 363 31 q 314 114 314 79 q 338 173 314 149 q 397 197 363 197 q 456 173 432 197 q 481 114 481 149 q 456 55 481 79 q 397 31 432 31 z "},"≎":{"ha":794,"x_min":71,"x_max":724,"o":"m 71 578 l 71 676 l 199 676 q 251 825 199 775 q 397 875 304 875 q 544 825 492 875 q 596 676 596 775 l 724 676 l 724 578 l 494 578 l 494 676 q 468 749 494 721 q 397 776 442 776 q 327 749 354 776 q 300 676 300 721 l 300 578 l 71 578 m 397 103 q 251 153 303 103 q 199 301 199 204 l 71 301 l 71 400 l 300 400 l 300 301 q 327 229 300 257 q 397 201 354 201 q 468 230 442 201 q 494 301 494 258 l 494 400 l 724 400 l 724 301 l 596 301 q 544 153 596 204 q 397 103 492 103 z "},"∺":{"ha":794,"x_min":71,"x_max":724,"o":"m 154 643 q 95 667 119 643 q 71 726 71 692 q 94 784 71 758 q 154 810 118 810 q 213 785 189 810 q 238 726 238 761 q 212 667 238 690 q 154 643 186 643 m 640 643 q 581 667 606 643 q 557 726 557 692 q 581 784 557 758 q 640 810 604 810 q 699 785 675 810 q 724 726 724 761 q 698 667 724 690 q 640 643 672 643 m 71 440 l 71 539 l 724 539 l 724 440 l 71 440 m 154 169 q 95 194 119 169 q 71 253 71 219 q 95 312 71 288 q 154 336 119 336 q 212 313 186 336 q 238 253 238 289 q 213 194 238 218 q 154 169 189 169 m 640 169 q 581 194 606 169 q 557 253 557 219 q 581 312 557 288 q 640 336 606 336 q 698 313 672 336 q 724 253 724 289 q 699 194 724 218 q 640 169 675 169 z "},"ℷ":{"ha":522,"x_min":11,"x_max":451,"o":"m 11 -32 l 11 68 q 135 147 88 114 q 208 210 182 181 q 242 277 233 240 q 251 368 251 314 l 251 585 q 236 653 251 631 q 181 689 221 675 l 64 728 l 64 822 l 240 765 q 328 694 308 743 q 347 556 347 644 l 347 408 q 354 351 347 381 q 369 293 361 321 l 451 0 l 353 0 l 297 250 q 272 160 297 203 q 210 94 246 118 l 11 -32 z "},"⧦":{"ha":1142,"x_min":71,"x_max":1071,"o":"m 71 0 l 71 864 l 169 864 l 169 642 l 972 642 l 972 864 l 1071 864 l 1071 0 l 972 0 l 972 222 l 169 222 l 169 0 l 71 0 m 169 321 l 972 321 l 972 543 l 169 543 l 169 321 z "},"∇":{"ha":807,"x_min":28,"x_max":779,"o":"m 342 0 l 28 917 l 28 992 l 779 992 l 779 915 l 467 0 l 342 0 m 406 136 q 440 264 425 208 q 469 360 456 319 l 646 882 l 165 882 l 340 360 q 379 240 363 296 q 406 136 396 185 z "},"`":{"ha":390,"x_min":56,"x_max":335,"o":"m 253 842 q 181 906 221 867 q 106 985 140 946 q 56 1050 72 1025 l 56 1064 l 201 1064 q 240 995 217 1033 q 288 921 263 957 q 335 858 314 885 l 335 842 l 253 842 z "},">":{"ha":794,"x_min":69,"x_max":724,"o":"m 69 161 l 69 269 l 593 488 l 69 736 l 69 844 l 724 518 l 724 449 l 69 161 z "},"≩":{"ha":794,"x_min":71,"x_max":724,"o":"m 71 403 l 71 504 l 574 672 l 71 842 l 71 943 l 724 707 l 724 638 l 71 403 m 72 39 l 72 138 l 313 138 l 371 261 l 72 261 l 72 360 l 417 360 l 458 447 l 538 406 l 517 360 l 724 360 l 724 261 l 469 261 l 413 138 l 724 138 l 724 39 l 365 39 l 300 -101 l 219 -62 l 267 39 l 72 39 z "},"⋧":{"ha":794,"x_min":71,"x_max":724,"o":"m 71 328 l 71 429 l 574 597 l 71 767 l 71 868 l 724 632 l 724 563 l 71 328 m 351 -6 l 271 33 l 326 146 q 274 160 299 156 q 228 165 250 165 q 150 144 192 165 q 71 83 108 122 l 71 192 q 236 265 138 265 q 371 240 300 265 l 432 364 l 511 322 l 454 206 q 564 183 517 183 q 724 265 642 183 l 724 158 q 557 83 656 83 q 408 113 486 83 l 351 -6 z "},"⋗":{"ha":739,"x_min":71,"x_max":668,"o":"m 71 147 l 71 256 l 524 489 l 71 722 l 71 831 l 668 524 l 668 454 l 71 147 m 182 406 q 123 431 147 406 q 99 489 99 456 q 123 548 99 524 q 182 572 147 572 q 240 549 214 572 q 265 489 265 525 q 241 430 265 454 q 182 406 217 406 z "},"⧁":{"ha":1289,"x_min":71,"x_max":1218,"o":"m 644 -89 q 422 -44 526 -89 q 239 79 318 0 q 115 263 160 158 q 71 485 71 367 q 115 708 71 604 q 239 890 160 811 q 422 1014 318 969 q 644 1058 526 1058 q 867 1014 764 1058 q 1050 890 971 969 q 1174 708 1129 811 q 1218 485 1218 604 q 1174 263 1218 367 q 1050 79 1129 158 q 867 -44 971 0 q 644 -89 764 -89 m 644 -18 q 840 21 749 -18 q 1000 129 931 60 q 1108 290 1069 199 q 1147 485 1147 381 q 1108 680 1147 589 q 1000 840 1069 771 q 840 949 931 910 q 644 988 749 988 q 449 949 540 988 q 289 840 358 910 q 181 680 219 771 q 142 485 142 589 q 181 290 142 381 q 289 129 219 199 q 449 21 358 60 q 644 -18 540 -18 m 392 189 l 392 300 l 849 493 l 392 685 l 392 797 l 992 533 l 992 451 l 392 189 m 368 694 l 392 685 l 392 651 l 368 694 m 392 333 l 392 300 l 368 290 l 392 333 z "},"⪌":{"ha":794,"x_min":71,"x_max":724,"o":"m 71 690 l 71 792 l 574 960 l 71 1129 l 71 1231 l 724 994 l 724 925 l 71 690 m 71 550 l 71 649 l 724 649 l 724 550 l 71 550 m 71 328 l 71 426 l 724 426 l 724 328 l 71 328 m 724 -254 l 71 -19 l 71 50 l 724 286 l 724 185 l 221 15 l 724 -153 l 724 -254 z "},"⪒":{"ha":794,"x_min":71,"x_max":724,"o":"m 71 592 l 71 693 l 574 861 l 71 1031 l 71 1132 l 724 896 l 724 826 l 71 592 m 724 160 l 71 394 l 71 464 l 724 700 l 724 599 l 221 429 l 724 261 l 724 160 m 71 19 l 71 118 l 724 118 l 724 19 l 71 19 m 71 -203 l 71 -104 l 724 -104 l 724 -203 l 71 -203 z "},"⥸":{"ha":794,"x_min":71,"x_max":724,"o":"m 71 308 l 71 417 l 579 650 l 71 883 l 71 992 l 724 685 l 724 615 l 71 308 m 71 154 l 71 229 l 532 229 q 431 397 483 283 l 492 397 q 724 207 603 268 l 724 176 q 492 -14 603 115 l 431 -14 q 532 154 483 100 l 71 154 z "},"⪐":{"ha":794,"x_min":71,"x_max":724,"o":"m 71 690 l 71 792 l 574 960 l 71 1129 l 71 1231 l 724 994 l 724 925 l 71 690 m 71 399 l 71 507 q 236 581 138 581 q 411 540 318 581 q 495 510 457 521 q 564 499 533 499 q 644 520 600 499 q 724 581 688 542 l 724 474 q 557 399 656 399 q 381 440 471 399 q 228 481 292 481 q 150 459 192 481 q 71 399 108 438 m 724 -254 l 71 -19 l 71 50 l 724 286 l 724 185 l 221 15 l 724 -153 l 724 -254 z "},"⪎":{"ha":794,"x_min":71,"x_max":724,"o":"m 71 440 l 71 542 l 574 710 l 71 879 l 71 981 l 724 744 l 724 675 l 71 440 m 71 196 l 71 304 q 236 378 138 378 q 411 338 318 378 q 495 307 457 318 q 564 296 533 296 q 644 317 600 296 q 724 378 688 339 l 724 271 q 557 196 656 196 q 381 238 471 196 q 228 278 292 278 q 150 256 192 278 q 71 196 108 235 m 71 -1 l 71 97 l 724 97 l 724 -1 l 71 -1 z "},"⪔":{"ha":794,"x_min":71,"x_max":724,"o":"m 71 668 l 71 769 l 574 938 l 71 1107 l 71 1208 l 724 972 l 724 903 l 71 668 m 71 433 l 71 533 l 724 768 l 724 668 l 71 433 m 724 -7 l 71 228 l 71 297 l 724 533 l 724 432 l 221 263 l 724 94 l 724 -7 m 724 -242 l 71 -7 l 71 93 l 724 -142 l 724 -242 z "},"⪊":{"ha":794,"x_min":71,"x_max":724,"o":"m 71 425 l 71 526 l 574 694 l 71 864 l 71 965 l 724 729 l 724 660 l 71 425 m 311 -129 l 231 -90 l 288 33 q 228 40 260 40 q 152 19 193 40 q 71 -42 111 -1 l 71 67 q 236 140 138 140 q 332 128 285 140 l 376 224 q 228 263 290 263 q 152 242 193 263 q 71 181 111 221 l 71 289 q 147 344 104 326 q 236 363 189 363 q 326 351 285 363 q 421 317 368 340 l 485 453 l 564 411 l 506 288 q 533 283 518 285 q 564 281 547 281 q 644 302 600 281 q 724 363 688 324 l 724 256 q 557 181 653 181 q 461 193 507 181 l 417 97 q 564 58 506 58 q 644 80 600 58 q 724 140 688 101 l 724 33 q 557 -42 656 -42 q 465 -31 508 -42 q 372 3 422 -19 l 311 -129 z "},"⪈":{"ha":794,"x_min":71,"x_max":724,"o":"m 71 231 l 71 339 l 579 572 l 71 806 l 71 914 l 724 607 l 724 538 l 71 231 m 357 -101 l 276 -62 l 336 65 l 71 65 l 71 164 l 383 164 l 451 306 l 531 264 l 483 164 l 724 164 l 724 65 l 436 65 l 357 -101 z "},"⪥":{"ha":1532,"x_min":71,"x_max":1461,"o":"m 1461 133 l 807 449 l 807 518 l 1461 872 l 1461 764 l 938 489 l 1461 242 l 1461 133 m 71 133 l 71 242 l 594 489 l 71 764 l 71 872 l 725 518 l 725 449 l 71 133 z "},"⪧":{"ha":1056,"x_min":71,"x_max":985,"o":"m 331 133 q 138 294 204 199 q 71 503 71 390 q 135 708 71 614 q 331 872 200 803 l 985 518 l 985 449 l 331 133 m 331 242 l 854 489 l 331 764 q 245 701 283 743 q 185 608 207 660 q 163 503 163 556 q 184 401 163 451 q 244 308 206 350 q 331 242 282 267 z "},"⪩":{"ha":1056,"x_min":71,"x_max":985,"o":"m 331 251 q 138 413 204 317 q 71 621 71 508 q 135 826 71 732 q 331 990 200 921 l 985 636 l 985 567 l 331 251 m 331 360 l 854 607 l 331 882 q 245 819 283 861 q 185 726 207 778 q 163 621 163 674 q 184 519 163 569 q 244 426 206 468 q 331 360 282 385 m 268 -37 l 268 71 l 985 406 l 985 297 l 268 -37 z "},"⪆":{"ha":794,"x_min":71,"x_max":724,"o":"m 71 425 l 71 526 l 574 694 l 71 864 l 71 965 l 724 729 l 724 660 l 71 425 m 71 181 l 71 289 q 147 344 104 326 q 236 363 189 363 q 410 322 314 363 q 496 292 458 303 q 564 281 533 281 q 644 302 600 281 q 724 363 688 324 l 724 256 q 557 181 653 181 q 475 192 518 181 q 383 222 432 203 q 228 263 286 263 q 152 242 193 263 q 71 181 111 221 m 71 -42 l 71 67 q 236 140 138 140 q 410 100 318 140 q 564 58 501 58 q 644 80 600 58 q 724 140 688 101 l 724 33 q 557 -42 656 -42 q 381 0 472 -42 q 228 40 289 40 q 152 19 193 40 q 71 -42 111 -1 z "},"⩾":{"ha":794,"x_min":71,"x_max":724,"o":"m 71 193 l 71 301 l 579 535 l 71 768 l 71 876 l 724 569 l 724 500 l 71 193 m 71 -72 l 71 36 l 724 343 l 724 235 l 71 -72 z "},"⪂":{"ha":794,"x_min":71,"x_max":724,"o":"m 71 193 l 71 301 l 579 535 l 71 768 l 71 876 l 724 569 l 724 500 l 71 193 m 631 699 q 572 723 596 699 q 547 782 547 747 q 572 841 547 817 q 631 865 596 865 q 690 840 667 865 q 714 782 714 814 q 690 724 714 749 q 631 699 667 699 m 71 -72 l 71 36 l 724 343 l 724 235 l 71 -72 z "},"⪄":{"ha":794,"x_min":71,"x_max":724,"o":"m 163 931 q 103 955 128 931 q 79 1014 79 979 q 103 1073 79 1049 q 163 1097 128 1097 q 222 1073 199 1097 q 246 1014 246 1049 q 222 955 246 979 q 163 931 199 931 m 71 193 l 71 301 l 579 535 l 71 768 l 71 876 l 724 569 l 724 500 l 71 193 m 71 -72 l 71 36 l 724 343 l 724 235 l 71 -72 z "},"⪀":{"ha":794,"x_min":71,"x_max":724,"o":"m 71 193 l 71 301 l 579 535 l 71 768 l 71 876 l 724 569 l 724 500 l 71 193 m 160 451 q 101 476 126 451 q 76 535 76 500 q 101 594 76 569 q 160 618 125 618 q 219 593 196 618 q 243 535 243 568 q 219 476 243 500 q 160 451 194 451 m 71 -72 l 71 36 l 724 343 l 724 235 l 71 -72 z "},"⪤":{"ha":949,"x_min":71,"x_max":878,"o":"m 71 133 l 71 242 l 364 381 l 224 449 l 224 518 l 379 601 l 71 764 l 71 872 l 474 653 l 878 872 l 878 764 l 569 601 l 725 518 l 725 449 l 583 381 l 878 242 l 878 133 l 474 328 l 71 133 m 474 432 l 594 489 l 474 551 l 354 489 l 474 432 z "},"⩺":{"ha":929,"x_min":71,"x_max":858,"o":"m 204 161 l 204 269 l 728 489 l 204 736 l 204 844 l 858 518 l 858 449 l 204 161 m 221 353 q 114 397 157 353 q 71 503 71 442 q 115 609 71 565 q 221 653 158 653 q 328 609 285 653 q 371 503 371 565 q 327 396 371 439 q 221 353 283 353 m 221 419 q 278 445 253 419 q 304 503 304 471 q 278 560 304 535 q 221 585 253 585 q 164 560 189 585 q 139 503 139 535 q 164 445 139 471 q 221 419 189 419 z "},"⩼":{"ha":796,"x_min":71,"x_max":725,"o":"m 525 754 l 525 789 q 563 868 525 842 q 600 919 600 896 q 589 942 600 935 q 561 950 578 950 q 515 906 515 950 l 453 906 q 561 1003 453 1003 q 637 981 607 1003 q 667 919 667 958 q 628 846 667 876 q 589 789 589 815 l 589 754 l 525 754 m 71 161 l 71 269 l 594 489 l 71 736 l 71 844 l 725 518 l 725 449 l 71 161 m 525 669 l 525 726 l 589 726 l 589 669 l 525 669 z "},"≥":{"ha":794,"x_min":71,"x_max":724,"o":"m 71 231 l 71 339 l 579 572 l 71 806 l 71 914 l 724 607 l 724 538 l 71 231 m 71 65 l 71 164 l 724 164 l 724 65 l 71 65 z "},"⋛":{"ha":794,"x_min":71,"x_max":724,"o":"m 71 592 l 71 693 l 574 861 l 71 1031 l 71 1132 l 724 896 l 724 826 l 71 592 m 71 442 l 71 540 l 724 540 l 724 442 l 71 442 m 724 -150 l 71 85 l 71 154 l 724 390 l 724 289 l 221 119 l 724 -49 l 724 -150 z "},"≳":{"ha":794,"x_min":71,"x_max":724,"o":"m 71 314 l 71 415 l 574 583 l 71 753 l 71 854 l 724 618 l 724 549 l 71 314 m 71 69 l 71 178 q 147 233 104 215 q 236 251 189 251 q 410 211 314 251 q 496 181 458 192 q 564 169 533 169 q 644 191 600 169 q 724 251 688 213 l 724 144 q 557 69 653 69 q 475 81 518 69 q 383 111 432 92 q 228 151 286 151 q 152 131 193 151 q 71 69 111 110 z "},"≷":{"ha":794,"x_min":71,"x_max":724,"o":"m 71 435 l 71 536 l 574 704 l 71 874 l 71 975 l 724 739 l 724 669 l 71 435 m 724 3 l 71 238 l 71 307 l 724 543 l 724 442 l 221 272 l 724 104 l 724 3 z "},"≧":{"ha":794,"x_min":71,"x_max":724,"o":"m 71 403 l 71 504 l 574 672 l 71 842 l 71 943 l 724 707 l 724 638 l 71 403 m 71 261 l 71 360 l 724 360 l 724 261 l 71 261 m 71 39 l 71 138 l 724 138 l 724 39 l 71 39 z "},"ℊ":{"ha":875,"x_min":-104,"x_max":838,"o":"m 710 128 q 631 60 675 94 q 533 -1 586 26 l 415 -224 q 348 -332 388 -276 q 258 -435 308 -387 q 150 -511 208 -482 q 26 -540 92 -540 q -49 -517 -19 -540 q -91 -462 -78 -493 q -104 -410 -104 -432 q -67 -317 -104 -364 q 27 -224 -31 -269 q 151 -140 85 -179 q 277 -70 217 -100 q 376 -22 338 -40 l 424 76 q 388 42 413 64 q 327 4 363 21 q 250 -12 292 -12 q 174 16 200 -12 q 139 83 149 44 q 129 153 129 122 q 192 317 129 228 q 150 269 168 289 q 117 235 132 249 l 99 253 q 173 335 139 294 q 239 414 207 375 q 353 511 288 471 q 499 551 418 551 q 583 528 556 551 q 610 450 610 506 l 674 539 l 838 539 l 551 39 q 627 91 592 63 q 689 146 663 119 l 710 128 m 265 15 q 358 53 313 15 q 442 149 403 92 q 513 267 482 207 q 558 367 536 314 q 581 464 581 419 q 533 519 581 519 q 471 490 504 519 q 403 412 438 460 q 338 308 369 364 q 283 199 307 253 q 244 103 258 144 q 229 44 229 63 q 242 21 229 26 q 265 15 254 15 m 25 -515 q 109 -484 72 -515 q 180 -398 146 -453 q 249 -275 214 -343 l 358 -61 q 316 -83 349 -65 q 238 -129 283 -101 q 143 -192 192 -157 q 52 -269 94 -228 q -17 -354 10 -310 q -43 -444 -43 -399 q -22 -501 -43 -487 q 25 -515 0 -515 z "},"h":{"ha":858,"x_min":118,"x_max":746,"o":"m 118 0 l 118 1056 l 240 1056 l 240 746 q 233 642 240 690 l 242 642 q 340 728 278 699 q 474 757 401 757 q 678 692 610 757 q 746 485 746 628 l 746 0 l 625 0 l 625 476 q 458 656 625 656 q 287 585 333 656 q 240 385 240 515 l 240 0 l 118 0 z "},"⊹":{"ha":794,"x_min":71,"x_max":724,"o":"m 346 613 l 346 826 l 444 826 l 444 613 l 346 613 m 71 440 l 71 539 l 285 539 l 285 440 l 71 440 m 510 440 l 510 539 l 724 539 l 724 440 l 510 440 m 346 156 l 346 369 l 444 369 l 444 156 l 346 156 z "},"∻":{"ha":794,"x_min":71,"x_max":724,"o":"m 397 629 q 338 653 363 629 q 314 713 314 678 q 339 772 314 749 q 397 796 364 796 q 456 772 432 796 q 481 713 481 747 q 457 654 481 679 q 397 629 433 629 m 71 399 l 71 507 q 236 581 138 581 q 411 540 318 581 q 495 510 457 521 q 564 499 533 499 q 644 520 600 499 q 724 581 688 542 l 724 474 q 557 399 656 399 q 381 440 471 399 q 228 481 292 481 q 150 459 192 481 q 71 399 108 438 m 397 183 q 339 208 364 183 q 314 267 314 232 q 338 326 314 301 q 397 350 363 350 q 457 324 433 350 q 481 267 481 299 q 456 208 481 232 q 397 183 432 183 z "},"⎯":{"ha":1389,"x_min":-3,"x_max":1392,"o":"m -3 442 l -3 517 l 1392 517 l 1392 442 l -3 442 z "},"-":{"ha":447,"x_min":56,"x_max":392,"o":"m 56 318 l 56 426 l 392 426 l 392 318 l 56 318 z "},"i":{"ha":358,"x_min":108,"x_max":251,"o":"m 181 868 q 129 888 150 868 q 108 946 108 907 q 129 1005 108 986 q 181 1024 150 1024 q 230 1005 208 1024 q 251 946 251 986 q 230 888 251 907 q 181 868 208 868 m 118 0 l 118 744 l 240 744 l 240 0 l 118 0 z "},"⧥":{"ha":957,"x_min":71,"x_max":886,"o":"m 71 0 l 190 232 l 72 232 l 72 324 l 238 324 l 301 450 l 72 450 l 72 542 l 349 542 l 414 668 l 72 668 l 72 760 l 461 760 l 581 992 l 667 992 l 547 760 l 681 760 l 800 992 l 886 992 l 767 760 l 885 760 l 885 668 l 719 668 l 654 542 l 885 542 l 885 450 l 607 450 l 543 324 l 885 324 l 885 232 l 496 232 l 376 0 l 290 0 l 410 232 l 276 232 l 157 0 l 71 0 m 435 542 l 568 542 l 633 668 l 500 668 l 435 542 m 324 324 l 457 324 l 521 450 l 388 450 l 324 324 z "},"⩧":{"ha":794,"x_min":71,"x_max":724,"o":"m 397 885 q 338 909 363 885 q 314 968 314 933 q 338 1027 314 1003 q 397 1051 363 1051 q 456 1027 432 1051 q 481 968 481 1003 q 456 909 481 933 q 397 885 432 885 m 71 682 l 71 781 l 724 781 l 724 682 l 71 682 m 71 440 l 71 539 l 724 539 l 724 440 l 71 440 m 71 199 l 71 297 l 724 297 l 724 199 l 71 199 z "},"ⅈ":{"ha":476,"x_min":44,"x_max":475,"o":"m 344 822 q 266 849 297 822 q 235 926 235 875 q 269 1026 235 985 q 369 1068 304 1068 q 475 969 475 1068 q 434 860 475 899 q 344 822 393 822 m 350 892 q 388 908 371 892 q 406 956 406 925 q 361 999 406 999 q 319 980 333 999 q 304 938 304 961 q 317 903 304 915 q 350 892 331 892 m 44 0 l 201 744 l 443 744 l 285 0 l 44 0 m 132 68 l 225 68 l 353 671 l 260 671 l 132 68 z "},"⊷":{"ha":1269,"x_min":71,"x_max":1199,"o":"m 261 301 q 165 327 208 301 q 97 396 122 353 q 71 492 71 439 q 97 588 71 544 q 167 656 124 631 q 261 682 210 682 q 379 641 326 682 q 447 533 432 600 l 824 533 q 892 640 839 599 q 1008 682 944 682 q 1103 656 1060 682 q 1172 588 1146 631 q 1199 492 1199 544 q 1173 396 1199 439 q 1104 327 1147 353 q 1008 301 1061 301 q 892 344 944 301 q 824 450 839 386 l 447 450 q 379 342 432 383 q 261 301 326 301 m 1008 389 q 1081 419 1051 389 q 1111 492 1111 450 q 1081 564 1111 533 q 1008 594 1051 594 q 935 565 965 594 q 906 492 906 535 q 936 419 906 449 q 1008 389 967 389 z "},"≓":{"ha":794,"x_min":71,"x_max":724,"o":"m 640 781 q 581 805 606 781 q 557 864 557 829 q 581 923 557 899 q 640 947 606 947 q 699 923 675 947 q 724 864 724 899 q 699 805 724 829 q 640 781 675 781 m 71 578 l 71 676 l 724 676 l 724 578 l 71 578 m 71 301 l 71 400 l 724 400 l 724 301 l 71 301 m 154 31 q 95 55 119 31 q 71 114 71 79 q 95 173 71 149 q 154 197 119 197 q 213 173 189 197 q 238 114 238 149 q 213 55 238 79 q 154 31 189 31 z "},"⧜":{"ha":1026,"x_min":71,"x_max":956,"o":"m 739 213 q 615 253 675 213 q 504 382 554 293 q 407 259 461 301 q 285 217 353 217 q 176 249 225 217 q 99 340 128 281 q 71 479 71 399 q 98 616 71 556 q 174 712 125 676 q 289 747 224 747 q 395 722 351 747 q 475 647 439 697 q 547 518 511 596 q 625 380 592 425 q 685 320 658 335 q 735 306 711 306 q 831 356 796 306 q 867 478 867 407 l 956 483 q 928 346 956 407 q 853 249 901 285 q 739 213 804 213 m 288 310 q 380 352 339 310 q 460 482 421 394 q 384 611 425 568 q 290 654 343 654 q 196 603 231 654 q 161 479 161 551 q 194 360 161 411 q 288 310 226 310 z "},"⧡":{"ha":794,"x_min":71,"x_max":724,"o":"m 71 329 l 71 376 l 724 853 l 724 329 l 71 329 m 288 424 l 629 424 l 629 675 l 288 424 m 71 142 l 71 240 l 724 240 l 724 142 l 71 142 z "},"∆":{"ha":807,"x_min":28,"x_max":779,"o":"m 28 0 l 28 76 l 340 992 l 465 992 l 779 75 l 779 0 l 28 0 m 161 110 l 642 110 l 468 626 q 401 856 422 764 q 368 732 383 788 q 338 632 353 676 l 161 110 z "},"∞":{"ha":1026,"x_min":71,"x_max":956,"o":"m 739 213 q 615 253 675 213 q 504 382 554 293 q 407 259 461 301 q 285 217 353 217 q 176 249 225 217 q 99 340 128 281 q 71 479 71 399 q 98 616 71 556 q 174 712 125 676 q 289 747 224 747 q 414 709 353 747 q 522 582 475 671 q 619 703 565 663 q 740 743 672 743 q 896 671 836 743 q 956 483 956 599 q 928 346 956 407 q 853 249 901 285 q 739 213 804 213 m 288 310 q 380 352 339 310 q 460 482 421 394 q 384 611 425 568 q 290 654 343 654 q 196 603 231 654 q 161 479 161 551 q 194 360 161 411 q 288 310 226 310 m 735 306 q 831 356 796 306 q 867 478 867 407 q 831 601 867 551 q 736 650 794 650 q 647 608 686 650 q 567 478 607 565 q 643 349 603 392 q 735 306 683 306 z "},"⧞":{"ha":1026,"x_min":71,"x_max":956,"o":"m 467 0 l 467 322 q 285 217 389 217 q 176 249 225 217 q 99 340 128 281 q 71 479 71 399 q 98 616 71 556 q 174 712 125 676 q 289 747 222 747 q 381 727 335 747 q 467 663 426 707 l 467 974 l 564 974 l 564 647 q 740 743 638 743 q 896 671 836 743 q 956 483 956 599 q 928 346 956 407 q 853 249 901 285 q 739 213 804 213 q 649 233 693 213 q 564 297 604 253 l 564 0 l 467 0 m 288 310 q 380 352 339 310 q 460 482 421 394 q 384 611 425 568 q 290 654 343 654 q 196 603 231 654 q 161 479 161 551 q 194 360 161 411 q 288 310 226 310 m 735 306 q 831 356 796 306 q 867 478 867 407 q 831 601 867 551 q 736 650 794 650 q 647 608 686 650 q 567 478 607 565 q 643 349 603 392 q 735 306 683 306 z "},"∫":{"ha":538,"x_min":7,"x_max":521,"o":"m 101 -333 q 7 -319 47 -333 l 7 -219 q 90 -236 49 -236 q 210 -78 210 -236 l 210 982 q 433 1229 210 1229 q 521 1217 490 1229 l 521 1115 q 443 1132 482 1132 q 328 974 328 1132 l 328 -86 q 101 -333 328 -333 z "},"⨕":{"ha":757,"x_min":85,"x_max":672,"o":"m 211 -333 q 117 -319 157 -333 l 117 -219 q 200 -236 158 -236 q 319 -78 319 -236 l 319 186 q 149 273 214 203 q 85 447 85 343 q 149 621 85 550 q 319 708 213 692 l 319 982 q 543 1229 319 1229 q 631 1217 600 1229 l 631 1115 q 553 1132 592 1132 q 438 974 438 1132 l 438 708 q 608 621 543 692 q 672 447 672 550 q 607 273 672 343 q 438 186 542 203 l 438 -86 q 211 -333 438 -333 m 378 272 q 519 320 464 272 q 574 447 574 368 q 519 574 574 526 q 378 622 465 622 q 237 574 290 622 q 183 447 183 526 q 237 320 183 368 q 378 272 290 272 m 379 364 q 320 389 344 364 q 296 447 296 414 q 320 506 296 482 q 379 531 344 531 q 437 507 411 531 q 463 447 463 483 q 438 388 463 413 q 379 364 414 364 z "},"⨏":{"ha":679,"x_min":71,"x_max":608,"o":"m 172 -333 q 78 -319 118 -333 l 78 -219 q 161 -236 119 -236 q 281 -78 281 -236 l 281 329 l 133 190 l 71 258 l 281 456 l 281 982 q 504 1229 281 1229 q 592 1217 561 1229 l 592 1115 q 514 1132 554 1132 q 399 974 399 1132 l 399 567 l 544 704 l 608 638 l 399 440 l 399 -86 q 172 -333 399 -333 z "},"⨎":{"ha":679,"x_min":71,"x_max":608,"o":"m 172 -333 q 78 -319 118 -333 l 78 -219 q 161 -236 119 -236 q 281 -78 281 -236 l 281 279 l 71 279 l 71 378 l 281 378 l 281 518 l 71 518 l 71 617 l 281 617 l 281 982 q 504 1229 281 1229 q 592 1217 561 1229 l 592 1115 q 514 1132 554 1132 q 399 974 399 1132 l 399 617 l 608 617 l 608 518 l 399 518 l 399 378 l 608 378 l 608 279 l 399 279 l 399 -86 q 172 -333 399 -333 z "},"⨙":{"ha":786,"x_min":71,"x_max":715,"o":"m 225 -333 q 131 -319 171 -333 l 131 -219 q 214 -236 172 -236 q 333 -78 333 -236 l 333 632 q 217 580 256 626 q 179 456 179 533 l 179 163 l 71 163 l 71 453 q 142 652 71 576 q 333 733 214 728 l 333 982 q 557 1229 333 1229 q 644 1217 614 1229 l 644 1115 q 567 1132 607 1132 q 451 974 451 1132 l 451 733 q 644 651 574 726 q 715 453 715 576 l 715 163 l 607 163 l 607 456 q 569 581 607 533 q 451 633 532 628 l 451 -86 q 225 -333 451 -333 z "},"⨗":{"ha":889,"x_min":71,"x_max":818,"o":"m 288 -333 q 193 -319 233 -333 l 193 -219 q 276 -236 235 -236 q 396 -78 396 -236 l 396 433 l 213 433 l 279 368 l 279 242 l 71 483 l 279 722 l 279 596 l 211 532 l 396 532 l 396 982 q 619 1229 396 1229 q 707 1217 676 1229 l 707 1115 q 629 1132 669 1132 q 514 974 514 1132 l 514 532 l 590 532 q 762 487 706 532 q 818 343 818 442 q 592 154 818 154 l 592 253 q 688 274 658 253 q 717 343 717 294 q 689 413 717 392 q 597 433 661 433 l 514 433 l 514 -86 q 288 -333 514 -333 z "},"⨛":{"ha":697,"x_min":71,"x_max":639,"o":"m 83 1329 l 83 1428 l 639 1428 l 639 1329 l 83 1329 m 165 -333 q 71 -319 111 -333 l 71 -219 q 154 -236 113 -236 q 274 -78 274 -236 l 274 982 q 497 1229 274 1229 q 585 1217 554 1229 l 585 1115 q 507 1132 547 1132 q 392 974 392 1132 l 392 -86 q 165 -333 392 -333 z "},"⨘":{"ha":721,"x_min":71,"x_max":650,"o":"m 194 -333 q 100 -319 140 -333 l 100 -219 q 183 -236 142 -236 q 303 -78 303 -236 l 303 324 l 144 165 l 79 231 l 294 447 l 71 671 l 138 738 l 303 572 l 303 982 q 526 1229 303 1229 q 614 1217 583 1229 l 614 1115 q 536 1132 576 1132 q 421 974 421 1132 l 421 572 l 579 731 l 644 665 l 428 447 l 650 224 l 585 157 l 421 321 l 421 -86 q 194 -333 421 -333 z "},"⨜":{"ha":710,"x_min":71,"x_max":626,"o":"m 181 -333 q 86 -319 126 -333 l 86 -219 q 169 -236 128 -236 q 289 -78 289 -236 l 289 982 q 513 1229 289 1229 q 600 1217 569 1229 l 600 1115 q 522 1132 561 1132 q 407 974 407 1132 l 407 -86 q 181 -333 407 -333 m 71 -532 l 71 -433 l 626 -433 l 626 -532 l 71 -532 z "},"⨚":{"ha":786,"x_min":71,"x_max":715,"o":"m 225 -333 q 131 -319 171 -333 l 131 -219 q 214 -236 172 -236 q 333 -78 333 -236 l 333 163 q 143 244 215 169 q 71 443 71 319 l 71 733 l 179 733 l 179 440 q 217 316 179 363 q 333 263 256 269 l 333 982 q 557 1229 333 1229 q 644 1217 614 1229 l 644 1115 q 567 1132 607 1132 q 451 974 451 1132 l 451 263 q 607 440 607 272 l 607 733 l 715 733 l 715 443 q 644 244 715 319 q 451 163 572 169 l 451 -86 q 225 -333 451 -333 z "},"⌡":{"ha":538,"x_min":17,"x_max":328,"o":"m 104 -407 q 17 -394 50 -407 l 17 -293 q 94 -310 54 -310 q 210 -151 210 -310 l 210 1485 l 328 1485 l 328 -160 q 104 -407 328 -407 z "},"⎮":{"ha":538,"x_min":210,"x_max":328,"o":"m 210 -407 l 210 1485 l 328 1485 l 328 -407 l 210 -407 z "},"⌠":{"ha":538,"x_min":210,"x_max":521,"o":"m 210 -407 l 210 1238 q 433 1485 210 1485 q 521 1472 490 1485 l 521 1371 q 443 1388 482 1388 q 328 1229 328 1388 l 328 -407 l 210 -407 z "},"⊺":{"ha":772,"x_min":71,"x_max":701,"o":"m 338 0 l 338 810 l 71 810 l 71 908 l 701 908 l 701 810 l 436 810 l 436 0 l 338 0 z "},"⨼":{"ha":794,"x_min":71,"x_max":724,"o":"m 71 178 l 71 276 l 625 276 l 625 539 l 724 539 l 724 178 l 71 178 z "},"∩":{"ha":950,"x_min":71,"x_max":879,"o":"m 71 0 l 71 446 q 174 801 71 679 q 475 922 276 922 q 777 801 675 922 q 879 446 879 679 l 879 0 l 781 0 l 781 446 q 475 822 781 822 q 245 729 321 822 q 169 446 169 636 l 169 0 l 71 0 z "},"⩉":{"ha":700,"x_min":71,"x_max":629,"o":"m 71 597 l 71 764 q 106 906 71 846 q 205 1001 142 967 q 351 1035 268 1035 q 553 961 478 1035 q 629 764 629 888 l 629 597 l 540 597 l 540 733 q 350 953 540 953 q 207 900 254 953 q 160 733 160 847 l 160 597 l 71 597 m 114 483 l 114 551 l 585 551 l 585 483 l 114 483 m 351 0 q 205 33 268 0 q 106 128 142 67 q 71 271 71 189 l 71 438 l 160 438 l 160 301 q 208 135 160 188 q 350 82 256 82 q 493 135 446 82 q 540 301 540 189 l 540 438 l 629 438 l 629 271 q 554 74 629 149 q 351 0 479 0 z "}}}
